{
DisplayStrings = (
"\U0326",
"\U0123g",
"\U0156R"
);
date = "2010-11-18 20:55:16 -0600";
familyName = Neuton;
fontMaster = (
{
ascender = 790;
capHeight = 753;
descender = "-234";
id = "D303553C-E248-431D-BB32-0A8D4BAA17B9";
italicAngle = 0;
weight = Regular;
weightValue = 500;
widthValue = 5;
xHeight = 539;
},
{
ascender = 800;
capHeight = 700;
descender = "-200";
id = "7E45FD12-17AB-4855-B847-BB8C6CE14238";
italicAngle = 0;
weight = Bold;
weightValue = 100;
widthValue = 100;
xHeight = 500;
}
);
glyphs = (
{
glyphname = A;
layers = (
{
anchors = (
{
name = ogonek;
position = "{701, 10}";
},
{
name = top;
position = "{512, 753}";
}
);
layerId = "D303553C-E248-431D-BB32-0A8D4BAA17B9";
name = Regular;
paths = (
{
closed = 1;
nodes = (
"551 768 LINE",
"462 749 LINE",
"104 78 LINE",
"14 45 LINE",
"3 0 LINE",
"273 0 LINE",
"286 49 LINE",
"183 75 LINE",
"276 262 LINE",
"518 262 LINE",
"552 78 LINE",
"448 45 LINE",
"436 0 LINE",
"729 0 LINE",
"740 49 LINE",
"665 75 LINE"
);
},
{
closed = 1;
nodes = (
"307 323 LINE",
"462 626 LINE",
"510 323 LINE"
);
}
);
width = 774;
},
{
layerId = "7E45FD12-17AB-4855-B847-BB8C6CE14238";
name = Bold;
width = 600;
}
);
unicode = 0041;
},
{
glyphname = AE;
layers = (
{
layerId = "D303553C-E248-431D-BB32-0A8D4BAA17B9";
name = Regular;
paths = (
{
closed = 1;
nodes = (
"600 640 LINE",
"552 343 LINE",
"376 343 LINE"
);
},
{
closed = 1;
nodes = (
"544 286 LINE",
"511 73 LINE",
"508 72 LINE",
"410 45 LINE",
"398 0 LINE",
"428 0 LINE",
"683 0 LINE",
"958 0 LINE",
"1005 190 LINE",
"960 199 LINE",
"881 58 LINE",
"613 58 LINE",
"660 355 LINE",
"800 355 LINE",
"802 248 LINE",
"854 257 LINE",
"910 490 LINE",
"854 486 LINE",
"818 412 LINE",
"669 412 LINE",
"715 698 LINE",
"967 698 LINE",
"970 570 LINE",
"1018 562 LINE",
"1066 753 LINE",
"619 753 LINE",
"101 79 LINE",
"18 46 LINE",
"7 0 LINE",
"270 0 LINE",
"283 50 LINE",
"179 76 LINE",
"337 286 LINE"
);
}
);
width = 1113;
},
{
layerId = "7E45FD12-17AB-4855-B847-BB8C6CE14238";
name = Bold;
width = 600;
}
);
unicode = 00C6;
},
{
glyphname = B;
layers = (
{
layerId = "D303553C-E248-431D-BB32-0A8D4BAA17B9";
name = Regular;
paths = (
{
closed = 1;
nodes = (
"420 366 LINE SMOOTH",
"508 366 OFFCURVE",
"550 303 OFFCURVE",
"549 236 CURVE SMOOTH",
"548 151 OFFCURVE",
"487 58 OFFCURVE",
"354 58 CURVE SMOOTH",
"237 58 LINE",
"291 366 LINE"
);
},
{
closed = 1;
nodes = (
"512 412 LINE",
"627 453 OFFCURVE",
"664 544 OFFCURVE",
"664 607 CURVE SMOOTH",
"665 688 OFFCURVE",
"602 761 OFFCURVE",
"441 761 CURVE SMOOTH",
"339 761 OFFCURVE",
"235 746 OFFCURVE",
"149 733 CURVE",
"137 687 LINE",
"233 669 LINE",
"130 73 LINE",
"28 45 LINE",
"17 0 LINE",
"293 0 LINE SMOOTH",
"548 0 OFFCURVE",
"665 139 OFFCURVE",
"665 255 CURVE SMOOTH",
"666 328 OFFCURVE",
"616 401 OFFCURVE",
"511 407 CURVE"
);
},
{
closed = 1;
nodes = (
"351 705 LINE",
"367 708 OFFCURVE",
"383 709 OFFCURVE",
"397 709 CURVE SMOOTH",
"516 709 OFFCURVE",
"550 643 OFFCURVE",
"550 578 CURVE SMOOTH",
"549 482 OFFCURVE",
"499 417 OFFCURVE",
"421 417 CURVE SMOOTH",
"301 417 LINE"
);
}
);
width = 683;
},
{
layerId = "7E45FD12-17AB-4855-B847-BB8C6CE14238";
name = Bold;
width = 600;
}
);
unicode = 0042;
},
{
glyphname = C;
layers = (
{
anchors = (
{
name = bottom;
position = "{397, 0}";
},
{
name = top;
position = "{527, 753}";
}
);
layerId = "D303553C-E248-431D-BB32-0A8D4BAA17B9";
name = Regular;
paths = (
{
closed = 1;
nodes = (
"204 559 OFFCURVE",
"337 711 OFFCURVE",
"478 711 CURVE SMOOTH",
"552 711 OFFCURVE",
"598 684 OFFCURVE",
"619 648 CURVE",
"621 515 LINE",
"670 507 LINE",
"720 708 LINE",
"672 752 OFFCURVE",
"598 769 OFFCURVE",
"522 769 CURVE SMOOTH",
"224 769 OFFCURVE",
"77 488 OFFCURVE",
"79 292 CURVE SMOOTH",
"81 92 OFFCURVE",
"213 -15 OFFCURVE",
"369 -15 CURVE SMOOTH",
"463 -15 OFFCURVE",
"572 20 OFFCURVE",
"660 123 CURVE",
"637 156 LINE",
"563 88 OFFCURVE",
"494 64 OFFCURVE",
"427 64 CURVE SMOOTH",
"309 64 OFFCURVE",
"209 146 OFFCURVE",
"207 326 CURVE SMOOTH"
);
}
);
width = 673;
},
{
layerId = "7E45FD12-17AB-4855-B847-BB8C6CE14238";
name = Bold;
width = 600;
}
);
unicode = 0043;
},
{
glyphname = D;
layers = (
{
anchors = (
{
name = center;
position = "{402, 377}";
},
{
name = top;
position = "{502, 753}";
}
);
layerId = "D303553C-E248-431D-BB32-0A8D4BAA17B9";
name = Regular;
paths = (
{
closed = 1;
nodes = (
"337 696 LINE",
"361 699 OFFCURVE",
"384 700 OFFCURVE",
"408 700 CURVE SMOOTH",
"592 700 OFFCURVE",
"674 579 OFFCURVE",
"676 426 CURVE SMOOTH",
"678 235 OFFCURVE",
"537 63 OFFCURVE",
"322 63 CURVE SMOOTH",
"237 63 LINE"
);
},
{
closed = 1;
nodes = (
"804 623 OFFCURVE",
"717 762 OFFCURVE",
"440 762 CURVE SMOOTH",
"356 762 OFFCURVE",
"255 751 OFFCURVE",
"138 732 CURVE",
"126 686 LINE",
"223 668 LINE",
"130 78 LINE",
"26 45 LINE",
"14 0 LINE",
"288 0 LINE SMOOTH",
"601 0 OFFCURVE",
"808 233 OFFCURVE",
"806 465 CURVE SMOOTH"
);
}
);
width = 804;
},
{
layerId = "7E45FD12-17AB-4855-B847-BB8C6CE14238";
name = Bold;
width = 600;
}
);
unicode = 0044;
},
{
glyphname = E;
layers = (
{
anchors = (
{
name = bottom;
position = "{336, 0}";
},
{
name = ogonek;
position = "{574, 10}";
},
{
name = top;
position = "{456, 753}";
}
);
layerId = "D303553C-E248-431D-BB32-0A8D4BAA17B9";
name = Regular;
paths = (
{
closed = 1;
nodes = (
"136 753 LINE",
"126 707 LINE",
"227 682 LINE",
"131 73 LINE",
"31 45 LINE",
"22 0 LINE",
"604 0 LINE",
"652 190 LINE",
"605 197 LINE",
"526 58 LINE",
"239 58 LINE",
"286 353 LINE",
"445 353 LINE",
"448 247 LINE",
"499 255 LINE",
"555 490 LINE",
"500 482 LINE",
"463 410 LINE",
"295 410 LINE",
"340 698 LINE",
"613 698 LINE",
"616 568 LINE",
"665 560 LINE",
"713 753 LINE"
);
}
);
width = 651;
},
{
layerId = "7E45FD12-17AB-4855-B847-BB8C6CE14238";
name = Bold;
width = 600;
}
);
unicode = 0045;
},
{
glyphname = Eth;
layers = (
{
components = (
{
name = D;
transform = "{1, 0, 0, 1, 0, 0}";
}
);
layerId = "D303553C-E248-431D-BB32-0A8D4BAA17B9";
name = Regular;
paths = (
{
closed = 1;
nodes = (
"95 392 LINE",
"79 331 LINE",
"447 347 LINE",
"464 408 LINE"
);
}
);
width = 804;
},
{
layerId = "7E45FD12-17AB-4855-B847-BB8C6CE14238";
name = Bold;
width = 600;
}
);
unicode = 00D0;
},
{
glyphname = F;
layers = (
{
layerId = "D303553C-E248-431D-BB32-0A8D4BAA17B9";
name = Regular;
paths = (
{
closed = 1;
nodes = (
"137 753 LINE",
"126 707 LINE",
"227 682 LINE",
"131 73 LINE",
"31 45 LINE",
"22 0 LINE",
"363 0 LINE",
"375 51 LINE",
"241 74 LINE",
"285 350 LINE",
"443 350 LINE",
"444 241 LINE",
"497 250 LINE",
"549 487 LINE",
"497 479 LINE",
"460 406 LINE",
"294 406 LINE",
"340 698 LINE",
"609 698 LINE",
"609 567 LINE",
"658 559 LINE",
"712 753 LINE"
);
}
);
width = 623;
},
{
layerId = "7E45FD12-17AB-4855-B847-BB8C6CE14238";
name = Bold;
width = 600;
}
);
unicode = 0046;
},
{
glyphname = G;
layers = (
{
anchors = (
{
name = bottom;
position = "{397, 0}";
},
{
name = top;
position = "{537, 753}";
}
);
layerId = "D303553C-E248-431D-BB32-0A8D4BAA17B9";
name = Regular;
paths = (
{
closed = 1;
nodes = (
"764 704 LINE",
"712 744 OFFCURVE",
"638 763 OFFCURVE",
"527 763 CURVE SMOOTH",
"312 763 OFFCURVE",
"75 585 OFFCURVE",
"78 282 CURVE SMOOTH",
"79 121 OFFCURVE",
"164 -19 OFFCURVE",
"362 -19 CURVE SMOOTH",
"490 -19 OFFCURVE",
"595 9 OFFCURVE",
"661 53 CURVE",
"694 266 LINE",
"769 291 LINE",
"780 336 LINE",
"459 336 LINE",
"447 286 LINE",
"580 263 LINE",
"550 74 LINE",
"534 60 OFFCURVE",
"502 46 OFFCURVE",
"442 46 CURVE SMOOTH",
"285 46 OFFCURVE",
"209 144 OFFCURVE",
"208 326 CURVE SMOOTH",
"206 605 OFFCURVE",
"352 703 OFFCURVE",
"488 703 CURVE SMOOTH",
"593 703 OFFCURVE",
"647 666 OFFCURVE",
"666 634 CURVE",
"668 518 LINE",
"717 509 LINE"
);
}
);
width = 773;
},
{
layerId = "7E45FD12-17AB-4855-B847-BB8C6CE14238";
name = Bold;
width = 600;
}
);
unicode = 0047;
},
{
glyphname = Germandbls;
layers = (
{
layerId = "D303553C-E248-431D-BB32-0A8D4BAA17B9";
name = Regular;
paths = (
{
closed = 1;
nodes = (
"643 684 CURVE SMOOTH",
"591 684 OFFCURVE",
"530 633 OFFCURVE",
"520 571 CURVE SMOOTH",
"491 392 OFFCURVE",
"829 418 OFFCURVE",
"793 194 CURVE SMOOTH",
"771 55 OFFCURVE",
"648 -15 OFFCURVE",
"510 -15 CURVE SMOOTH",
"423 -15 OFFCURVE",
"345 18 OFFCURVE",
"320 74 CURVE",
"353 231 LINE",
"410 222 LINE",
"414 113 LINE",
"431 78 OFFCURVE",
"477 47 OFFCURVE",
"534 47 CURVE SMOOTH",
"598 47 OFFCURVE",
"661 68 OFFCURVE",
"675 154 CURVE SMOOTH",
"699 310 OFFCURVE",
"370 288 OFFCURVE",
"405 510 CURVE SMOOTH",
"421 610 OFFCURVE",
"496 690 OFFCURVE",
"585 710 CURVE",
"586 712 LINE",
"574 713 OFFCURVE",
"545 714 OFFCURVE",
"533 714 CURVE SMOOTH",
"413 714 OFFCURVE",
"342 632 OFFCURVE",
"318 476 CURVE SMOOTH",
"243 0 LINE",
"20 0 LINE",
"33 45 LINE",
"138 73 LINE",
"200 462 LINE SMOOTH",
"234 678 OFFCURVE",
"368 769 OFFCURVE",
"550 769 CURVE SMOOTH",
"664 769 OFFCURVE",
"841 743 OFFCURVE",
"824 635 CURVE SMOOTH",
"817 588 OFFCURVE",
"787 568 OFFCURVE",
"737 552 CURVE",
"725 616 OFFCURVE",
"713 684 OFFCURVE"
);
}
);
width = 780;
},
{
layerId = "7E45FD12-17AB-4855-B847-BB8C6CE14238";
name = Bold;
width = 600;
}
);
unicode = 1E9E;
},
{
glyphname = H;
layers = (
{
anchors = (
{
name = center;
position = "{429, 377}";
},
{
name = top;
position = "{509, 753}";
}
);
layerId = "D303553C-E248-431D-BB32-0A8D4BAA17B9";
name = Regular;
paths = (
{
closed = 1;
nodes = (
"319 0 LINE",
"332 49 LINE",
"232 69 LINE",
"277 357 LINE",
"622 358 LINE",
"577 73 LINE",
"483 45 LINE",
"472 0 LINE",
"770 0 LINE",
"781 49 LINE",
"683 69 LINE",
"780 684 LINE",
"876 707 LINE",
"886 753 LINE",
"587 753 LINE",
"576 707 LINE",
"673 682 LINE",
"632 419 LINE",
"288 419 LINE",
"329 684 LINE",
"425 707 LINE",
"435 753 LINE",
"136 753 LINE",
"126 707 LINE",
"222 682 LINE",
"126 73 LINE",
"31 45 LINE",
"22 0 LINE"
);
}
);
width = 858;
},
{
layerId = "7E45FD12-17AB-4855-B847-BB8C6CE14238";
name = Bold;
width = 600;
}
);
unicode = 0048;
},
{
glyphname = I;
layers = (
{
anchors = (
{
name = ogonek;
position = "{328, 10}";
},
{
name = top;
position = "{303, 753}";
}
);
layerId = "D303553C-E248-431D-BB32-0A8D4BAA17B9";
name = Regular;
paths = (
{
closed = 1;
nodes = (
"333 0 LINE",
"344 49 LINE",
"241 69 LINE",
"338 684 LINE",
"440 707 LINE",
"450 753 LINE",
"136 753 LINE",
"126 707 LINE",
"227 682 LINE",
"131 73 LINE",
"31 45 LINE",
"22 0 LINE"
);
}
);
width = 364;
},
{
layerId = "7E45FD12-17AB-4855-B847-BB8C6CE14238";
name = Bold;
width = 600;
}
);
unicode = 0049;
},
{
glyphname = J;
layers = (
{
anchors = (
{
name = top;
position = "{295, 753}";
}
);
layerId = "D303553C-E248-431D-BB32-0A8D4BAA17B9";
name = Regular;
paths = (
{
closed = 1;
nodes = (
"165 -83 OFFCURVE",
"225 -15 OFFCURVE",
"265 233 CURVE SMOOTH",
"338 684 LINE",
"440 707 LINE",
"448 753 LINE",
"134 753 LINE",
"125 707 LINE",
"225 682 LINE",
"135 119 LINE SMOOTH",
"120 22 OFFCURVE",
"62 -55 OFFCURVE",
"-41 -144 CURVE",
"-36 -163 OFFCURVE",
"-27 -183 OFFCURVE",
"-18 -197 CURVE"
);
}
);
width = 359;
},
{
layerId = "7E45FD12-17AB-4855-B847-BB8C6CE14238";
name = Bold;
width = 600;
}
);
unicode = 004A;
},
{
glyphname = K;
layers = (
{
anchors = (
{
name = bottom;
position = "{372, 0}";
},
{
name = top;
position = "{492, 753}";
}
);
layerId = "D303553C-E248-431D-BB32-0A8D4BAA17B9";
name = Regular;
paths = (
{
closed = 1;
nodes = (
"422 158 LINE SMOOTH",
"470 62 OFFCURVE",
"531 -13 OFFCURVE",
"627 -13 CURVE SMOOTH",
"651 -13 OFFCURVE",
"677 -9 OFFCURVE",
"703 0 CURVE",
"716 44 LINE",
"696 51 LINE SMOOTH",
"626 75 OFFCURVE",
"589 121 OFFCURVE",
"518 230 CURVE SMOOTH",
"413 393 LINE",
"677 679 LINE",
"784 707 LINE",
"795 753 LINE",
"508 753 LINE",
"499 707 LINE",
"588 679 LINE",
"381 446 LINE SMOOTH",
"359 421 OFFCURVE",
"328 396 OFFCURVE",
"308 381 CURVE",
"305 366 LINE",
"319 351 OFFCURVE",
"345 308 OFFCURVE",
"345 308 CURVE"
);
},
{
closed = 1;
nodes = (
"243 75 LINE",
"337 679 LINE",
"441 707 LINE",
"451 753 LINE",
"134 753 LINE",
"122 707 LINE",
"226 677 LINE",
"132 78 LINE",
"27 45 LINE",
"18 0 LINE",
"337 0 LINE",
"348 49 LINE"
);
}
);
width = 744;
},
{
layerId = "7E45FD12-17AB-4855-B847-BB8C6CE14238";
name = Bold;
width = 600;
}
);
unicode = 004B;
},
{
glyphname = L;
layers = (
{
anchors = (
{
name = bottom;
position = "{323, 0}";
},
{
name = top;
position = "{323, 753}";
}
);
layerId = "D303553C-E248-431D-BB32-0A8D4BAA17B9";
name = Regular;
paths = (
{
closed = 1;
nodes = (
"455 753 LINE",
"138 753 LINE",
"126 707 LINE",
"230 677 LINE",
"135 73 LINE",
"34 45 LINE",
"26 0 LINE",
"593 0 LINE",
"646 200 LINE",
"597 208 LINE",
"498 58 LINE",
"243 58 LINE",
"341 679 LINE",
"445 707 LINE"
);
}
);
width = 645;
},
{
layerId = "7E45FD12-17AB-4855-B847-BB8C6CE14238";
name = Bold;
width = 600;
}
);
unicode = 004C;
},
{
glyphname = M;
layers = (
{
layerId = "D303553C-E248-431D-BB32-0A8D4BAA17B9";
name = Regular;
paths = (
{
closed = 1;
nodes = (
"423 19 LINE",
"495 31 LINE",
"806 608 LINE",
"754 73 LINE",
"655 45 LINE",
"644 0 LINE",
"952 0 LINE",
"963 49 LINE",
"861 69 LINE",
"927 684 LINE",
"1028 707 LINE",
"1038 753 LINE",
"810 753 LINE",
"758 656 LINE",
"505 187 LINE",
"425 636 LINE",
"399 753 LINE",
"168 753 LINE",
"157 707 LINE",
"259 682 LINE",
"121 73 LINE",
"21 45 LINE",
"10 0 LINE",
"287 0 LINE",
"300 49 LINE",
"195 69 LINE",
"313 585 LINE"
);
}
);
width = 1008;
},
{
layerId = "7E45FD12-17AB-4855-B847-BB8C6CE14238";
name = Bold;
width = 600;
}
);
unicode = 004D;
},
{
glyphname = N;
layers = (
{
anchors = (
{
name = bottom;
position = "{405, 0}";
},
{
name = top;
position = "{506, 753}";
}
);
layerId = "D303553C-E248-431D-BB32-0A8D4BAA17B9";
name = Regular;
paths = (
{
closed = 1;
nodes = (
"572 -18 LINE",
"660 0 LINE",
"768 684 LINE",
"868 707 LINE",
"879 753 LINE",
"605 753 LINE",
"594 707 LINE",
"697 682 LINE",
"616 165 LINE",
"338 753 LINE",
"136 753 LINE",
"126 707 LINE",
"226 677 LINE",
"131 73 LINE",
"31 45 LINE",
"22 0 LINE",
"296 0 LINE",
"307 49 LINE",
"203 69 LINE",
"284 582 LINE"
);
}
);
width = 810;
},
{
layerId = "7E45FD12-17AB-4855-B847-BB8C6CE14238";
name = Bold;
width = 600;
}
);
unicode = 004E;
},
{
glyphname = O;
layers = (
{
anchors = (
{
name = top;
position = "{530, 755}";
}
);
layerId = "D303553C-E248-431D-BB32-0A8D4BAA17B9";
name = Regular;
paths = (
{
closed = 1;
nodes = (
"619 712 OFFCURVE",
"670 573 OFFCURVE",
"672 432 CURVE SMOOTH",
"673 295 OFFCURVE",
"636 48 OFFCURVE",
"399 48 CURVE SMOOTH",
"267 48 OFFCURVE",
"216 178 OFFCURVE",
"215 319 CURVE SMOOTH",
"213 468 OFFCURVE",
"247 712 OFFCURVE",
"487 712 CURVE SMOOTH"
);
},
{
closed = 1;
nodes = (
"799 623 OFFCURVE",
"704 771 OFFCURVE",
"524 771 CURVE SMOOTH",
"262 771 OFFCURVE",
"80 571 OFFCURVE",
"83 306 CURVE SMOOTH",
"84 124 OFFCURVE",
"187 -16 OFFCURVE",
"360 -16 CURVE SMOOTH",
"632 -16 OFFCURVE",
"804 205 OFFCURVE",
"801 446 CURVE SMOOTH"
);
}
);
width = 801;
},
{
layerId = "7E45FD12-17AB-4855-B847-BB8C6CE14238";
name = Bold;
width = 600;
}
);
unicode = 004F;
},
{
glyphname = Oslash;
layers = (
{
anchors = (
{
name = top;
position = "{401, 753}";
}
);
components = (
{
name = O;
transform = "{1, 0, 0, 1, 0, 0}";
}
);
layerId = "D303553C-E248-431D-BB32-0A8D4BAA17B9";
name = Regular;
paths = (
{
closed = 1;
nodes = (
"521 821 LINE",
"502 755 LINE",
"501 732 LINE",
"303 46 LINE",
"290 21 LINE",
"241 -147 LINE",
"327 -142 LINE",
"371 6 LINE",
"372 31 LINE",
"570 709 LINE",
"584 738 LINE",
"609 826 LINE"
);
}
);
width = 801;
},
{
anchors = (
{
name = top;
position = "{300, 700}";
}
);
components = (
{
name = O;
transform = "{1, 0, 0, 1, 0, 0}";
},
{
name = slash;
transform = "{1, 0, 0, 1, 0, 0}";
}
);
layerId = "7E45FD12-17AB-4855-B847-BB8C6CE14238";
name = Bold;
width = 600;
}
);
leftMetricsKey = O;
rightMetricsKey = O;
unicode = 00D8;
},
{
glyphname = P;
layers = (
{
layerId = "D303553C-E248-431D-BB32-0A8D4BAA17B9";
name = Regular;
paths = (
{
closed = 1;
nodes = (
"675 723 OFFCURVE",
"554 760 OFFCURVE",
"419 760 CURVE SMOOTH",
"321 760 OFFCURVE",
"215 745 OFFCURVE",
"139 733 CURVE",
"126 687 LINE",
"221 669 LINE",
"128 73 LINE",
"27 45 LINE",
"17 0 LINE",
"359 0 LINE",
"372 51 LINE",
"238 74 LINE",
"338 707 LINE",
"338 707 OFFCURVE",
"376 710 OFFCURVE",
"400 710 CURVE SMOOTH",
"507 710 OFFCURVE",
"551 639 OFFCURVE",
"552 555 CURVE SMOOTH",
"553 426 OFFCURVE",
"484 352 OFFCURVE",
"339 352 CURVE SMOOTH",
"308 352 LINE",
"312 302 LINE",
"334 299 OFFCURVE",
"356 297 OFFCURVE",
"377 297 CURVE SMOOTH",
"531 297 OFFCURVE",
"677 412 OFFCURVE",
"676 579 CURVE SMOOTH"
);
}
);
width = 611;
},
{
layerId = "7E45FD12-17AB-4855-B847-BB8C6CE14238";
name = Bold;
width = 600;
}
);
unicode = 0050;
},
{
glyphname = Q;
layers = (
{
layerId = "D303553C-E248-431D-BB32-0A8D4BAA17B9";
name = Regular;
paths = (
{
closed = 1;
nodes = (
"625 707 OFFCURVE",
"691 562 OFFCURVE",
"692 412 CURVE SMOOTH",
"693 280 OFFCURVE",
"663 97 OFFCURVE",
"441 41 CURVE",
"265 52 OFFCURVE",
"214 209 OFFCURVE",
"212 339 CURVE SMOOTH",
"210 565 OFFCURVE",
"323 707 OFFCURVE",
"496 707 CURVE SMOOTH"
);
},
{
closed = 1;
nodes = (
"394 -151 OFFCURVE",
"474 -233 OFFCURVE",
"579 -233 CURVE SMOOTH",
"611 -233 OFFCURVE",
"646 -230 OFFCURVE",
"684 -212 CURVE",
"690 -201 OFFCURVE",
"695 -182 OFFCURVE",
"697 -167 CURVE",
"537 -138 OFFCURVE",
"494 -86 OFFCURVE",
"474 -4 CURVE",
"682 47 OFFCURVE",
"820 240 OFFCURVE",
"817 450 CURVE SMOOTH",
"816 628 OFFCURVE",
"718 771 OFFCURVE",
"539 771 CURVE SMOOTH",
"281 771 OFFCURVE",
"86 566 OFFCURVE",
"89 300 CURVE SMOOTH",
"90 118 OFFCURVE",
"195 -16 OFFCURVE",
"368 -16 CURVE SMOOTH",
"377 -16 OFFCURVE",
"400 -15 OFFCURVE",
"405 -13 CURVE"
);
}
);
width = 808;
},
{
layerId = "7E45FD12-17AB-4855-B847-BB8C6CE14238";
name = Bold;
width = 600;
}
);
unicode = 0051;
},
{
glyphname = R;
layers = (
{
anchors = (
{
name = bottom;
position = "{441, 0}";
},
{
name = top;
position = "{444, 753}";
}
);
layerId = "D303553C-E248-431D-BB32-0A8D4BAA17B9";
name = Regular;
paths = (
{
closed = 1;
nodes = (
"667 710 OFFCURVE",
"562 759 OFFCURVE",
"407 759 CURVE SMOOTH",
"322 759 OFFCURVE",
"225 745 OFFCURVE",
"139 731 CURVE",
"125 685 LINE",
"222 667 LINE",
"128 73 LINE",
"27 45 LINE",
"17 0 LINE",
"333 0 LINE",
"344 50 LINE",
"239 76 LINE",
"278 325 LINE",
"378 325 LINE",
"444 153 LINE SMOOTH",
"479 59 OFFCURVE",
"531 -13 OFFCURVE",
"622 -13 CURVE SMOOTH",
"644 -13 OFFCURVE",
"668 -9 OFFCURVE",
"694 0 CURVE",
"709 41 LINE",
"692 47 LINE SMOOTH",
"623 71 OFFCURVE",
"600 113 OFFCURVE",
"548 211 CURVE SMOOTH",
"468 362 LINE",
"468 363 LINE",
"596 409 OFFCURVE",
"668 499 OFFCURVE",
"668 593 CURVE SMOOTH"
);
},
{
closed = 1;
nodes = (
"286 380 LINE",
"338 705 LINE",
"338 705 OFFCURVE",
"368 708 OFFCURVE",
"409 708 CURVE SMOOTH",
"496 708 OFFCURVE",
"543 642 OFFCURVE",
"543 560 CURVE SMOOTH",
"544 453 OFFCURVE",
"459 380 OFFCURVE",
"382 380 CURVE SMOOTH"
);
}
);
width = 735;
},
{
layerId = "7E45FD12-17AB-4855-B847-BB8C6CE14238";
name = Bold;
width = 600;
}
);
unicode = 0052;
},
{
glyphname = S;
layers = (
{
anchors = (
{
name = bottom;
position = "{262, 0}";
},
{
name = top;
position = "{400, 755}";
}
);
layerId = "D303553C-E248-431D-BB32-0A8D4BAA17B9";
name = Regular;
paths = (
{
closed = 1;
nodes = (
"500 537 LINE",
"500 537 OFFCURVE",
"538 703 OFFCURVE",
"539 708 CURVE",
"501 755 OFFCURVE",
"437 769 OFFCURVE",
"386 769 CURVE SMOOTH",
"260 769 OFFCURVE",
"124 669 OFFCURVE",
"126 517 CURVE SMOOTH",
"128 346 OFFCURVE",
"399 314 OFFCURVE",
"400 179 CURVE SMOOTH",
"401 80 OFFCURVE",
"308 47 OFFCURVE",
"242 47 CURVE SMOOTH",
"185 47 OFFCURVE",
"148 74 OFFCURVE",
"132 113 CURVE",
"129 227 LINE",
"72 236 LINE",
"38 74 LINE",
"61 25 OFFCURVE",
"135 -15 OFFCURVE",
"218 -15 CURVE SMOOTH",
"363 -15 OFFCURVE",
"516 79 OFFCURVE",
"514 232 CURVE SMOOTH",
"512 400 OFFCURVE",
"235 429 OFFCURVE",
"233 576 CURVE SMOOTH",
"232 663 OFFCURVE",
"292 717 OFFCURVE",
"358 717 CURVE SMOOTH",
"407 717 OFFCURVE",
"442 677 OFFCURVE",
"446 660 CURVE",
"443 544 LINE"
);
}
);
width = 523;
},
{
layerId = "7E45FD12-17AB-4855-B847-BB8C6CE14238";
name = Bold;
width = 600;
}
);
unicode = 0053;
},
{
glyphname = T;
layers = (
{
anchors = (
{
name = bottom;
position = "{339, 0}";
},
{
name = center;
position = "{349, 377}";
},
{
name = top;
position = "{457, 753}";
}
);
layerId = "D303553C-E248-431D-BB32-0A8D4BAA17B9";
name = Regular;
paths = (
{
closed = 1;
nodes = (
"124 753 LINE",
"98 559 LINE",
"150 551 LINE",
"204 698 LINE",
"374 698 LINE",
"275 73 LINE",
"174 45 LINE",
"164 0 LINE",
"476 0 LINE",
"488 49 LINE",
"385 69 LINE",
"485 698 LINE",
"660 698 LINE",
"660 558 LINE",
"714 549 LINE",
"765 753 LINE"
);
}
);
width = 697;
},
{
layerId = "7E45FD12-17AB-4855-B847-BB8C6CE14238";
name = Bold;
width = 600;
}
);
unicode = 0054;
},
{
glyphname = Thorn;
layers = (
{
layerId = "D303553C-E248-431D-BB32-0A8D4BAA17B9";
name = Regular;
paths = (
{
closed = 1;
nodes = (
"338 684 LINE",
"440 707 LINE",
"450 753 LINE",
"136 753 LINE",
"126 707 LINE",
"227 682 LINE",
"131 73 LINE",
"31 45 LINE",
"22 0 LINE",
"333 0 LINE",
"344 49 LINE",
"241 69 LINE",
"320.813 575.03 LINE",
"325 577 LINE",
"325 577 OFFCURVE",
"363 580 OFFCURVE",
"387 580 CURVE SMOOTH",
"494 580 OFFCURVE",
"538 509 OFFCURVE",
"539 425 CURVE SMOOTH",
"540 296 OFFCURVE",
"471 222 OFFCURVE",
"326 222 CURVE SMOOTH",
"295 222 LINE",
"299 172 LINE",
"321 169 OFFCURVE",
"343 167 OFFCURVE",
"364 167 CURVE SMOOTH",
"518 167 OFFCURVE",
"664 282 OFFCURVE",
"663 449 CURVE SMOOTH",
"662 593 OFFCURVE",
"541 630 OFFCURVE",
"406 630 CURVE SMOOTH",
"380.838 630 OFFCURVE",
"354.991 628.972 OFFCURVE",
"329.06 627.319 CURVE"
);
}
);
width = 600;
},
{
layerId = "7E45FD12-17AB-4855-B847-BB8C6CE14238";
name = Bold;
width = 600;
}
);
unicode = 00DE;
},
{
glyphname = U;
layers = (
{
anchors = (
{
name = ogonek;
position = "{475, 10}";
},
{
name = top;
position = "{543, 753}";
}
);
layerId = "D303553C-E248-431D-BB32-0A8D4BAA17B9";
name = Regular;
paths = (
{
closed = 1;
nodes = (
"313 56 OFFCURVE",
"241 126 OFFCURVE",
"268 299 CURVE SMOOTH",
"328 684 LINE",
"430 707 LINE",
"439 753 LINE",
"127 753 LINE",
"116 707 LINE",
"219 682 LINE",
"156 284 LINE SMOOTH",
"116 29 OFFCURVE",
"273 -16 OFFCURVE",
"382 -16 CURVE SMOOTH",
"559 -16 OFFCURVE",
"690 69 OFFCURVE",
"729 302 CURVE SMOOTH",
"792 684 LINE",
"893 707 LINE",
"903 753 LINE",
"627 753 LINE",
"618 707 LINE",
"718 682 LINE",
"656 291 LINE SMOOTH",
"641 197 OFFCURVE",
"604 56 OFFCURVE",
"431 56 CURVE SMOOTH"
);
}
);
width = 829;
},
{
layerId = "7E45FD12-17AB-4855-B847-BB8C6CE14238";
name = Bold;
width = 600;
}
);
unicode = 0055;
},
{
glyphname = V;
layers = (
{
layerId = "D303553C-E248-431D-BB32-0A8D4BAA17B9";
name = Regular;
paths = (
{
closed = 1;
nodes = (
"328 -15 LINE",
"413 3 LINE",
"767 684 LINE",
"846 707 LINE",
"855 753 LINE",
"592 753 LINE",
"583 707 LINE",
"684 682 LINE",
"417 152 LINE",
"320 684 LINE",
"422 707 LINE",
"431 753 LINE",
"125 753 LINE",
"115 707 LINE",
"194 682 LINE"
);
}
);
width = 778;
},
{
layerId = "7E45FD12-17AB-4855-B847-BB8C6CE14238";
name = Bold;
width = 600;
}
);
unicode = 0056;
},
{
glyphname = W;
layers = (
{
anchors = (
{
name = top;
position = "{686, 753}";
}
);
layerId = "D303553C-E248-431D-BB32-0A8D4BAA17B9";
name = Regular;
paths = (
{
closed = 1;
nodes = (
"683 -15 LINE",
"771 3 LINE",
"1089 684 LINE",
"1164 707 LINE",
"1174 753 LINE",
"915 753 LINE",
"905 707 LINE",
"1004 682 LINE",
"774 174 LINE",
"725 738 LINE",
"625 723 LINE",
"370 165 LINE",
"311 684 LINE",
"412 707 LINE",
"424 753 LINE",
"131 753 LINE",
"122 707 LINE",
"197 682 LINE",
"278 -15 LINE",
"369 3 LINE",
"629 576 LINE"
);
}
);
width = 1117;
},
{
layerId = "7E45FD12-17AB-4855-B847-BB8C6CE14238";
name = Bold;
width = 600;
}
);
unicode = 0057;
},
{
glyphname = X;
layers = (
{
layerId = "D303553C-E248-431D-BB32-0A8D4BAA17B9";
name = Regular;
paths = (
{
closed = 1;
nodes = (
"473 394 LINE",
"714 684 LINE",
"791 707 LINE",
"800 753 LINE",
"539 753 LINE",
"528 707 LINE",
"632 682 LINE",
"439 450 LINE",
"336 679 LINE",
"436 707 LINE",
"447 753 LINE",
"147 753 LINE",
"136 707 LINE",
"207 677 LINE",
"356 368 LINE",
"97 73 LINE",
"24 45 LINE",
"12 0 LINE",
"273 0 LINE",
"284 49 LINE",
"181 69 LINE",
"390 316 LINE",
"504 73 LINE",
"404 45 LINE",
"392 0 LINE",
"684 0 LINE",
"697 49 LINE",
"619 69 LINE"
);
}
);
width = 728;
},
{
layerId = "7E45FD12-17AB-4855-B847-BB8C6CE14238";
name = Bold;
width = 600;
}
);
unicode = 0058;
},
{
glyphname = Y;
layers = (
{
anchors = (
{
name = top;
position = "{479, 753}";
}
);
layerId = "D303553C-E248-431D-BB32-0A8D4BAA17B9";
name = Regular;
paths = (
{
closed = 1;
nodes = (
"463 320 LINE",
"719 684 LINE",
"795 707 LINE",
"804 753 LINE",
"548 753 LINE",
"539 707 LINE",
"639 682 LINE",
"441 386 LINE",
"325 684 LINE",
"420 707 LINE",
"431 753 LINE",
"142 753 LINE",
"130 707 LINE",
"204 682 LINE",
"350 306 LINE",
"313 73 LINE",
"222 45 LINE",
"212 0 LINE",
"505 0 LINE",
"516 49 LINE",
"423 69 LINE"
);
}
);
width = 733;
},
{
layerId = "7E45FD12-17AB-4855-B847-BB8C6CE14238";
name = Bold;
width = 600;
}
);
unicode = 0059;
},
{
glyphname = Z;
layers = (
{
anchors = (
{
name = top;
position = "{416, 753}";
}
);
layerId = "D303553C-E248-431D-BB32-0A8D4BAA17B9";
name = Regular;
paths = (
{
closed = 1;
nodes = (
"139 753 LINE",
"116 558 LINE",
"169 547 LINE",
"224 696 LINE",
"549 696 LINE",
"19 63 LINE",
"15 0 LINE",
"557 0 LINE",
"607 203 LINE",
"552 212 LINE",
"466 61 LINE",
"143 61 LINE",
"686 707 LINE",
"693 753 LINE"
);
}
);
width = 611;
},
{
layerId = "7E45FD12-17AB-4855-B847-BB8C6CE14238";
name = Bold;
width = 600;
}
);
unicode = 005A;
},
{
glyphname = Germandbls.alt;
layers = (
{
layerId = "D303553C-E248-431D-BB32-0A8D4BAA17B9";
name = Regular;
paths = (
{
closed = 1;
nodes = (
"592 462 LINE",
"640 424 OFFCURVE",
"820 366 OFFCURVE",
"795 204 CURVE SMOOTH",
"773 65 OFFCURVE",
"648 -15 OFFCURVE",
"510 -15 CURVE SMOOTH",
"423 -15 OFFCURVE",
"346 23 OFFCURVE",
"321 79 CURVE",
"355 241 LINE",
"415 232 LINE",
"421 118 LINE",
"438 83 OFFCURVE",
"477 47 OFFCURVE",
"534 47 CURVE SMOOTH",
"598 47 OFFCURVE",
"663 78 OFFCURVE",
"676 164 CURVE SMOOTH",
"693 266 OFFCURVE",
"532 335 OFFCURVE",
"442 393 CURVE",
"432 423 LINE",
"672 692 LINE",
"672 695 LINE",
"648 706 OFFCURVE",
"545 714 OFFCURVE",
"533 714 CURVE SMOOTH",
"413 714 OFFCURVE",
"345 648 OFFCURVE",
"311 431 CURVE SMOOTH",
"243 0 LINE",
"20 0 LINE",
"33 45 LINE",
"138 73 LINE",
"192 417 LINE SMOOTH",
"235 686 OFFCURVE",
"368 769 OFFCURVE",
"550 769 CURVE SMOOTH",
"650 769 OFFCURVE",
"786 758 OFFCURVE",
"821 746 CURVE",
"815 702 LINE"
);
}
);
width = 780;
},
{
layerId = "7E45FD12-17AB-4855-B847-BB8C6CE14238";
name = Bold;
width = 600;
}
);
},
{
glyphname = Germandbls.alt2;
layers = (
{
layerId = "D303553C-E248-431D-BB32-0A8D4BAA17B9";
name = Regular;
paths = (
{
closed = 1;
nodes = (
"724 654 LINE",
"708 668 OFFCURVE",
"680 685 OFFCURVE",
"638 685 CURVE SMOOTH",
"594 685 OFFCURVE",
"531 643 OFFCURVE",
"521 581 CURVE SMOOTH",
"493 402 OFFCURVE",
"829 418 OFFCURVE",
"793 194 CURVE SMOOTH",
"771 55 OFFCURVE",
"648 -15 OFFCURVE",
"510 -15 CURVE SMOOTH",
"423 -15 OFFCURVE",
"345 18 OFFCURVE",
"320 74 CURVE",
"354 236 LINE",
"414 227 LINE",
"420 113 LINE",
"437 78 OFFCURVE",
"477 47 OFFCURVE",
"534 47 CURVE SMOOTH",
"598 47 OFFCURVE",
"661 68 OFFCURVE",
"675 154 CURVE SMOOTH",
"699 310 OFFCURVE",
"372 298 OFFCURVE",
"407 520 CURVE SMOOTH",
"423 620 OFFCURVE",
"496 690 OFFCURVE",
"585 710 CURVE",
"586 712 LINE",
"574 713 OFFCURVE",
"545 714 OFFCURVE",
"533 714 CURVE SMOOTH",
"413 714 OFFCURVE",
"342 632 OFFCURVE",
"318 476 CURVE SMOOTH",
"243 0 LINE",
"20 0 LINE",
"33 45 LINE",
"138 73 LINE",
"200 462 LINE SMOOTH",
"234 678 OFFCURVE",
"368 769 OFFCURVE",
"550 769 CURVE SMOOTH",
"664 769 OFFCURVE",
"768 745 OFFCURVE",
"821 708 CURVE",
"781 537 LINE",
"723 544 LINE"
);
}
);
width = 780;
},
{
layerId = "7E45FD12-17AB-4855-B847-BB8C6CE14238";
name = Bold;
width = 600;
}
);
},
{
glyphname = a;
layers = (
{
anchors = (
{
name = ogonek;
position = "{450, 10}";
},
{
name = top;
position = "{391, 539}";
}
);
layerId = "D303553C-E248-431D-BB32-0A8D4BAA17B9";
name = Regular;
paths = (
{
closed = 1;
nodes = (
"448 58 LINE SMOOTH",
"412 64 OFFCURVE",
"417 92 OFFCURVE",
"438 229 CURVE SMOOTH",
"481 504 LINE",
"471 515 LINE",
"442 533 OFFCURVE",
"398 536 OFFCURVE",
"359 536 CURVE SMOOTH",
"225 536 OFFCURVE",
"50 404 OFFCURVE",
"50 166 CURVE SMOOTH",
"50 54 OFFCURVE",
"97 -13 OFFCURVE",
"172 -13 CURVE SMOOTH",
"233 -13 OFFCURVE",
"287 30 OFFCURVE",
"315 80 CURVE",
"322 80 LINE",
"320 57 LINE SMOOTH",
"316 8 OFFCURVE",
"354 -9 OFFCURVE",
"392 -9 CURVE SMOOTH",
"426 -9 OFFCURVE",
"456 0 OFFCURVE",
"477 9 CURVE",
"489 51 LINE"
);
},
{
closed = 1;
nodes = (
"325 122 LINE",
"297 91 OFFCURVE",
"267 64 OFFCURVE",
"221 64 CURVE SMOOTH",
"173 64 OFFCURVE",
"148 103 OFFCURVE",
"148 194 CURVE SMOOTH",
"148 323 OFFCURVE",
"208 473 OFFCURVE",
"305 473 CURVE SMOOTH",
"333 473 OFFCURVE",
"360 468 OFFCURVE",
"377 452 CURVE"
);
}
);
width = 510;
},
{
layerId = "7E45FD12-17AB-4855-B847-BB8C6CE14238";
name = Bold;
width = 600;
}
);
unicode = 0061;
},
{
glyphname = ae;
layers = (
{
layerId = "D303553C-E248-431D-BB32-0A8D4BAA17B9";
name = Regular;
paths = (
{
closed = 1;
nodes = (
"434 178 OFFCURVE",
"430 239 OFFCURVE",
"443 308 CURVE SMOOTH",
"474 468 LINE",
"464 479 LINE",
"449 519 OFFCURVE",
"398 536 OFFCURVE",
"359 536 CURVE SMOOTH",
"225 536 OFFCURVE",
"50 404 OFFCURVE",
"50 166 CURVE SMOOTH",
"50 54 OFFCURVE",
"97 -13 OFFCURVE",
"172 -13 CURVE SMOOTH",
"233 -13 OFFCURVE",
"282 17 OFFCURVE",
"321 58 CURVE SMOOTH"
);
},
{
closed = 1;
nodes = (
"325 122 LINE",
"297 91 OFFCURVE",
"267 64 OFFCURVE",
"221 64 CURVE SMOOTH",
"173 64 OFFCURVE",
"148 103 OFFCURVE",
"148 194 CURVE SMOOTH",
"148 323 OFFCURVE",
"208 473 OFFCURVE",
"305 473 CURVE SMOOTH",
"333 473 OFFCURVE",
"360 468 OFFCURVE",
"377 452 CURVE"
);
},
{
closed = 1;
nodes = (
"450 310 LINE",
"476 436 OFFCURVE",
"528 483 OFFCURVE",
"570 483 CURVE SMOOTH",
"619 483 OFFCURVE",
"627 435 OFFCURVE",
"628 395 CURVE SMOOTH",
"628 366 OFFCURVE",
"626 345 OFFCURVE",
"615 323 CURVE"
);
},
{
closed = 1;
nodes = (
"345 41 OFFCURVE",
"412 -18 OFFCURVE",
"507 -18 CURVE SMOOTH",
"590 -18 OFFCURVE",
"667 38 OFFCURVE",
"694 80 CURVE",
"678 107 LINE",
"664 92 OFFCURVE",
"596 62 OFFCURVE",
"564 62 CURVE SMOOTH",
"495 62 OFFCURVE",
"441 106 OFFCURVE",
"440 196 CURVE SMOOTH",
"440 211 OFFCURVE",
"441 249 OFFCURVE",
"444 266 CURVE",
"691 277 LINE",
"709 310 OFFCURVE",
"721 348 OFFCURVE",
"720 402 CURVE SMOOTH",
"718 488 OFFCURVE",
"686 539 OFFCURVE",
"606 539 CURVE SMOOTH",
"453 539 OFFCURVE",
"339 368 OFFCURVE",
"343 175 CURVE SMOOTH"
);
}
);
width = 925;
},
{
layerId = "7E45FD12-17AB-4855-B847-BB8C6CE14238";
name = Bold;
width = 600;
}
);
unicode = 00E6;
},
{
glyphname = b;
layers = (
{
layerId = "D303553C-E248-431D-BB32-0A8D4BAA17B9";
name = Regular;
paths = (
{
closed = 1;
nodes = (
"171 692 LINE",
"65 30 LINE",
"98 0 OFFCURVE",
"161 -14 OFFCURVE",
"205 -14 CURVE SMOOTH",
"385 -14 OFFCURVE",
"519 138 OFFCURVE",
"519 324 CURVE SMOOTH",
"519 436 OFFCURVE",
"463 539 OFFCURVE",
"380 539 CURVE SMOOTH",
"324 539 OFFCURVE",
"257 492 OFFCURVE",
"225 437 CURVE",
"218 437 LINE",
"234 510 LINE",
"272 753 LINE",
"261 767 LINE",
"94 752 LINE",
"90 706 LINE"
);
},
{
closed = 1;
nodes = (
"417 108 OFFCURVE",
"320 54 OFFCURVE",
"265 54 CURVE SMOOTH",
"222 54 OFFCURVE",
"184 69 OFFCURVE",
"168 93 CURVE",
"220 403 LINE",
"249 430 OFFCURVE",
"279 453 OFFCURVE",
"332 453 CURVE SMOOTH",
"389 453 OFFCURVE",
"417 366 OFFCURVE",
"417 306 CURVE SMOOTH"
);
}
);
width = 554;
},
{
layerId = "7E45FD12-17AB-4855-B847-BB8C6CE14238";
name = Bold;
width = 600;
}
);
unicode = 0062;
},
{
glyphname = c;
layers = (
{
anchors = (
{
name = bottom;
position = "{224, 0}";
},
{
name = top;
position = "{314, 539}";
}
);
layerId = "D303553C-E248-431D-BB32-0A8D4BAA17B9";
name = Regular;
paths = (
{
closed = 1;
nodes = (
"167 56 OFFCURVE",
"140 116 OFFCURVE",
"140 200 CURVE SMOOTH",
"140 376 OFFCURVE",
"219 488 OFFCURVE",
"278 488 CURVE SMOOTH",
"312 488 OFFCURVE",
"323 430 OFFCURVE",
"326 389 CURVE",
"370 393 OFFCURVE",
"410 416 OFFCURVE",
"410 458 CURVE SMOOTH",
"410 510 OFFCURVE",
"373 545 OFFCURVE",
"308 545 CURVE SMOOTH",
"204 545 OFFCURVE",
"36 408 OFFCURVE",
"36 186 CURVE SMOOTH",
"36 56 OFFCURVE",
"96 -18 OFFCURVE",
"195 -18 CURVE SMOOTH",
"254 -18 OFFCURVE",
"320 18 OFFCURVE",
"357 64 CURVE",
"343 94 LINE",
"313 74 OFFCURVE",
"282 56 OFFCURVE",
"232 56 CURVE SMOOTH"
);
}
);
width = 410;
},
{
layerId = "7E45FD12-17AB-4855-B847-BB8C6CE14238";
name = Bold;
width = 600;
}
);
unicode = 0063;
},
{
glyphname = d;
layers = (
{
anchors = (
{
name = center;
position = "{245, 270}";
}
);
layerId = "D303553C-E248-431D-BB32-0A8D4BAA17B9";
name = Regular;
paths = (
{
closed = 1;
nodes = (
"432 59 LINE SMOOTH",
"399 65 OFFCURVE",
"400 80 OFFCURVE",
"422 230 CURVE SMOOTH",
"505 761 LINE",
"493 775 LINE",
"326 760 LINE",
"318 716 LINE",
"404 700 LINE",
"381 532 LINE",
"377 532 LINE",
"364 536 OFFCURVE",
"350 536 OFFCURVE",
"335 536 CURVE SMOOTH",
"203 536 OFFCURVE",
"36 384 OFFCURVE",
"36 164 CURVE SMOOTH",
"36 36 OFFCURVE",
"82 -13 OFFCURVE",
"156 -13 CURVE SMOOTH",
"217 -13 OFFCURVE",
"271 30 OFFCURVE",
"299 80 CURVE",
"307 80 LINE",
"306 73 OFFCURVE",
"304 59 OFFCURVE",
"304 45 CURVE SMOOTH",
"305 16 OFFCURVE",
"324 -9 OFFCURVE",
"376 -9 CURVE SMOOTH",
"410 -9 OFFCURVE",
"440 2 OFFCURVE",
"460 9 CURVE",
"472 52 LINE"
);
},
{
closed = 1;
nodes = (
"308 122 LINE",
"281 91 OFFCURVE",
"256 64 OFFCURVE",
"209 64 CURVE SMOOTH",
"161 64 OFFCURVE",
"134 101 OFFCURVE",
"134 200 CURVE SMOOTH",
"134 326 OFFCURVE",
"193 473 OFFCURVE",
"290 473 CURVE SMOOTH",
"326 473 OFFCURVE",
"346 464 OFFCURVE",
"361 451 CURVE"
);
}
);
width = 490;
},
{
layerId = "7E45FD12-17AB-4855-B847-BB8C6CE14238";
name = Bold;
width = 600;
}
);
unicode = 0064;
},
{
glyphname = dotlessi;
layers = (
{
anchors = (
{
name = ogonek;
position = "{540, 10}";
},
{
name = top;
position = "{234, 539}";
}
);
layerId = "D303553C-E248-431D-BB32-0A8D4BAA17B9";
name = Regular;
paths = (
{
closed = 1;
nodes = (
"87 64 LINE",
"13 44 LINE",
"2 0 LINE",
"249 0 LINE",
"259 43 LINE",
"183 62 LINE",
"253 512 LINE",
"241 526 LINE",
"75 511 LINE",
"69 465 LINE",
"148 452 LINE"
);
}
);
width = 287;
},
{
layerId = "7E45FD12-17AB-4855-B847-BB8C6CE14238";
name = Bold;
width = 600;
}
);
unicode = 0131;
},
{
glyphname = dotlessj;
layers = (
{
anchors = (
{
name = top;
position = "{223, 539}";
}
);
layerId = "D303553C-E248-431D-BB32-0A8D4BAA17B9";
name = Regular;
paths = (
{
closed = 1;
nodes = (
"-60 -234 LINE",
"3 -204 OFFCURVE",
"133 -119 OFFCURVE",
"160 52 CURVE SMOOTH",
"233 513 LINE",
"220 527 LINE",
"54 512 LINE SMOOTH",
"48 466 LINE",
"128 453 LINE",
"66 60 LINE SMOOTH",
"51 -42 OFFCURVE",
"0 -120 OFFCURVE",
"-90 -186 CURVE"
);
}
);
width = 273;
},
{
layerId = "7E45FD12-17AB-4855-B847-BB8C6CE14238";
name = Bold;
width = 600;
}
);
unicode = 0237;
},
{
glyphname = e;
layers = (
{
anchors = (
{
name = top;
position = "{304, 539}";
},
{
name = bottom;
position = "{216, 0}";
},
{
name = ogonek;
position = "{251, 10}";
}
);
layerId = "D303553C-E248-431D-BB32-0A8D4BAA17B9";
name = Regular;
paths = (
{
closed = 1;
nodes = (
"128 310 LINE",
"154 436 OFFCURVE",
"206 483 OFFCURVE",
"248 483 CURVE SMOOTH",
"297 483 OFFCURVE",
"305 435 OFFCURVE",
"306 395 CURVE SMOOTH",
"306 366 OFFCURVE",
"304 345 OFFCURVE",
"293 323 CURVE"
);
},
{
closed = 1;
nodes = (
"23 41 OFFCURVE",
"90 -18 OFFCURVE",
"185 -18 CURVE SMOOTH",
"268 -18 OFFCURVE",
"345 38 OFFCURVE",
"372 80 CURVE",
"356 107 LINE",
"342 92 OFFCURVE",
"274 62 OFFCURVE",
"242 62 CURVE SMOOTH",
"173 62 OFFCURVE",
"119 106 OFFCURVE",
"118 196 CURVE SMOOTH",
"118 211 OFFCURVE",
"119 249 OFFCURVE",
"122 266 CURVE",
"369 277 LINE",
"387 310 OFFCURVE",
"399 348 OFFCURVE",
"398 402 CURVE SMOOTH",
"396 488 OFFCURVE",
"364 539 OFFCURVE",
"284 539 CURVE SMOOTH",
"131 539 OFFCURVE",
"17 368 OFFCURVE",
"21 175 CURVE SMOOTH"
);
}
);
width = 412;
},
{
layerId = "7E45FD12-17AB-4855-B847-BB8C6CE14238";
name = Bold;
width = 600;
}
);
unicode = 0065;
},
{
glyphname = eth;
layers = (
{
layerId = "D303553C-E248-431D-BB32-0A8D4BAA17B9";
name = Regular;
paths = (
{
closed = 1;
nodes = (
"576 458 OFFCURVE",
"540 586 OFFCURVE",
"494 670 CURVE",
"546 680 LINE",
"560 727 LINE",
"472 708 LINE",
"441 750 OFFCURVE",
"412 776 OFFCURVE",
"397 789 CURVE",
"330 789 LINE",
"350 765 OFFCURVE",
"375 730 OFFCURVE",
"394 690 CURVE",
"295 670 LINE",
"281 623 LINE",
"409 648 LINE",
"425 605 OFFCURVE",
"449 532 OFFCURVE",
"455 489 CURVE",
"451 489 LINE",
"441 534 OFFCURVE",
"393 544 OFFCURVE",
"370 544 CURVE SMOOTH",
"249 544 OFFCURVE",
"124 452 OFFCURVE",
"96 273 CURVE SMOOTH",
"72 126 OFFCURVE",
"118 -16 OFFCURVE",
"275 -16 CURVE SMOOTH",
"398 -16 OFFCURVE",
"518 94 OFFCURVE",
"548 282 CURVE SMOOTH"
);
},
{
closed = 1;
nodes = (
"223 432 OFFCURVE",
"271 490 OFFCURVE",
"355 488 CURVE SMOOTH",
"419 486 OFFCURVE",
"468 399 OFFCURVE",
"445 257 CURVE SMOOTH",
"425 127 OFFCURVE",
"385 43 OFFCURVE",
"297 43 CURVE SMOOTH",
"219 43 OFFCURVE",
"178 137 OFFCURVE",
"202 302 CURVE"
);
}
);
width = 578;
},
{
layerId = "7E45FD12-17AB-4855-B847-BB8C6CE14238";
name = Bold;
width = 600;
}
);
unicode = 00F0;
},
{
glyphname = f;
layers = (
{
layerId = "D303553C-E248-431D-BB32-0A8D4BAA17B9";
name = Regular;
paths = (
{
closed = 1;
nodes = (
"485 758 OFFCURVE",
"446 779 OFFCURVE",
"384 779 CURVE SMOOTH",
"289 779 OFFCURVE",
"184 668 OFFCURVE",
"158 538 CURVE",
"86 516 LINE",
"76 475 LINE",
"148 475 LINE",
"84 66 LINE",
"9 46 LINE",
"-1 0 LINE",
"298 0 LINE",
"309 48 LINE",
"183 66 LINE",
"248 475 LINE",
"354 475 LINE",
"369 529 LINE",
"256 529 LINE",
"264 579 LINE SMOOTH",
"273 635 OFFCURVE",
"290 702 OFFCURVE",
"340 702 CURVE SMOOTH",
"378 702 OFFCURVE",
"415 670 OFFCURVE",
"423 648 CURVE",
"469 660 OFFCURVE",
"485 688 OFFCURVE",
"485 710 CURVE SMOOTH"
);
}
);
width = 341;
},
{
layerId = "7E45FD12-17AB-4855-B847-BB8C6CE14238";
name = Bold;
width = 600;
}
);
unicode = 0066;
},
{
glyphname = g;
layers = (
{
anchors = (
{
name = top;
position = "{326, 539}";
}
);
layerId = "D303553C-E248-431D-BB32-0A8D4BAA17B9";
name = Regular;
paths = (
{
closed = 1;
nodes = (
"178 426 OFFCURVE",
"224 498 OFFCURVE",
"284 498 CURVE SMOOTH",
"318 498 OFFCURVE",
"340 462 OFFCURVE",
"340 400 CURVE SMOOTH",
"340 297 OFFCURVE",
"297 230 OFFCURVE",
"243 230 CURVE SMOOTH",
"207 230 OFFCURVE",
"178 273 OFFCURVE",
"178 334 CURVE SMOOTH"
);
},
{
closed = 1;
nodes = (
"238 91 LINE SMOOTH",
"167 91 OFFCURVE",
"138 93 OFFCURVE",
"138 120 CURVE SMOOTH",
"138 152 OFFCURVE",
"163 174 OFFCURVE",
"178 189 CURVE",
"184 187 OFFCURVE",
"201 183 OFFCURVE",
"220 183 CURVE SMOOTH",
"310 183 OFFCURVE",
"430 272 OFFCURVE",
"430 382 CURVE SMOOTH",
"430 413 OFFCURVE",
"426 430 OFFCURVE",
"421 447 CURVE",
"422 457 LINE",
"494 433 LINE",
"504 433 LINE",
"537 500 LINE",
"527 514 LINE",
"527 514 OFFCURVE",
"407 505 OFFCURVE",
"399 505 CURVE",
"379 527 OFFCURVE",
"349 543 OFFCURVE",
"304 543 CURVE SMOOTH",
"201 543 OFFCURVE",
"78 445 OFFCURVE",
"78 333 CURVE SMOOTH",
"78 268 OFFCURVE",
"125 211 OFFCURVE",
"155 203 CURVE",
"154 198 LINE",
"106 180 OFFCURVE",
"35 124 OFFCURVE",
"35 88 CURVE SMOOTH",
"36 52 OFFCURVE",
"47 34 OFFCURVE",
"82 16 CURVE",
"82 11 LINE",
"39 -8 OFFCURVE",
"-36 -52 OFFCURVE",
"-35 -122 CURVE SMOOTH",
"-34 -202 OFFCURVE",
"54 -234 OFFCURVE",
"143 -234 CURVE SMOOTH",
"265 -234 OFFCURVE",
"440 -138 OFFCURVE",
"440 0 CURVE SMOOTH",
"440 67 OFFCURVE",
"379 91 OFFCURVE",
"291 91 CURVE SMOOTH"
);
},
{
closed = 1;
nodes = (
"205 2 LINE SMOOTH",
"297 2 OFFCURVE",
"332 -12 OFFCURVE",
"332 -46 CURVE SMOOTH",
"332 -123 OFFCURVE",
"268 -169 OFFCURVE",
"181 -169 CURVE SMOOTH",
"118 -169 OFFCURVE",
"79 -148 OFFCURVE",
"78 -90 CURVE SMOOTH",
"77 -18 OFFCURVE",
"121 2 OFFCURVE",
"121 2 CURVE"
);
}
);
width = 491;
},
{
layerId = "7E45FD12-17AB-4855-B847-BB8C6CE14238";
name = Bold;
width = 600;
}
);
unicode = 0067;
},
{
glyphname = gcommaaccent;
layers = (
{
layerId = "D303553C-E248-431D-BB32-0A8D4BAA17B9";
name = Regular;
paths = (
{
closed = 1;
nodes = (
"410 776 LINE",
"318 753 OFFCURVE",
"291 691 OFFCURVE",
"291 659 CURVE",
"291 608 OFFCURVE",
"318 596 OFFCURVE",
"342 596 CURVE SMOOTH",
"359 596 OFFCURVE",
"390 614 OFFCURVE",
"390 642 CURVE SMOOTH",
"390 650 OFFCURVE",
"389 653 OFFCURVE",
"387 660 CURVE",
"383 659 OFFCURVE",
"381 658 OFFCURVE",
"377 658 CURVE SMOOTH",
"353 658 OFFCURVE",
"343 672 OFFCURVE",
"343 691 CURVE SMOOTH",
"343 712 OFFCURVE",
"369 741 OFFCURVE",
"414 753 CURVE"
);
},
{
closed = 1;
nodes = (
"178 426 OFFCURVE",
"224 498 OFFCURVE",
"284 498 CURVE SMOOTH",
"318 498 OFFCURVE",
"340 462 OFFCURVE",
"340 400 CURVE SMOOTH",
"340 297 OFFCURVE",
"297 230 OFFCURVE",
"243 230 CURVE SMOOTH",
"207 230 OFFCURVE",
"178 273 OFFCURVE",
"178 334 CURVE SMOOTH"
);
},
{
closed = 1;
nodes = (
"238 91 LINE SMOOTH",
"167 91 OFFCURVE",
"138 93 OFFCURVE",
"138 120 CURVE SMOOTH",
"138 152 OFFCURVE",
"163 174 OFFCURVE",
"178 189 CURVE",
"184 187 OFFCURVE",
"201 183 OFFCURVE",
"220 183 CURVE SMOOTH",
"310 183 OFFCURVE",
"430 272 OFFCURVE",
"430 382 CURVE SMOOTH",
"430 413 OFFCURVE",
"426 430 OFFCURVE",
"421 447 CURVE",
"422 457 LINE",
"494 433 LINE",
"504 433 LINE",
"537 500 LINE",
"527 514 LINE",
"527 514 OFFCURVE",
"407 505 OFFCURVE",
"399 505 CURVE",
"379 527 OFFCURVE",
"349 543 OFFCURVE",
"304 543 CURVE SMOOTH",
"201 543 OFFCURVE",
"78 445 OFFCURVE",
"78 333 CURVE SMOOTH",
"78 268 OFFCURVE",
"125 211 OFFCURVE",
"155 203 CURVE",
"154 198 LINE",
"106 180 OFFCURVE",
"35 124 OFFCURVE",
"35 88 CURVE SMOOTH",
"36 52 OFFCURVE",
"47 34 OFFCURVE",
"82 16 CURVE",
"82 11 LINE",
"39 -8 OFFCURVE",
"-36 -52 OFFCURVE",
"-35 -122 CURVE SMOOTH",
"-34 -202 OFFCURVE",
"54 -234 OFFCURVE",
"143 -234 CURVE SMOOTH",
"265 -234 OFFCURVE",
"440 -138 OFFCURVE",
"440 0 CURVE SMOOTH",
"440 67 OFFCURVE",
"379 91 OFFCURVE",
"291 91 CURVE SMOOTH"
);
},
{
closed = 1;
nodes = (
"205 2 LINE SMOOTH",
"297 2 OFFCURVE",
"332 -12 OFFCURVE",
"332 -46 CURVE SMOOTH",
"332 -123 OFFCURVE",
"268 -169 OFFCURVE",
"181 -169 CURVE SMOOTH",
"118 -169 OFFCURVE",
"79 -148 OFFCURVE",
"78 -90 CURVE SMOOTH",
"77 -18 OFFCURVE",
"121 2 OFFCURVE",
"121 2 CURVE"
);
}
);
width = 491;
},
{
components = (
{
name = g;
transform = "{1, 0, 0, 1, 0, 0}";
},
{
name = commaaccent;
transform = "{1, 0, 0, 1, 0, 0}";
}
);
layerId = "7E45FD12-17AB-4855-B847-BB8C6CE14238";
name = Bold;
width = 600;
}
);
leftMetricsKey = g;
rightMetricsKey = g;
unicode = 0123;
},
{
glyphname = germandbls;
layers = (
{
layerId = "D303553C-E248-431D-BB32-0A8D4BAA17B9";
name = Regular;
paths = (
{
closed = 1;
nodes = (
"395 511 OFFCURVE",
"539 539 OFFCURVE",
"539 655 CURVE SMOOTH",
"539 711 OFFCURVE",
"506 779 OFFCURVE",
"401 779 CURVE SMOOTH",
"305 779 OFFCURVE",
"189 668 OFFCURVE",
"161 538 CURVE",
"89 516 LINE",
"79 475 LINE",
"151 475 LINE",
"87 66 LINE",
"12 46 LINE",
"2 0 LINE",
"174 0 LINE",
"264 579 LINE SMOOTH",
"279 677 OFFCURVE",
"311 713 OFFCURVE",
"372 713 CURVE SMOOTH",
"424 713 OFFCURVE",
"441 688 OFFCURVE",
"441 645 CURVE SMOOTH",
"441 559 OFFCURVE",
"302 472 OFFCURVE",
"302 372 CURVE SMOOTH",
"302 229 OFFCURVE",
"486 190 OFFCURVE",
"486 110 CURVE SMOOTH",
"486 58 OFFCURVE",
"439 33 OFFCURVE",
"402 33 CURVE SMOOTH",
"366 33 OFFCURVE",
"337 64 OFFCURVE",
"316 150 CURVE",
"268 145 OFFCURVE",
"242 112 OFFCURVE",
"242 74 CURVE SMOOTH",
"242 25 OFFCURVE",
"290 -21 OFFCURVE",
"378 -21 CURVE SMOOTH",
"457 -21 OFFCURVE",
"574 43 OFFCURVE",
"574 148 CURVE SMOOTH",
"574 266 OFFCURVE",
"395 299 OFFCURVE",
"395 412 CURVE SMOOTH"
);
}
);
width = 604;
},
{
layerId = "7E45FD12-17AB-4855-B847-BB8C6CE14238";
name = Bold;
width = 600;
}
);
unicode = 00DF;
},
{
glyphname = h;
layers = (
{
anchors = (
{
name = center;
position = "{274, 270}";
},
{
name = top;
position = "{434, 539}";
}
);
layerId = "D303553C-E248-431D-BB32-0A8D4BAA17B9";
name = Regular;
paths = (
{
closed = 1;
nodes = (
"500 371 LINE SMOOTH",
"519 491 OFFCURVE",
"487 541 OFFCURVE",
"416 541 CURVE SMOOTH",
"343 541 OFFCURVE",
"278 482 OFFCURVE",
"244 437 CURVE",
"237 437 LINE",
"254 512 LINE",
"292 753 LINE",
"279 767 LINE",
"113 752 LINE",
"107 706 LINE",
"188 692 LINE",
"88 65 LINE",
"15 45 LINE",
"2 0 LINE",
"247 0 LINE",
"258 43 LINE",
"184 62 LINE",
"238 401 LINE",
"261 423 OFFCURVE",
"294 451 OFFCURVE",
"351 451 CURVE SMOOTH",
"401 451 OFFCURVE",
"412 401 OFFCURVE",
"399 318 CURVE SMOOTH",
"348 0 LINE",
"512 0 LINE",
"525 44 LINE",
"450 61 LINE"
);
}
);
width = 547;
},
{
layerId = "7E45FD12-17AB-4855-B847-BB8C6CE14238";
name = Bold;
width = 600;
}
);
unicode = 0068;
},
{
glyphname = j;
layers = (
{
components = (
{
name = dotlessj;
transform = "{1, 0, 0, 1, 0, 0}";
}
);
layerId = "D303553C-E248-431D-BB32-0A8D4BAA17B9";
name = Regular;
paths = (
{
closed = 1;
nodes = (
"177 794 OFFCURVE",
"141 762 OFFCURVE",
"141 723 CURVE SMOOTH",
"141 681 OFFCURVE",
"175 644 OFFCURVE",
"215 644 CURVE SMOOTH",
"257 644 OFFCURVE",
"293 680 OFFCURVE",
"293 721 CURVE SMOOTH",
"293 761 OFFCURVE",
"257 794 OFFCURVE",
"215 794 CURVE SMOOTH"
);
}
);
width = 273;
},
{
layerId = "7E45FD12-17AB-4855-B847-BB8C6CE14238";
name = Bold;
width = 600;
}
);
leftMetricsKey = dotlessj;
rightMetricsKey = dotlessj;
unicode = 006A;
},
{
glyphname = k;
layers = (
{
anchors = (
{
name = bottom;
position = "{268, 0}";
}
);
layerId = "D303553C-E248-431D-BB32-0A8D4BAA17B9";
name = Regular;
paths = (
{
closed = 1;
nodes = (
"229 263 LINE",
"266 174 LINE SMOOTH",
"323 39 OFFCURVE",
"351 -12 OFFCURVE",
"423 -12 CURVE SMOOTH",
"448 -12 OFFCURVE",
"492 -4 OFFCURVE",
"504 0 CURVE",
"517 41 LINE",
"496 44 LINE SMOOTH",
"420 54 OFFCURVE",
"399 119 OFFCURVE",
"347 232 CURVE SMOOTH",
"317 295 LINE",
"462 463 LINE",
"542 483 LINE",
"555 529 LINE",
"325 529 LINE",
"316 486 LINE",
"390 466 LINE",
"231 273 LINE"
);
},
{
closed = 1;
nodes = (
"87 65 LINE",
"12 45 LINE",
"2 0 LINE",
"249 0 LINE",
"259 44 LINE",
"183 63 LINE",
"292 752 LINE",
"278 766 LINE",
"114 751 LINE",
"107 705 LINE",
"187 692 LINE"
);
}
);
width = 536;
},
{
layerId = "7E45FD12-17AB-4855-B847-BB8C6CE14238";
name = Bold;
width = 600;
}
);
unicode = 006B;
},
{
glyphname = l;
layers = (
{
anchors = (
{
name = bottom;
position = "{139, 0}";
},
{
name = topright;
position = "{317, 609}";
},
{
name = top;
position = "{262, 765}";
}
);
layerId = "D303553C-E248-431D-BB32-0A8D4BAA17B9";
name = Regular;
paths = (
{
closed = 1;
nodes = (
"87 65 LINE",
"13 45 LINE",
"2 0 LINE",
"249 0 LINE",
"260 44 LINE",
"183 63 LINE",
"291 752 LINE",
"278 766 LINE",
"114 751 LINE",
"107 705 LINE",
"187 692 LINE"
);
}
);
width = 277;
},
{
layerId = "7E45FD12-17AB-4855-B847-BB8C6CE14238";
name = Bold;
width = 600;
}
);
unicode = 006C;
},
{
glyphname = m;
layers = (
{
layerId = "D303553C-E248-431D-BB32-0A8D4BAA17B9";
name = Regular;
paths = (
{
closed = 1;
nodes = (
"760 371 LINE SMOOTH",
"777 484 OFFCURVE",
"754 541 OFFCURVE",
"679 541 CURVE SMOOTH",
"603 541 OFFCURVE",
"545 487 OFFCURVE",
"511 442 CURVE",
"504 442 LINE",
"507 512 OFFCURVE",
"469 541 OFFCURVE",
"418 541 CURVE SMOOTH",
"332 541 OFFCURVE",
"264 465 OFFCURVE",
"246 437 CURVE",
"239 437 LINE",
"258 513 LINE",
"245 527 LINE",
"75 512 LINE",
"67 462 LINE",
"146 449 LINE",
"88 66 LINE",
"15 46 LINE",
"2 0 LINE",
"250 0 LINE",
"261 44 LINE",
"187 63 LINE",
"240 401 LINE",
"263 423 OFFCURVE",
"303 452 OFFCURVE",
"354 452 CURVE SMOOTH",
"404 452 OFFCURVE",
"407 395 OFFCURVE",
"395 318 CURVE SMOOTH",
"345 9 LINE",
"352 0 LINE",
"511 0 LINE",
"524 45 LINE",
"449 62 LINE",
"473 213 LINE",
"488 308 LINE SMOOTH",
"492 332 OFFCURVE",
"500 386 OFFCURVE",
"502 401 CURVE",
"524 423 OFFCURVE",
"561 452 OFFCURVE",
"618 452 CURVE SMOOTH",
"660 452 OFFCURVE",
"672 403 OFFCURVE",
"659 318 CURVE SMOOTH",
"611 8 LINE",
"618 0 LINE",
"777 0 LINE",
"790 44 LINE",
"715 61 LINE"
);
}
);
width = 810;
},
{
layerId = "7E45FD12-17AB-4855-B847-BB8C6CE14238";
name = Bold;
width = 600;
}
);
unicode = 006D;
},
{
glyphname = n;
layers = (
{
anchors = (
{
name = bottom;
position = "{272, 0}";
},
{
name = top;
position = "{342, 539}";
}
);
layerId = "D303553C-E248-431D-BB32-0A8D4BAA17B9";
name = Regular;
paths = (
{
closed = 1;
nodes = (
"544 156 LINE",
"544 600 LINE"
);
},
{
closed = 1;
nodes = (
"495 371 LINE SMOOTH",
"515 505 OFFCURVE",
"480 541 OFFCURVE",
"416 541 CURVE SMOOTH",
"350 541 OFFCURVE",
"276 482 OFFCURVE",
"242 437 CURVE",
"235 437 LINE",
"256 513 LINE",
"243 527 LINE",
"75 512 LINE",
"67 462 LINE",
"146 449 LINE",
"88 65 LINE",
"15 45 LINE",
"2 0 LINE",
"246 0 LINE",
"257 45 LINE",
"183 64 LINE",
"237 402 LINE",
"264 428 OFFCURVE",
"298 450 OFFCURVE",
"348 450 CURVE SMOOTH",
"392 450 OFFCURVE",
"408 425 OFFCURVE",
"391 318 CURVE SMOOTH",
"341 9 LINE",
"348 2 LINE",
"509 2 LINE",
"522 46 LINE",
"447 63 LINE"
);
}
);
width = 544;
},
{
layerId = "7E45FD12-17AB-4855-B847-BB8C6CE14238";
name = Bold;
width = 600;
}
);
unicode = 006E;
},
{
glyphname = o;
layers = (
{
anchors = (
{
name = top;
position = "{311, 539}";
}
);
layerId = "D303553C-E248-431D-BB32-0A8D4BAA17B9";
name = Regular;
paths = (
{
closed = 1;
nodes = (
"373 183 OFFCURVE",
"313 29 OFFCURVE",
"224 29 CURVE SMOOTH",
"170 29 OFFCURVE",
"144 113 OFFCURVE",
"144 195 CURVE SMOOTH",
"144 346 OFFCURVE",
"190 494 OFFCURVE",
"290 494 CURVE SMOOTH",
"343 494 OFFCURVE",
"373 432 OFFCURVE",
"373 333 CURVE SMOOTH"
);
},
{
closed = 1;
nodes = (
"361 -16 OFFCURVE",
"475 157 OFFCURVE",
"475 324 CURVE SMOOTH",
"475 457 OFFCURVE",
"427 541 OFFCURVE",
"316 541 CURVE SMOOTH",
"152 541 OFFCURVE",
"33 369 OFFCURVE",
"33 199 CURVE SMOOTH",
"33 78 OFFCURVE",
"92 -16 OFFCURVE",
"204 -16 CURVE SMOOTH"
);
}
);
width = 504;
},
{
layerId = "7E45FD12-17AB-4855-B847-BB8C6CE14238";
name = Bold;
width = 600;
}
);
unicode = 006F;
},
{
glyphname = ordfeminine;
layers = (
{
layerId = "D303553C-E248-431D-BB32-0A8D4BAA17B9";
name = Regular;
paths = (
{
closed = 1;
nodes = (
"54 209 LINE",
"44 174 LINE",
"249 174 LINE",
"259 209 LINE"
);
},
{
closed = 1;
nodes = (
"187 298 LINE",
"179 288 OFFCURVE",
"161 272 OFFCURVE",
"141 272 CURVE SMOOTH",
"124 272 OFFCURVE",
"115 281 OFFCURVE",
"118 301 CURVE SMOOTH",
"122 324 OFFCURVE",
"133 340 OFFCURVE",
"195 349 CURVE"
);
},
{
closed = 1;
nodes = (
"236 247 OFFCURVE",
"243 250 OFFCURVE",
"255 252 CURVE",
"262 273 LINE",
"250 275 LINE SMOOTH",
"228 278 OFFCURVE",
"225 285 OFFCURVE",
"228 307 CURVE SMOOTH",
"242 395 LINE SMOOTH",
"250 446 OFFCURVE",
"237 470 OFFCURVE",
"194 470 CURVE SMOOTH",
"160 470 OFFCURVE",
"105 448 OFFCURVE",
"105 419 CURVE SMOOTH",
"105 400 OFFCURVE",
"122 399 OFFCURVE",
"135 399 CURVE",
"143 429 OFFCURVE",
"147 446 OFFCURVE",
"170 446 CURVE SMOOTH",
"202 446 OFFCURVE",
"205 415 OFFCURVE",
"200 382 CURVE",
"197 366 LINE",
"108 350 OFFCURVE",
"74 323 OFFCURVE",
"74 282 CURVE SMOOTH",
"74 260 OFFCURVE",
"89 246 OFFCURVE",
"114 246 CURVE SMOOTH",
"146 246 OFFCURVE",
"176 266 OFFCURVE",
"186 283 CURVE",
"189 283 LINE",
"189 280 LINE",
"186 265 OFFCURVE",
"194 247 OFFCURVE",
"222 247 CURVE SMOOTH"
);
}
);
width = 245;
},
{
layerId = "7E45FD12-17AB-4855-B847-BB8C6CE14238";
name = Bold;
width = 600;
}
);
unicode = 00AA;
},
{
glyphname = ordmasculine;
layers = (
{
layerId = "D303553C-E248-431D-BB32-0A8D4BAA17B9";
name = Regular;
paths = (
{
closed = 1;
nodes = (
"54 209 LINE",
"44 174 LINE",
"249 174 LINE",
"259 209 LINE"
);
},
{
closed = 1;
nodes = (
"133 417 OFFCURVE",
"154 443 OFFCURVE",
"184 443 CURVE SMOOTH",
"219 443 OFFCURVE",
"233 403 OFFCURVE",
"225 348 CURVE SMOOTH",
"216 296 OFFCURVE",
"196 267 OFFCURVE",
"165 267 CURVE SMOOTH",
"133 267 OFFCURVE",
"115 305 OFFCURVE",
"124 364 CURVE SMOOTH"
);
},
{
closed = 1;
nodes = (
"280 423 OFFCURVE",
"257 468 OFFCURVE",
"197 468 CURVE SMOOTH",
"144 468 OFFCURVE",
"90 428 OFFCURVE",
"78 353 CURVE SMOOTH",
"68 290 OFFCURVE",
"91 243 OFFCURVE",
"155 243 CURVE SMOOTH",
"211 243 OFFCURVE",
"259 289 OFFCURVE",
"270 356 CURVE SMOOTH"
);
}
);
width = 245;
},
{
layerId = "7E45FD12-17AB-4855-B847-BB8C6CE14238";
name = Bold;
width = 600;
}
);
unicode = 00BA;
},
{
glyphname = oslash;
layers = (
{
anchors = (
{
name = top;
position = "{252, 539}";
}
);
components = (
{
name = o;
transform = "{1, 0, 0, 1, 0, 0}";
}
);
layerId = "D303553C-E248-431D-BB32-0A8D4BAA17B9";
name = Regular;
paths = (
{
closed = 1;
nodes = (
"356 748 LINE",
"293 530 LINE",
"294 515 LINE",
"158 44 LINE",
"147 23 LINE",
"76 -220 LINE",
"154 -215 LINE",
"217 1 LINE",
"217 17 LINE",
"357 497 LINE",
"367 515 LINE",
"436 753 LINE"
);
}
);
width = 504;
},
{
anchors = (
{
name = top;
position = "{300, 500}";
}
);
components = (
{
name = o;
transform = "{1, 0, 0, 1, 0, 0}";
},
{
name = slash;
transform = "{1, 0, 0, 1, 0, 0}";
}
);
layerId = "7E45FD12-17AB-4855-B847-BB8C6CE14238";
name = Bold;
width = 600;
}
);
leftMetricsKey = o;
rightMetricsKey = o;
unicode = 00F8;
},
{
glyphname = p;
layers = (
{
layerId = "D303553C-E248-431D-BB32-0A8D4BAA17B9";
name = Regular;
paths = (
{
closed = 1;
nodes = (
"48 -158 LINE",
"-25 -178 LINE",
"-37 -223 LINE",
"224 -221 LINE",
"235 -178 LINE",
"141 -159 LINE",
"225 400 LINE",
"265 436 OFFCURVE",
"289 452 OFFCURVE",
"338 452 CURVE SMOOTH",
"379 452 OFFCURVE",
"418 394 OFFCURVE",
"418 294 CURVE SMOOTH",
"418 66 OFFCURVE",
"308 54 OFFCURVE",
"246 54 CURVE SMOOTH",
"234 54 OFFCURVE",
"205 59 OFFCURVE",
"193 65 CURVE",
"180 -4 LINE",
"191 -9 OFFCURVE",
"220 -11 OFFCURVE",
"236 -11 CURVE SMOOTH",
"380 -11 OFFCURVE",
"523 111 OFFCURVE",
"523 322 CURVE SMOOTH",
"523 444 OFFCURVE",
"460 539 OFFCURVE",
"380 539 CURVE SMOOTH",
"324 539 OFFCURVE",
"256 484 OFFCURVE",
"231 436 CURVE",
"224 436 LINE",
"243 513 LINE",
"231 527 LINE",
"63 510 LINE",
"56 464 LINE",
"136 451 LINE"
);
}
);
width = 559;
},
{
layerId = "7E45FD12-17AB-4855-B847-BB8C6CE14238";
name = Bold;
width = 600;
}
);
unicode = 0070;
},
{
glyphname = q;
layers = (
{
layerId = "D303553C-E248-431D-BB32-0A8D4BAA17B9";
name = Regular;
paths = (
{
closed = 1;
nodes = (
"273 -156 LINE",
"180 -176 LINE",
"168 -221 LINE",
"438 -221 LINE",
"449 -178 LINE",
"367 -159 LINE",
"469 528 LINE",
"459 532 LINE",
"399 523 LINE",
"378 533 OFFCURVE",
"358 535 OFFCURVE",
"336 535 CURVE SMOOTH",
"188 535 OFFCURVE",
"34 362 OFFCURVE",
"34 160 CURVE SMOOTH",
"34 61 OFFCURVE",
"75 -13 OFFCURVE",
"152 -13 CURVE SMOOTH",
"229 -13 OFFCURVE",
"267 20 OFFCURVE",
"296 58 CURVE",
"291 89 LINE",
"272 73 OFFCURVE",
"239 62 OFFCURVE",
"206 62 CURVE SMOOTH",
"159 62 OFFCURVE",
"136 126 OFFCURVE",
"136 200 CURVE SMOOTH",
"136 314 OFFCURVE",
"188 472 OFFCURVE",
"293 472 CURVE SMOOTH",
"321 472 OFFCURVE",
"340 464 OFFCURVE",
"362 451 CURVE"
);
}
);
width = 507;
},
{
layerId = "7E45FD12-17AB-4855-B847-BB8C6CE14238";
name = Bold;
width = 600;
}
);
unicode = 0071;
},
{
glyphname = r;
layers = (
{
anchors = (
{
name = bottom;
position = "{199, 0}";
},
{
name = top;
position = "{289, 539}";
}
);
layerId = "D303553C-E248-431D-BB32-0A8D4BAA17B9";
name = Regular;
paths = (
{
closed = 1;
nodes = (
"89 65 LINE",
"17 45 LINE",
"4 0 LINE",
"276 0 LINE",
"287 45 LINE",
"182 64 LINE",
"230 344 LINE",
"246 374 OFFCURVE",
"283 422 OFFCURVE",
"311 422 CURVE SMOOTH",
"335 422 OFFCURVE",
"346 422 OFFCURVE",
"364 412 CURVE",
"381 421 OFFCURVE",
"397 458 OFFCURVE",
"397 490 CURVE SMOOTH",
"397 518 OFFCURVE",
"376 540 OFFCURVE",
"350 540 CURVE SMOOTH",
"295 540 OFFCURVE",
"258 464 OFFCURVE",
"236 398 CURVE",
"227 398 LINE",
"255 513 LINE",
"242 527 LINE",
"76 512 LINE",
"69 462 LINE",
"149 449 LINE"
);
}
);
width = 397;
},
{
layerId = "7E45FD12-17AB-4855-B847-BB8C6CE14238";
name = Bold;
width = 600;
}
);
unicode = 0072;
},
{
glyphname = s;
layers = (
{
anchors = (
{
name = bottom;
position = "{235, 0}";
},
{
name = top;
position = "{306, 539}";
}
);
layerId = "D303553C-E248-431D-BB32-0A8D4BAA17B9";
name = Regular;
paths = (
{
closed = 1;
nodes = (
"414 520 OFFCURVE",
"366 546 OFFCURVE",
"305 546 CURVE SMOOTH",
"197 546 OFFCURVE",
"112 460 OFFCURVE",
"112 372 CURVE SMOOTH",
"112 229 OFFCURVE",
"296 190 OFFCURVE",
"296 110 CURVE SMOOTH",
"296 58 OFFCURVE",
"249 33 OFFCURVE",
"212 33 CURVE SMOOTH",
"176 33 OFFCURVE",
"147 64 OFFCURVE",
"126 150 CURVE",
"78 145 OFFCURVE",
"52 112 OFFCURVE",
"52 74 CURVE SMOOTH",
"52 25 OFFCURVE",
"99 -21 OFFCURVE",
"188 -21 CURVE SMOOTH",
"267 -21 OFFCURVE",
"384 43 OFFCURVE",
"384 148 CURVE SMOOTH",
"384 266 OFFCURVE",
"200 309 OFFCURVE",
"200 422 CURVE SMOOTH",
"200 476 OFFCURVE",
"235 500 OFFCURVE",
"274 500 CURVE SMOOTH",
"302 500 OFFCURVE",
"327 477 OFFCURVE",
"334 386 CURVE",
"336 372 LINE",
"385 377 OFFCURVE",
"414 408 OFFCURVE",
"414 462 CURVE SMOOTH"
);
}
);
width = 452;
},
{
layerId = "7E45FD12-17AB-4855-B847-BB8C6CE14238";
name = Bold;
width = 600;
}
);
unicode = 0073;
},
{
glyphname = t;
layers = (
{
anchors = (
{
name = bottom;
position = "{179, 0}";
},
{
name = center;
position = "{179, 270}";
}
);
layerId = "D303553C-E248-431D-BB32-0A8D4BAA17B9";
name = Regular;
paths = (
{
closed = 1;
nodes = (
"204 654 LINE",
"164 601 OFFCURVE",
"118 542 OFFCURVE",
"57 499 CURVE",
"51 470 LINE",
"118 470 LINE",
"68 157 LINE SMOOTH",
"64 135 OFFCURVE",
"62 109 OFFCURVE",
"62 92 CURVE SMOOTH",
"62 21 OFFCURVE",
"96 -13 OFFCURVE",
"152 -13 CURVE SMOOTH",
"209 -13 OFFCURVE",
"268 25 OFFCURVE",
"301 62 CURVE",
"293 93 LINE",
"271 84 OFFCURVE",
"237 73 OFFCURVE",
"199 73 CURVE SMOOTH",
"169 73 OFFCURVE",
"161 110 OFFCURVE",
"161 141 CURVE SMOOTH",
"161 169 OFFCURVE",
"164 179 OFFCURVE",
"169 210 CURVE SMOOTH",
"210 470 LINE",
"340 470 LINE",
"352 528 LINE",
"222 528 LINE",
"243 654 LINE"
);
}
);
width = 358;
},
{
layerId = "7E45FD12-17AB-4855-B847-BB8C6CE14238";
name = Bold;
width = 600;
}
);
unicode = 0074;
},
{
glyphname = tcaron;
layers = (
{
components = (
{
name = t;
transform = "{1, 0, 0, 1, 0, 0}";
}
);
layerId = "D303553C-E248-431D-BB32-0A8D4BAA17B9";
name = Regular;
paths = (
{
closed = 1;
nodes = (
"391 454 LINE",
"556 496 OFFCURVE",
"604 606 OFFCURVE",
"604 663 CURVE SMOOTH",
"604 755 OFFCURVE",
"556 776 OFFCURVE",
"514 776 CURVE SMOOTH",
"483 776 OFFCURVE",
"428 745 OFFCURVE",
"428 695 CURVE SMOOTH",
"428 680 OFFCURVE",
"429 675 OFFCURVE",
"432 662 CURVE",
"439 664 OFFCURVE",
"444 666 OFFCURVE",
"450 666 CURVE SMOOTH",
"493 666 OFFCURVE",
"511 640 OFFCURVE",
"511 607 CURVE SMOOTH",
"511 568 OFFCURVE",
"465 517 OFFCURVE",
"384 496 CURVE"
);
}
);
width = 604;
},
{
components = (
{
name = t;
transform = "{1, 0, 0, 1, 0, 0}";
},
{
name = quoteright;
transform = "{1, 0, 0, 1, 0, 0}";
}
);
layerId = "7E45FD12-17AB-4855-B847-BB8C6CE14238";
name = Bold;
width = 600;
}
);
leftMetricsKey = t;
unicode = 0165;
},
{
glyphname = thorn;
layers = (
{
layerId = "D303553C-E248-431D-BB32-0A8D4BAA17B9";
name = Regular;
paths = (
{
closed = 1;
nodes = (
"229.833 436 LINE",
"230 437 LINE",
"223 437 LINE",
"240 512 LINE",
"273 753 LINE",
"260 767 LINE",
"94 752 LINE",
"88 706 LINE",
"169 692 LINE",
"48 -158 LINE",
"-25 -178 LINE",
"-37 -223 LINE",
"224 -223 LINE",
"235 -178 LINE",
"141 -159 LINE",
"225 400 LINE",
"265 436 OFFCURVE",
"289 452 OFFCURVE",
"338 452 CURVE SMOOTH",
"379 452 OFFCURVE",
"418 394 OFFCURVE",
"418 294 CURVE SMOOTH",
"418 66 OFFCURVE",
"308 54 OFFCURVE",
"246 54 CURVE SMOOTH",
"234 54 OFFCURVE",
"205 59 OFFCURVE",
"193 65 CURVE",
"180 -4 LINE",
"191 -9 OFFCURVE",
"220 -11 OFFCURVE",
"236 -11 CURVE SMOOTH",
"380 -11 OFFCURVE",
"523 111 OFFCURVE",
"523 322 CURVE SMOOTH",
"523 444 OFFCURVE",
"460 539 OFFCURVE",
"380 539 CURVE SMOOTH",
"324 539 OFFCURVE",
"256 484 OFFCURVE",
"231 436 CURVE"
);
}
);
width = 600;
},
{
layerId = "7E45FD12-17AB-4855-B847-BB8C6CE14238";
name = Bold;
width = 600;
}
);
unicode = 00FE;
},
{
glyphname = u;
layers = (
{
anchors = (
{
name = ogonek;
position = "{467, 10}";
},
{
name = top;
position = "{297, 539}";
}
);
layerId = "D303553C-E248-431D-BB32-0A8D4BAA17B9";
name = Regular;
paths = (
{
closed = 1;
nodes = (
"463 58 LINE SMOOTH",
"435 63 OFFCURVE",
"428 80 OFFCURVE",
"451 224 CURVE SMOOTH",
"497 512 LINE",
"485 526 LINE",
"312 511 LINE",
"306 466 LINE",
"387 452 LINE",
"337 121 LINE",
"317 101 OFFCURVE",
"284 71 OFFCURVE",
"228 71 CURVE SMOOTH",
"173 71 OFFCURVE",
"171 119 OFFCURVE",
"189 227 CURVE SMOOTH",
"237 512 LINE",
"225 526 LINE",
"54 511 LINE",
"48 466 LINE",
"127 452 LINE",
"83 160 LINE SMOOTH",
"61 19 OFFCURVE",
"111 -12 OFFCURVE",
"171 -12 CURVE SMOOTH",
"251 -12 OFFCURVE",
"313 47 OFFCURVE",
"330 79 CURVE",
"336 79 LINE",
"329 16 OFFCURVE",
"354 -9 OFFCURVE",
"407 -9 CURVE SMOOTH",
"440 -9 OFFCURVE",
"471 0 OFFCURVE",
"492 9 CURVE",
"503 51 LINE"
);
}
);
width = 525;
},
{
layerId = "7E45FD12-17AB-4855-B847-BB8C6CE14238";
name = Bold;
width = 600;
}
);
unicode = 0075;
},
{
glyphname = v;
layers = (
{
layerId = "D303553C-E248-431D-BB32-0A8D4BAA17B9";
name = Regular;
paths = (
{
closed = 1;
nodes = (
"123 -17 LINE",
"186 -6 LINE",
"407 463 LINE",
"467 484 LINE",
"479 529 LINE",
"278 529 LINE",
"268 486 LINE",
"342 466 LINE",
"197 130 LINE",
"155 464 LINE",
"229 487 LINE",
"240 529 LINE",
"11 529 LINE",
"0 486 LINE",
"58 467 LINE"
);
}
);
width = 479;
},
{
layerId = "7E45FD12-17AB-4855-B847-BB8C6CE14238";
name = Bold;
width = 600;
}
);
unicode = 0076;
},
{
glyphname = w;
layers = (
{
anchors = (
{
name = top;
position = "{413, 539}";
}
);
layerId = "D303553C-E248-431D-BB32-0A8D4BAA17B9";
name = Regular;
paths = (
{
closed = 1;
nodes = (
"355 490 LINE",
"206 137 LINE",
"201 219 LINE",
"171 464 LINE",
"244 484 LINE",
"255 529 LINE",
"41 529 LINE",
"30 486 LINE",
"89 467 LINE",
"135 -18 LINE",
"205 -7 LINE",
"362 365 LINE",
"410 -18 LINE",
"474 -7 LINE",
"678 464 LINE",
"736 484 LINE",
"748 529 LINE",
"551 529 LINE",
"541 486 LINE",
"614 467 LINE",
"475 130 LINE",
"472 210 LINE",
"436 501 LINE"
);
}
);
width = 748;
},
{
layerId = "7E45FD12-17AB-4855-B847-BB8C6CE14238";
name = Bold;
width = 600;
}
);
unicode = 0077;
},
{
glyphname = x;
layers = (
{
layerId = "D303553C-E248-431D-BB32-0A8D4BAA17B9";
name = Regular;
paths = (
{
closed = 1;
nodes = (
"472 63 LINE",
"368 281 LINE",
"525 463 LINE",
"585 485 LINE",
"598 528 LINE",
"409 528 LINE",
"398 485 LINE",
"461 465 LINE",
"348 324 LINE",
"280 467 LINE",
"351 486 LINE",
"363 528 LINE",
"133 528 LINE",
"122 485 LINE",
"180 467 LINE",
"273 263 LINE",
"99 63 LINE",
"42 42 LINE",
"30 0 LINE",
"240 0 LINE",
"252 43 LINE",
"175 64 LINE",
"296 213 LINE",
"365 63 LINE",
"291 42 LINE",
"279 0 LINE",
"518 0 LINE",
"529 42 LINE"
);
}
);
width = 598;
},
{
layerId = "7E45FD12-17AB-4855-B847-BB8C6CE14238";
name = Bold;
width = 600;
}
);
unicode = 0078;
},
{
glyphname = y;
layers = (
{
anchors = (
{
name = top;
position = "{294, 539}";
}
);
layerId = "D303553C-E248-431D-BB32-0A8D4BAA17B9";
name = Regular;
paths = (
{
closed = 1;
nodes = (
"219 136 LINE",
"168 463 LINE",
"243 487 LINE",
"254 529 LINE",
"21 529 LINE",
"11 486 LINE",
"68 467 LINE",
"145 -9 LINE",
"134 -30 LINE SMOOTH",
"92 -111 OFFCURVE",
"62 -118 OFFCURVE",
"32 -118 CURVE SMOOTH",
"0 -118 OFFCURVE",
"-25 -108 OFFCURVE",
"-54 -85 CURVE",
"-85 -109 OFFCURVE",
"-97 -137 OFFCURVE",
"-97 -162 CURVE SMOOTH",
"-97 -200 OFFCURVE",
"-74 -230 OFFCURVE",
"-18 -230 CURVE SMOOTH",
"65 -230 OFFCURVE",
"122 -183 OFFCURVE",
"200 -32 CURVE SMOOTH",
"459 465 LINE",
"517 484 LINE",
"529 529 LINE",
"327 529 LINE",
"315 486 LINE",
"389 466 LINE"
);
}
);
width = 529;
},
{
layerId = "7E45FD12-17AB-4855-B847-BB8C6CE14238";
name = Bold;
width = 600;
}
);
unicode = 0079;
},
{
glyphname = z;
layers = (
{
anchors = (
{
name = top;
position = "{298, 539}";
}
);
layerId = "D303553C-E248-431D-BB32-0A8D4BAA17B9";
name = Regular;
paths = (
{
closed = 1;
nodes = (
"97 384 LINE",
"137 376 LINE",
"190 478 LINE",
"363 478 LINE",
"35 48 LINE",
"30 0 LINE",
"380 0 LINE",
"428 147 LINE",
"390 152 LINE",
"320 53 LINE",
"137 53 LINE",
"470 488 LINE",
"476 529 LINE",
"126 529 LINE"
);
}
);
width = 476;
},
{
layerId = "7E45FD12-17AB-4855-B847-BB8C6CE14238";
name = Bold;
width = 600;
}
);
unicode = 007A;
},
{
glyphname = zero;
layers = (
{
layerId = "D303553C-E248-431D-BB32-0A8D4BAA17B9";
name = Regular;
paths = (
{
closed = 1;
nodes = (
"192 273 OFFCURVE",
"192 299 OFFCURVE",
"194 328 CURVE SMOOTH",
"196 357 OFFCURVE",
"199 386 OFFCURVE",
"204 416 CURVE SMOOTH",
"209 446 OFFCURVE",
"216 475 OFFCURVE",
"225 503 CURVE SMOOTH",
"234 531 OFFCURVE",
"246 556 OFFCURVE",
"261 578 CURVE SMOOTH",
"276 600 OFFCURVE",
"294 617 OFFCURVE",
"316 631 CURVE SMOOTH",
"338 644 OFFCURVE",
"363 651 OFFCURVE",
"393 651 CURVE SMOOTH",
"429 651 OFFCURVE",
"457 632 OFFCURVE",
"475 596 CURVE SMOOTH",
"493 560 OFFCURVE",
"502 509 OFFCURVE",
"502 444 CURVE SMOOTH",
"502 365 OFFCURVE",
"496 300 OFFCURVE",
"486 248 CURVE SMOOTH",
"475 196 OFFCURVE",
"461 155 OFFCURVE",
"443 125 CURVE SMOOTH",
"425 95 OFFCURVE",
"405 74 OFFCURVE",
"382 62 CURVE SMOOTH",
"358 50 OFFCURVE",
"334 44 OFFCURVE",
"309 44 CURVE SMOOTH",
"273 44 OFFCURVE",
"244 60 OFFCURVE",
"223 92 CURVE SMOOTH",
"202 124 OFFCURVE",
"192 177 OFFCURVE",
"192 249 CURVE SMOOTH"
);
},
{
closed = 1;
nodes = (
"600 467 OFFCURVE",
"595 507 OFFCURVE",
"586 543 CURVE SMOOTH",
"576 578 OFFCURVE",
"563 608 OFFCURVE",
"545 633 CURVE SMOOTH",
"527 657 OFFCURVE",
"506 676 OFFCURVE",
"482 690 CURVE",
"457 703 OFFCURVE",
"429 710 OFFCURVE",
"399 710 CURVE SMOOTH",
"361 710 OFFCURVE",
"324 699 OFFCURVE",
"288 678 CURVE SMOOTH",
"252 657 OFFCURVE",
"219 627 OFFCURVE",
"190 589 CURVE SMOOTH",
"161 551 OFFCURVE",
"138 505 OFFCURVE",
"120 451 CURVE SMOOTH",
"102 397 OFFCURVE",
"92 337 OFFCURVE",
"92 271 CURVE SMOOTH",
"92 223 OFFCURVE",
"98 181 OFFCURVE",
"109 145 CURVE SMOOTH",
"119 109 OFFCURVE",
"134 79 OFFCURVE",
"153 55 CURVE SMOOTH",
"171 31 OFFCURVE",
"193 14 OFFCURVE",
"219 2 CURVE SMOOTH",
"244 -9 OFFCURVE",
"271 -16 OFFCURVE",
"300 -16 CURVE SMOOTH",
"333 -16 OFFCURVE",
"367 -6 OFFCURVE",
"403 12 CURVE SMOOTH",
"439 30 OFFCURVE",
"471 58 OFFCURVE",
"500 95 CURVE SMOOTH",
"529 132 OFFCURVE",
"553 178 OFFCURVE",
"572 233 CURVE SMOOTH",
"590 287 OFFCURVE",
"600 351 OFFCURVE",
"600 423 CURVE SMOOTH"
);
}
);
width = 595;
},
{
layerId = "7E45FD12-17AB-4855-B847-BB8C6CE14238";
name = Bold;
width = 600;
}
);
unicode = 0030;
},
{
glyphname = one;
layers = (
{
layerId = "D303553C-E248-431D-BB32-0A8D4BAA17B9";
name = Regular;
paths = (
{
closed = 1;
nodes = (
"363 67 LINE",
"452 700 LINE",
"436 700 LINE",
"187 655 LINE",
"177 609 LINE",
"337 609 LINE",
"261 71 LINE",
"90 44 LINE",
"79 0 LINE",
"509 0 LINE",
"521 49 LINE"
);
}
);
width = 595;
},
{
layerId = "7E45FD12-17AB-4855-B847-BB8C6CE14238";
name = Bold;
width = 600;
}
);
unicode = 0031;
},
{
glyphname = two;
layers = (
{
layerId = "D303553C-E248-431D-BB32-0A8D4BAA17B9";
name = Regular;
paths = (
{
closed = 1;
nodes = (
"57 0 LINE",
"508 0 LINE",
"566 179 LINE",
"525 185 LINE",
"454 82 LINE",
"179 82 LINE",
"231 126 LINE SMOOTH",
"261 150 OFFCURVE",
"296 177 OFFCURVE",
"336 206 CURVE SMOOTH",
"376 235 OFFCURVE",
"415 267 OFFCURVE",
"451 302 CURVE SMOOTH",
"487 336 OFFCURVE",
"518 374 OFFCURVE",
"544 415 CURVE SMOOTH",
"569 455 OFFCURVE",
"582 500 OFFCURVE",
"582 549 CURVE SMOOTH",
"582 601 OFFCURVE",
"568 642 OFFCURVE",
"540 671 CURVE SMOOTH",
"512 700 OFFCURVE",
"470 715 OFFCURVE",
"414 715 CURVE SMOOTH",
"383 715 OFFCURVE",
"353 708 OFFCURVE",
"325 696 CURVE SMOOTH",
"297 683 OFFCURVE",
"271 666 OFFCURVE",
"247 646 CURVE SMOOTH",
"223 625 OFFCURVE",
"203 602 OFFCURVE",
"185 577 CURVE SMOOTH",
"167 551 OFFCURVE",
"154 526 OFFCURVE",
"145 502 CURVE",
"191 484 LINE",
"199 500 OFFCURVE",
"210 518 OFFCURVE",
"222 536 CURVE SMOOTH",
"234 554 OFFCURVE",
"247 570 OFFCURVE",
"261 585 CURVE SMOOTH",
"275 599 OFFCURVE",
"291 611 OFFCURVE",
"309 621 CURVE",
"327 630 OFFCURVE",
"346 635 OFFCURVE",
"367 635 CURVE SMOOTH",
"387 635 OFFCURVE",
"403 632 OFFCURVE",
"417 626 CURVE SMOOTH",
"430 620 OFFCURVE",
"441 611 OFFCURVE",
"449 601 CURVE",
"457 590 OFFCURVE",
"462 578 OFFCURVE",
"466 564 CURVE SMOOTH",
"470 550 OFFCURVE",
"472 535 OFFCURVE",
"472 519 CURVE SMOOTH",
"472 483 OFFCURVE",
"464 450 OFFCURVE",
"449 419 CURVE SMOOTH",
"433 388 OFFCURVE",
"413 359 OFFCURVE",
"389 331 CURVE SMOOTH",
"365 303 OFFCURVE",
"338 277 OFFCURVE",
"308 253 CURVE SMOOTH",
"220 183 LINE",
"62 62 LINE"
);
}
);
width = 595;
},
{
layerId = "7E45FD12-17AB-4855-B847-BB8C6CE14238";
name = Bold;
width = 600;
}
);
unicode = 0032;
},
{
glyphname = three;
layers = (
{
layerId = "D303553C-E248-431D-BB32-0A8D4BAA17B9";
name = Regular;
paths = (
{
closed = 1;
nodes = (
"130 123 OFFCURVE",
"109 115 OFFCURVE",
"94 102 CURVE SMOOTH",
"79 89 OFFCURVE",
"72 75 OFFCURVE",
"72 60 CURVE SMOOTH",
"72 50 OFFCURVE",
"75 41 OFFCURVE",
"81 32 CURVE",
"87 22 OFFCURVE",
"95 14 OFFCURVE",
"108 7 CURVE SMOOTH",
"120 0 OFFCURVE",
"135 -6 OFFCURVE",
"153 -11 CURVE",
"171 -15 OFFCURVE",
"192 -18 OFFCURVE",
"217 -18 CURVE SMOOTH",
"259 -18 OFFCURVE",
"298 -11 OFFCURVE",
"336 1 CURVE SMOOTH",
"374 14 OFFCURVE",
"407 32 OFFCURVE",
"435 54 CURVE SMOOTH",
"463 76 OFFCURVE",
"485 103 OFFCURVE",
"502 133 CURVE SMOOTH",
"518 163 OFFCURVE",
"527 194 OFFCURVE",
"527 228 CURVE SMOOTH",
"527 245 OFFCURVE",
"524 262 OFFCURVE",
"518 279 CURVE SMOOTH",
"512 296 OFFCURVE",
"503 312 OFFCURVE",
"491 326 CURVE SMOOTH",
"479 340 OFFCURVE",
"464 352 OFFCURVE",
"446 362 CURVE SMOOTH",
"428 372 OFFCURVE",
"407 378 OFFCURVE",
"383 382 CURVE",
"384 389 LINE",
"404 396 OFFCURVE",
"425 405 OFFCURVE",
"445 417 CURVE SMOOTH",
"465 429 OFFCURVE",
"482 443 OFFCURVE",
"498 459 CURVE SMOOTH",
"513 475 OFFCURVE",
"525 493 OFFCURVE",
"535 514 CURVE SMOOTH",
"545 534 OFFCURVE",
"550 558 OFFCURVE",
"550 584 CURVE SMOOTH",
"550 603 OFFCURVE",
"546 621 OFFCURVE",
"538 637 CURVE SMOOTH",
"530 653 OFFCURVE",
"519 667 OFFCURVE",
"505 679 CURVE SMOOTH",
"491 691 OFFCURVE",
"475 700 OFFCURVE",
"457 707 CURVE",
"438 713 OFFCURVE",
"418 717 OFFCURVE",
"398 717 CURVE SMOOTH",
"372 717 OFFCURVE",
"346 712 OFFCURVE",
"322 702 CURVE SMOOTH",
"298 692 OFFCURVE",
"276 679 OFFCURVE",
"256 664 CURVE SMOOTH",
"236 648 OFFCURVE",
"220 632 OFFCURVE",
"206 614 CURVE SMOOTH",
"192 596 OFFCURVE",
"182 580 OFFCURVE",
"178 564 CURVE",
"220 549 LINE",
"235 576 OFFCURVE",
"253 598 OFFCURVE",
"273 614 CURVE SMOOTH",
"293 630 OFFCURVE",
"319 639 OFFCURVE",
"351 639 CURVE SMOOTH",
"367 639 OFFCURVE",
"381 636 OFFCURVE",
"393 631 CURVE SMOOTH",
"404 626 OFFCURVE",
"413 620 OFFCURVE",
"420 612 CURVE SMOOTH",
"427 604 OFFCURVE",
"432 594 OFFCURVE",
"435 584 CURVE SMOOTH",
"438 574 OFFCURVE",
"440 563 OFFCURVE",
"440 553 CURVE SMOOTH",
"440 533 OFFCURVE",
"435 514 OFFCURVE",
"427 498 CURVE SMOOTH",
"419 482 OFFCURVE",
"408 467 OFFCURVE",
"395 453 CURVE SMOOTH",
"382 439 OFFCURVE",
"368 427 OFFCURVE",
"353 417 CURVE SMOOTH",
"337 407 OFFCURVE",
"322 398 OFFCURVE",
"308 391 CURVE SMOOTH",
"294 384 OFFCURVE",
"281 378 OFFCURVE",
"270 374 CURVE SMOOTH",
"258 370 OFFCURVE",
"251 367 OFFCURVE",
"247 366 CURVE",
"247 327 LINE",
"257 327 LINE SMOOTH",
"282 327 OFFCURVE",
"305 322 OFFCURVE",
"325 314 CURVE SMOOTH",
"345 306 OFFCURVE",
"361 295 OFFCURVE",
"375 282 CURVE",
"389 268 OFFCURVE",
"399 253 OFFCURVE",
"406 237 CURVE SMOOTH",
"413 220 OFFCURVE",
"417 204 OFFCURVE",
"417 188 CURVE SMOOTH",
"417 178 OFFCURVE",
"415 164 OFFCURVE",
"412 147 CURVE SMOOTH",
"409 129 OFFCURVE",
"402 112 OFFCURVE",
"391 95 CURVE SMOOTH",
"380 79 OFFCURVE",
"364 64 OFFCURVE",
"342 52 CURVE SMOOTH",
"320 40 OFFCURVE",
"291 34 OFFCURVE",
"255 34 CURVE SMOOTH",
"241 34 OFFCURVE",
"228 37 OFFCURVE",
"216 45 CURVE",
"204 52 OFFCURVE",
"193 61 OFFCURVE",
"184 71 CURVE SMOOTH",
"175 81 OFFCURVE",
"168 91 OFFCURVE",
"163 101 CURVE SMOOTH",
"158 111 OFFCURVE",
"156 120 OFFCURVE",
"156 126 CURVE"
);
}
);
width = 595;
},
{
layerId = "7E45FD12-17AB-4855-B847-BB8C6CE14238";
name = Bold;
width = 600;
}
);
unicode = 0033;
},
{
glyphname = four;
layers = (
{
layerId = "D303553C-E248-431D-BB32-0A8D4BAA17B9";
name = Regular;
paths = (
{
closed = 1;
nodes = (
"354 211 LINE",
"322 -7 LINE",
"424 9 LINE",
"451 209 LINE",
"591 209 LINE",
"611 283 LINE",
"462 283 LINE",
"479 404 LINE SMOOTH",
"482 430 OFFCURVE",
"486 457 OFFCURVE",
"490 485 CURVE SMOOTH",
"502 564 LINE",
"513 635 LINE SMOOTH",
"517 657 OFFCURVE",
"520 677 OFFCURVE",
"524 695 CURVE",
"488 706 LINE",
"59 255 LINE",
"66 211 LINE"
);
},
{
closed = 1;
nodes = (
"398 538 LINE",
"362 283 LINE",
"163 283 LINE"
);
}
);
width = 595;
},
{
layerId = "7E45FD12-17AB-4855-B847-BB8C6CE14238";
name = Bold;
width = 600;
}
);
unicode = 0034;
},
{
glyphname = five;
layers = (
{
layerId = "D303553C-E248-431D-BB32-0A8D4BAA17B9";
name = Regular;
paths = (
{
closed = 1;
nodes = (
"164 -29 LINE",
"232 -25 OFFCURVE",
"292 -14 OFFCURVE",
"342 3 CURVE SMOOTH",
"392 21 OFFCURVE",
"434 43 OFFCURVE",
"466 69 CURVE SMOOTH",
"498 95 OFFCURVE",
"522 125 OFFCURVE",
"538 157 CURVE SMOOTH",
"554 189 OFFCURVE",
"562 222 OFFCURVE",
"562 256 CURVE SMOOTH",
"562 286 OFFCURVE",
"556 313 OFFCURVE",
"544 339 CURVE SMOOTH",
"532 365 OFFCURVE",
"515 387 OFFCURVE",
"492 406 CURVE SMOOTH",
"468 425 OFFCURVE",
"439 441 OFFCURVE",
"405 453 CURVE SMOOTH",
"370 465 OFFCURVE",
"330 472 OFFCURVE",
"285 475 CURVE",
"335 604 LINE",
"554 615 LINE",
"581 708 LINE",
"316 691 LINE",
"198 390 LINE",
"286 384 OFFCURVE",
"350 366 OFFCURVE",
"389 336 CURVE SMOOTH",
"428 306 OFFCURVE",
"448 267 OFFCURVE",
"448 217 CURVE SMOOTH",
"448 164 OFFCURVE",
"422 121 OFFCURVE",
"372 88 CURVE SMOOTH",
"322 54 OFFCURVE",
"251 33 OFFCURVE",
"161 25 CURVE"
);
}
);
width = 595;
},
{
layerId = "7E45FD12-17AB-4855-B847-BB8C6CE14238";
name = Bold;
width = 600;
}
);
unicode = 0035;
},
{
glyphname = six;
layers = (
{
layerId = "D303553C-E248-431D-BB32-0A8D4BAA17B9";
name = Regular;
paths = (
{
closed = 1;
nodes = (
"235 360 LINE",
"245 389 OFFCURVE",
"259 419 OFFCURVE",
"277 450 CURVE SMOOTH",
"295 481 OFFCURVE",
"318 511 OFFCURVE",
"344 540 CURVE SMOOTH",
"370 568 OFFCURVE",
"399 595 OFFCURVE",
"433 620 CURVE SMOOTH",
"467 644 OFFCURVE",
"504 666 OFFCURVE",
"546 684 CURVE",
"529 718 LINE",
"493 706 OFFCURVE",
"458 691 OFFCURVE",
"424 672 CURVE SMOOTH",
"389 652 OFFCURVE",
"356 630 OFFCURVE",
"324 604 CURVE SMOOTH",
"292 578 OFFCURVE",
"263 549 OFFCURVE",
"236 518 CURVE SMOOTH",
"208 486 OFFCURVE",
"184 453 OFFCURVE",
"164 419 CURVE SMOOTH",
"144 384 OFFCURVE",
"128 348 OFFCURVE",
"117 312 CURVE SMOOTH",
"105 275 OFFCURVE",
"99 238 OFFCURVE",
"99 202 CURVE SMOOTH",
"99 172 OFFCURVE",
"103 145 OFFCURVE",
"110 119 CURVE SMOOTH",
"117 92 OFFCURVE",
"128 70 OFFCURVE",
"144 51 CURVE SMOOTH",
"160 31 OFFCURVE",
"180 16 OFFCURVE",
"204 4 CURVE SMOOTH",
"228 -7 OFFCURVE",
"258 -13 OFFCURVE",
"293 -13 CURVE SMOOTH",
"327 -13 OFFCURVE",
"361 -6 OFFCURVE",
"393 7 CURVE SMOOTH",
"425 20 OFFCURVE",
"454 38 OFFCURVE",
"479 60 CURVE SMOOTH",
"504 82 OFFCURVE",
"524 109 OFFCURVE",
"540 139 CURVE SMOOTH",
"555 169 OFFCURVE",
"563 200 OFFCURVE",
"563 234 CURVE SMOOTH",
"563 258 OFFCURVE",
"559 281 OFFCURVE",
"552 303 CURVE",
"544 325 OFFCURVE",
"533 345 OFFCURVE",
"519 362 CURVE SMOOTH",
"505 379 OFFCURVE",
"487 393 OFFCURVE",
"467 403 CURVE SMOOTH",
"447 413 OFFCURVE",
"424 419 OFFCURVE",
"398 419 CURVE SMOOTH",
"382 419 OFFCURVE",
"366 417 OFFCURVE",
"351 414 CURVE",
"335 410 OFFCURVE",
"321 406 OFFCURVE",
"307 401 CURVE",
"293 395 OFFCURVE",
"281 389 OFFCURVE",
"270 382 CURVE",
"258 375 OFFCURVE",
"249 368 OFFCURVE",
"241 360 CURVE"
);
},
{
closed = 1;
nodes = (
"289 36 OFFCURVE",
"276 40 OFFCURVE",
"264 50 CURVE",
"252 59 OFFCURVE",
"242 71 OFFCURVE",
"234 87 CURVE SMOOTH",
"226 103 OFFCURVE",
"220 121 OFFCURVE",
"216 141 CURVE SMOOTH",
"212 161 OFFCURVE",
"210 181 OFFCURVE",
"210 203 CURVE SMOOTH",
"210 223 OFFCURVE",
"212 243 OFFCURVE",
"216 263 CURVE SMOOTH",
"220 282 OFFCURVE",
"223 298 OFFCURVE",
"227 312 CURVE",
"231 317 OFFCURVE",
"237 322 OFFCURVE",
"246 328 CURVE",
"255 333 OFFCURVE",
"265 338 OFFCURVE",
"277 343 CURVE",
"288 347 OFFCURVE",
"300 351 OFFCURVE",
"312 354 CURVE",
"324 356 OFFCURVE",
"335 358 OFFCURVE",
"347 358 CURVE SMOOTH",
"365 358 OFFCURVE",
"380 354 OFFCURVE",
"394 346 CURVE SMOOTH",
"407 338 OFFCURVE",
"418 327 OFFCURVE",
"427 314 CURVE",
"435 301 OFFCURVE",
"442 286 OFFCURVE",
"446 270 CURVE SMOOTH",
"450 253 OFFCURVE",
"453 236 OFFCURVE",
"453 219 CURVE SMOOTH",
"453 199 OFFCURVE",
"451 178 OFFCURVE",
"447 156 CURVE SMOOTH",
"443 134 OFFCURVE",
"436 115 OFFCURVE",
"425 96 CURVE",
"414 79 OFFCURVE",
"399 64 OFFCURVE",
"380 53 CURVE SMOOTH",
"360 41 OFFCURVE",
"335 36 OFFCURVE",
"305 36 CURVE SMOOTH"
);
}
);
width = 595;
},
{
layerId = "7E45FD12-17AB-4855-B847-BB8C6CE14238";
name = Bold;
width = 600;
}
);
unicode = 0036;
},
{
glyphname = seven;
layers = (
{
layerId = "D303553C-E248-431D-BB32-0A8D4BAA17B9";
name = Regular;
paths = (
{
closed = 1;
nodes = (
"236 609 LINE",
"540 609 LINE",
"241 -2 LINE",
"294 -20 LINE",
"645 668 LINE",
"648 699 LINE",
"191 699 LINE",
"154 536 LINE",
"194 528 LINE"
);
}
);
width = 595;
},
{
layerId = "7E45FD12-17AB-4855-B847-BB8C6CE14238";
name = Bold;
width = 600;
}
);
unicode = 0037;
},
{
glyphname = eight;
layers = (
{
layerId = "D303553C-E248-431D-BB32-0A8D4BAA17B9";
name = Regular;
paths = (
{
closed = 1;
nodes = (
"299 328 LINE",
"353 289 LINE SMOOTH",
"371 276 OFFCURVE",
"387 263 OFFCURVE",
"401 250 CURVE",
"415 236 OFFCURVE",
"426 222 OFFCURVE",
"435 208 CURVE",
"443 194 OFFCURVE",
"448 179 OFFCURVE",
"448 165 CURVE SMOOTH",
"448 127 OFFCURVE",
"436 96 OFFCURVE",
"414 73 CURVE SMOOTH",
"391 50 OFFCURVE",
"354 39 OFFCURVE",
"304 39 CURVE SMOOTH",
"289 39 OFFCURVE",
"275 42 OFFCURVE",
"262 50 CURVE",
"249 57 OFFCURVE",
"238 66 OFFCURVE",
"228 78 CURVE SMOOTH",
"218 90 OFFCURVE",
"210 103 OFFCURVE",
"204 119 CURVE SMOOTH",
"198 134 OFFCURVE",
"196 150 OFFCURVE",
"196 166 CURVE SMOOTH",
"196 188 OFFCURVE",
"199 207 OFFCURVE",
"205 223 CURVE SMOOTH",
"211 239 OFFCURVE",
"218 253 OFFCURVE",
"228 265 CURVE SMOOTH",
"238 277 OFFCURVE",
"249 288 OFFCURVE",
"261 298 CURVE SMOOTH"
);
},
{
closed = 1;
nodes = (
"95 118 OFFCURVE",
"100 96 OFFCURVE",
"109 76 CURVE SMOOTH",
"118 56 OFFCURVE",
"130 40 OFFCURVE",
"146 26 CURVE SMOOTH",
"161 12 OFFCURVE",
"179 2 OFFCURVE",
"201 -5 CURVE SMOOTH",
"222 -12 OFFCURVE",
"245 -16 OFFCURVE",
"270 -16 CURVE SMOOTH",
"312 -16 OFFCURVE",
"351 -10 OFFCURVE",
"385 1 CURVE SMOOTH",
"419 13 OFFCURVE",
"448 29 OFFCURVE",
"472 49 CURVE SMOOTH",
"496 69 OFFCURVE",
"514 91 OFFCURVE",
"527 117 CURVE SMOOTH",
"540 143 OFFCURVE",
"547 170 OFFCURVE",
"547 198 CURVE SMOOTH",
"547 231 OFFCURVE",
"535 263 OFFCURVE",
"513 293 CURVE SMOOTH",
"491 323 OFFCURVE",
"462 350 OFFCURVE",
"426 376 CURVE",
"428 382 LINE",
"446 388 OFFCURVE",
"464 398 OFFCURVE",
"481 411 CURVE",
"498 423 OFFCURVE",
"513 438 OFFCURVE",
"525 455 CURVE SMOOTH",
"537 471 OFFCURVE",
"547 489 OFFCURVE",
"555 508 CURVE",
"562 527 OFFCURVE",
"566 546 OFFCURVE",
"566 566 CURVE SMOOTH",
"566 586 OFFCURVE",
"562 604 OFFCURVE",
"555 622 CURVE",
"547 639 OFFCURVE",
"537 654 OFFCURVE",
"523 667 CURVE SMOOTH",
"509 680 OFFCURVE",
"493 690 OFFCURVE",
"473 698 CURVE SMOOTH",
"453 706 OFFCURVE",
"430 710 OFFCURVE",
"404 710 CURVE SMOOTH",
"373 710 OFFCURVE",
"344 704 OFFCURVE",
"316 692 CURVE SMOOTH",
"288 680 OFFCURVE",
"263 665 OFFCURVE",
"242 646 CURVE SMOOTH",
"221 627 OFFCURVE",
"204 605 OFFCURVE",
"192 581 CURVE SMOOTH",
"179 557 OFFCURVE",
"173 532 OFFCURVE",
"173 506 CURVE SMOOTH",
"173 488 OFFCURVE",
"176 471 OFFCURVE",
"182 455 CURVE SMOOTH",
"188 439 OFFCURVE",
"196 425 OFFCURVE",
"206 412 CURVE SMOOTH",
"216 399 OFFCURVE",
"226 388 OFFCURVE",
"238 378 CURVE",
"249 368 OFFCURVE",
"259 360 OFFCURVE",
"269 354 CURVE",
"268 349 LINE",
"211 318 OFFCURVE",
"168 286 OFFCURVE",
"139 253 CURVE SMOOTH",
"110 220 OFFCURVE",
"95 183 OFFCURVE",
"95 143 CURVE SMOOTH"
);
},
{
closed = 1;
nodes = (
"355 422 OFFCURVE",
"325 445 OFFCURVE",
"302 470 CURVE SMOOTH",
"279 495 OFFCURVE",
"268 523 OFFCURVE",
"268 553 CURVE SMOOTH",
"268 565 OFFCURVE",
"270 578 OFFCURVE",
"275 592 CURVE SMOOTH",
"280 605 OFFCURVE",
"287 617 OFFCURVE",
"297 628 CURVE",
"307 638 OFFCURVE",
"319 647 OFFCURVE",
"333 654 CURVE SMOOTH",
"347 661 OFFCURVE",
"364 665 OFFCURVE",
"383 665 CURVE SMOOTH",
"410 665 OFFCURVE",
"433 654 OFFCURVE",
"451 633 CURVE SMOOTH",
"469 611 OFFCURVE",
"478 583 OFFCURVE",
"478 549 CURVE SMOOTH",
"478 529 OFFCURVE",
"476 512 OFFCURVE",
"473 497 CURVE",
"469 482 OFFCURVE",
"464 469 OFFCURVE",
"457 457 CURVE",
"449 445 OFFCURVE",
"440 435 OFFCURVE",
"429 426 CURVE",
"418 416 OFFCURVE",
"405 408 OFFCURVE",
"391 400 CURVE"
);
}
);
width = 595;
},
{
layerId = "7E45FD12-17AB-4855-B847-BB8C6CE14238";
name = Bold;
width = 600;
}
);
unicode = 0038;
},
{
glyphname = nine;
layers = (
{
layerId = "D303553C-E248-431D-BB32-0A8D4BAA17B9";
name = Regular;
paths = (
{
closed = 1;
nodes = (
"461 340 LINE",
"453 304 OFFCURVE",
"441 270 OFFCURVE",
"427 238 CURVE SMOOTH",
"413 206 OFFCURVE",
"394 177 OFFCURVE",
"370 151 CURVE SMOOTH",
"346 125 OFFCURVE",
"316 101 OFFCURVE",
"281 81 CURVE SMOOTH",
"245 60 OFFCURVE",
"203 42 OFFCURVE",
"153 28 CURVE",
"161 -16 LINE",
"224 -5 OFFCURVE",
"282 16 OFFCURVE",
"335 48 CURVE SMOOTH",
"388 80 OFFCURVE",
"434 119 OFFCURVE",
"472 165 CURVE SMOOTH",
"510 211 OFFCURVE",
"539 262 OFFCURVE",
"560 319 CURVE SMOOTH",
"581 375 OFFCURVE",
"592 434 OFFCURVE",
"592 496 CURVE SMOOTH",
"592 525 OFFCURVE",
"588 553 OFFCURVE",
"581 580 CURVE",
"573 606 OFFCURVE",
"562 630 OFFCURVE",
"547 650 CURVE SMOOTH",
"531 670 OFFCURVE",
"512 686 OFFCURVE",
"488 698 CURVE SMOOTH",
"464 710 OFFCURVE",
"435 716 OFFCURVE",
"401 716 CURVE SMOOTH",
"370 716 OFFCURVE",
"339 708 OFFCURVE",
"307 694 CURVE SMOOTH",
"275 680 OFFCURVE",
"247 660 OFFCURVE",
"221 636 CURVE SMOOTH",
"195 612 OFFCURVE",
"173 583 OFFCURVE",
"157 551 CURVE SMOOTH",
"141 519 OFFCURVE",
"133 484 OFFCURVE",
"133 448 CURVE SMOOTH",
"133 424 OFFCURVE",
"136 402 OFFCURVE",
"143 381 CURVE SMOOTH",
"150 360 OFFCURVE",
"161 342 OFFCURVE",
"175 326 CURVE SMOOTH",
"189 310 OFFCURVE",
"206 298 OFFCURVE",
"226 289 CURVE SMOOTH",
"246 280 OFFCURVE",
"269 276 OFFCURVE",
"295 276 CURVE SMOOTH",
"307 276 OFFCURVE",
"321 277 OFFCURVE",
"336 280 CURVE SMOOTH",
"350 283 OFFCURVE",
"365 287 OFFCURVE",
"379 293 CURVE",
"393 298 OFFCURVE",
"406 305 OFFCURVE",
"419 313 CURVE",
"431 321 OFFCURVE",
"442 330 OFFCURVE",
"451 340 CURVE"
);
},
{
closed = 1;
nodes = (
"404 668 OFFCURVE",
"418 663 OFFCURVE",
"430 654 CURVE SMOOTH",
"442 645 OFFCURVE",
"452 633 OFFCURVE",
"461 619 CURVE",
"469 604 OFFCURVE",
"476 587 OFFCURVE",
"481 567 CURVE",
"485 547 OFFCURVE",
"488 527 OFFCURVE",
"488 507 CURVE SMOOTH",
"488 479 OFFCURVE",
"486 456 OFFCURVE",
"482 438 CURVE SMOOTH",
"478 420 OFFCURVE",
"473 405 OFFCURVE",
"469 392 CURVE",
"463 384 OFFCURVE",
"455 376 OFFCURVE",
"446 370 CURVE",
"436 364 OFFCURVE",
"426 358 OFFCURVE",
"415 354 CURVE SMOOTH",
"403 350 OFFCURVE",
"392 346 OFFCURVE",
"380 344 CURVE",
"368 341 OFFCURVE",
"357 340 OFFCURVE",
"347 340 CURVE SMOOTH",
"328 340 OFFCURVE",
"312 343 OFFCURVE",
"298 351 CURVE SMOOTH",
"284 359 OFFCURVE",
"272 369 OFFCURVE",
"263 382 CURVE",
"253 394 OFFCURVE",
"246 409 OFFCURVE",
"242 425 CURVE",
"237 441 OFFCURVE",
"235 459 OFFCURVE",
"235 477 CURVE SMOOTH",
"235 503 OFFCURVE",
"238 528 OFFCURVE",
"244 551 CURVE SMOOTH",
"250 574 OFFCURVE",
"259 594 OFFCURVE",
"272 612 CURVE SMOOTH",
"284 629 OFFCURVE",
"300 643 OFFCURVE",
"320 653 CURVE SMOOTH",
"340 663 OFFCURVE",
"363 668 OFFCURVE",
"390 668 CURVE SMOOTH"
);
}
);
width = 595;
},
{
layerId = "7E45FD12-17AB-4855-B847-BB8C6CE14238";
name = Bold;
width = 600;
}
);
unicode = 0039;
},
{
glyphname = zero.osf;
layers = (
{
layerId = "D303553C-E248-431D-BB32-0A8D4BAA17B9";
name = Regular;
paths = (
{
closed = 1;
nodes = (
"192 283 CURVE SMOOTH",
"174 166 OFFCURVE",
"215 51 OFFCURVE",
"319 51 CURVE SMOOTH",
"428 51 OFFCURVE",
"490 153 OFFCURVE",
"511 285 CURVE SMOOTH",
"530 405 OFFCURVE",
"491 521 OFFCURVE",
"391 521 CURVE SMOOTH",
"281 521 OFFCURVE",
"213 416 OFFCURVE"
);
},
{
closed = 1;
nodes = (
"616 283 CURVE SMOOTH",
"591 123 OFFCURVE",
"464 -16 OFFCURVE",
"307 -16 CURVE SMOOTH",
"137 -16 OFFCURVE",
"59 104 OFFCURVE",
"88 285 CURVE SMOOTH",
"113 445 OFFCURVE",
"244 586 OFFCURVE",
"400 586 CURVE SMOOTH",
"571 586 OFFCURVE",
"643 453 OFFCURVE"
);
}
);
width = 609;
},
{
layerId = "7E45FD12-17AB-4855-B847-BB8C6CE14238";
name = Bold;
width = 600;
}
);
},
{
glyphname = one.osf;
layers = (
{
layerId = "D303553C-E248-431D-BB32-0A8D4BAA17B9";
name = Regular;
paths = (
{
closed = 1;
nodes = (
"338 570 LINE",
"259 69 LINE",
"371 49 LINE",
"357 0 LINE",
"30 0 LINE",
"42 45 LINE",
"159 73 LINE",
"222 476 LINE",
"118 477 LINE",
"130 524 LINE",
"321 570 LINE"
);
}
);
width = 383;
},
{
layerId = "7E45FD12-17AB-4855-B847-BB8C6CE14238";
name = Bold;
width = 600;
}
);
},
{
glyphname = two.osf;
layers = (
{
layerId = "D303553C-E248-431D-BB32-0A8D4BAA17B9";
name = Regular;
paths = (
{
closed = 1;
nodes = (
"444 0 LINE",
"42 0 LINE",
"48 62 LINE",
"221 182 LINE SMOOTH",
"335 262 OFFCURVE",
"369 340 OFFCURVE",
"378 399 CURVE SMOOTH",
"389 465 OFFCURVE",
"362 506 OFFCURVE",
"304 506 CURVE SMOOTH",
"236 506 OFFCURVE",
"178 428 OFFCURVE",
"156 394 CURVE",
"114 412 LINE",
"133 470 OFFCURVE",
"233 585 OFFCURVE",
"359 585 CURVE SMOOTH",
"448 585 OFFCURVE",
"507 521 OFFCURVE",
"491 426 CURVE SMOOTH",
"473 308 OFFCURVE",
"362 211 OFFCURVE",
"232 125 CURVE SMOOTH",
"169 84 LINE",
"394 84 LINE",
"455 168 LINE",
"497 162 LINE"
);
}
);
width = 496;
},
{
layerId = "7E45FD12-17AB-4855-B847-BB8C6CE14238";
name = Bold;
width = 600;
}
);
},
{
glyphname = three.osf;
layers = (
{
layerId = "D303553C-E248-431D-BB32-0A8D4BAA17B9";
name = Regular;
paths = (
{
closed = 1;
nodes = (
"100 -33 CURVE",
"100 -59 OFFCURVE",
"114 -127 OFFCURVE",
"172 -127 CURVE SMOOTH",
"284 -127 OFFCURVE",
"324 -52 OFFCURVE",
"335 18 CURVE SMOOTH",
"346 88 OFFCURVE",
"280 174 OFFCURVE",
"206 174 CURVE SMOOTH",
"196 174 LINE",
"196 214 LINE",
"222 222 OFFCURVE",
"355 291 OFFCURVE",
"372 401 CURVE SMOOTH",
"380 454 OFFCURVE",
"367 504 OFFCURVE",
"312 504 CURVE SMOOTH",
"247 504 OFFCURVE",
"215 468 OFFCURVE",
"183 413 CURVE",
"138 429 LINE",
"161 493 OFFCURVE",
"252 585 OFFCURVE",
"360 585 CURVE SMOOTH",
"452 585 OFFCURVE",
"495 521 OFFCURVE",
"481 433 CURVE SMOOTH",
"466 338 OFFCURVE",
"381 270 OFFCURVE",
"329 240 CURVE",
"327 233 LINE",
"420 206 OFFCURVE",
"461 132 OFFCURVE",
"449 54 CURVE SMOOTH",
"433 -49 OFFCURVE",
"312 -180 OFFCURVE",
"152 -180 CURVE SMOOTH",
"47 -180 OFFCURVE",
"7 -136 OFFCURVE",
"13 -96 CURVE SMOOTH",
"18 -66 OFFCURVE",
"49 -38 OFFCURVE"
);
}
);
width = 452;
},
{
layerId = "7E45FD12-17AB-4855-B847-BB8C6CE14238";
name = Bold;
width = 600;
}
);
},
{
glyphname = four.osf;
layers = (
{
layerId = "D303553C-E248-431D-BB32-0A8D4BAA17B9";
name = Regular;
paths = (
{
closed = 1;
nodes = (
"338 -184 LINE",
"376 54 LINE",
"82 54 LINE",
"75 99 LINE",
"529 597 LINE",
"566 586 LINE",
"551 514 OFFCURVE",
"526 372 OFFCURVE",
"509 262 CURVE SMOOTH",
"487 128 LINE",
"641 128 LINE",
"619 52 LINE",
"476 52 LINE",
"442 -162 LINE"
);
},
{
closed = 1;
nodes = (
"386 128 LINE",
"431 410 LINE",
"182 128 LINE"
);
}
);
width = 577;
},
{
layerId = "7E45FD12-17AB-4855-B847-BB8C6CE14238";
name = Bold;
width = 600;
}
);
},
{
glyphname = five.osf;
layers = (
{
layerId = "D303553C-E248-431D-BB32-0A8D4BAA17B9";
name = Regular;
paths = (
{
closed = 1;
nodes = (
"512 575 LINE",
"481 476 LINE",
"272 462 LINE",
"224 330 LINE",
"393 300 OFFCURVE",
"479 218 OFFCURVE",
"457 78 CURVE SMOOTH",
"437 -46 OFFCURVE",
"297 -180 OFFCURVE",
"137 -180 CURVE SMOOTH",
"22 -180 OFFCURVE",
"-14 -139 OFFCURVE",
"-7 -101 CURVE SMOOTH",
"-3 -71 OFFCURVE",
"27 -44 OFFCURVE",
"64 -37 CURVE",
"78 -62 OFFCURVE",
"112 -125 OFFCURVE",
"178 -125 CURVE SMOOTH",
"256 -125 OFFCURVE",
"326 -48 OFFCURVE",
"340 39 CURVE SMOOTH",
"359 159 OFFCURVE",
"299 224 OFFCURVE",
"137 243 CURVE",
"239 552 LINE"
);
}
);
width = 476;
},
{
layerId = "7E45FD12-17AB-4855-B847-BB8C6CE14238";
name = Bold;
width = 600;
}
);
},
{
glyphname = six.osf;
layers = (
{
layerId = "D303553C-E248-431D-BB32-0A8D4BAA17B9";
name = Regular;
paths = (
{
closed = 1;
nodes = (
"219 364 CURVE",
"225 364 LINE",
"257 395 OFFCURVE",
"305 424 OFFCURVE",
"370 424 CURVE SMOOTH",
"488 424 OFFCURVE",
"531 324 OFFCURVE",
"514 214 CURVE SMOOTH",
"494 90 OFFCURVE",
"376 -13 OFFCURVE",
"255 -13 CURVE SMOOTH",
"100 -13 OFFCURVE",
"60 113 OFFCURVE",
"82 255 CURVE SMOOTH",
"115 458 OFFCURVE",
"309 668 OFFCURVE",
"510 730 CURVE",
"526 695 LINE",
"357 623 OFFCURVE",
"262 484 OFFCURVE"
);
},
{
closed = 1;
nodes = (
"268 37 CURVE SMOOTH",
"332 37 OFFCURVE",
"387 105 OFFCURVE",
"401 198 CURVE SMOOTH",
"414 280 OFFCURVE",
"402 362 OFFCURVE",
"316 362 CURVE SMOOTH",
"271 362 OFFCURVE",
"227 336 OFFCURVE",
"209 314 CURVE",
"204 294 OFFCURVE",
"197 267 OFFCURVE",
"194 246 CURVE SMOOTH",
"178 143 OFFCURVE",
"197 37 OFFCURVE"
);
}
);
width = 498;
},
{
layerId = "7E45FD12-17AB-4855-B847-BB8C6CE14238";
name = Bold;
width = 600;
}
);
},
{
glyphname = seven.osf;
layers = (
{
layerId = "D303553C-E248-431D-BB32-0A8D4BAA17B9";
name = Regular;
paths = (
{
closed = 1;
nodes = (
"91 -31 CURVE SMOOTH",
"190 134 OFFCURVE",
"324 297 OFFCURVE",
"447 466 CURVE",
"193 466 LINE",
"153 391 LINE",
"112 399 LINE",
"153 558 LINE",
"539 558 LINE",
"537 500 LINE",
"392 296 OFFCURVE",
"301 186 OFFCURVE",
"217 19 CURVE SMOOTH",
"189 -37 OFFCURVE",
"153 -128 OFFCURVE",
"145 -179 CURVE",
"138 -180 OFFCURVE",
"122 -184 OFFCURVE",
"116 -184 CURVE SMOOTH",
"78 -184 OFFCURVE",
"49 -159 OFFCURVE",
"55 -118 CURVE SMOOTH",
"59 -97 OFFCURVE",
"70 -67 OFFCURVE"
);
}
);
width = 449;
},
{
layerId = "7E45FD12-17AB-4855-B847-BB8C6CE14238";
name = Bold;
width = 600;
}
);
},
{
glyphname = eight.osf;
layers = (
{
layerId = "D303553C-E248-431D-BB32-0A8D4BAA17B9";
name = Regular;
paths = (
{
closed = 1;
nodes = (
"262 336 CURVE",
"226 311 OFFCURVE",
"182 248 OFFCURVE",
"172 184 CURVE SMOOTH",
"160 112 OFFCURVE",
"197 40 OFFCURVE",
"261 40 CURVE SMOOTH",
"329 40 OFFCURVE",
"381 80 OFFCURVE",
"394 161 CURVE SMOOTH",
"404 226 OFFCURVE",
"341 281 OFFCURVE"
);
},
{
closed = 1;
nodes = (
"69 170 CURVE SMOOTH",
"80 238 OFFCURVE",
"134 302 OFFCURVE",
"230 357 CURVE",
"231 362 LINE",
"190 389 OFFCURVE",
"142 456 OFFCURVE",
"155 537 CURVE SMOOTH",
"171 639 OFFCURVE",
"271 727 OFFCURVE",
"377 727 CURVE SMOOTH",
"481 727 OFFCURVE",
"537 662 OFFCURVE",
"523 571 CURVE SMOOTH",
"512 500 OFFCURVE",
"473 443 OFFCURVE",
"394 391 CURVE",
"393 385 LINE",
"473 329 OFFCURVE",
"506 261 OFFCURVE",
"494 187 CURVE SMOOTH",
"477 76 OFFCURVE",
"364 -16 OFFCURVE",
"225 -16 CURVE SMOOTH",
"114 -16 OFFCURVE",
"51 54 OFFCURVE"
);
},
{
closed = 1;
nodes = (
"356 410 CURVE",
"386 437 OFFCURVE",
"418 472 OFFCURVE",
"430 549 CURVE SMOOTH",
"441 614 OFFCURVE",
"417 681 OFFCURVE",
"353 681 CURVE SMOOTH",
"305 681 OFFCURVE",
"262 641 OFFCURVE",
"254 592 CURVE SMOOTH",
"244 526 OFFCURVE",
"279 459 OFFCURVE"
);
}
);
width = 502;
},
{
layerId = "7E45FD12-17AB-4855-B847-BB8C6CE14238";
name = Bold;
width = 600;
}
);
},
{
glyphname = nine.osf;
layers = (
{
layerId = "D303553C-E248-431D-BB32-0A8D4BAA17B9";
name = Regular;
paths = (
{
closed = 1;
nodes = (
"396 204 CURVE",
"388 204 LINE",
"352 163 OFFCURVE",
"295 139 OFFCURVE",
"242 139 CURVE SMOOTH",
"124 139 OFFCURVE",
"82 237 OFFCURVE",
"100 347 CURVE SMOOTH",
"119 471 OFFCURVE",
"241 574 OFFCURVE",
"357 574 CURVE SMOOTH",
"516 574 OFFCURVE",
"551 448 OFFCURVE",
"528 306 CURVE SMOOTH",
"496 103 OFFCURVE",
"309 -92 OFFCURVE",
"99 -156 CURVE",
"92 -111 LINE",
"281 -36 OFFCURVE",
"353 84 OFFCURVE"
);
},
{
closed = 1;
nodes = (
"344 525 CURVE SMOOTH",
"271 525 OFFCURVE",
"223 456 OFFCURVE",
"208 363 CURVE SMOOTH",
"195 281 OFFCURVE",
"210 204 OFFCURVE",
"296 204 CURVE SMOOTH",
"338 204 OFFCURVE",
"384 226 OFFCURVE",
"407 257 CURVE",
"417 285 OFFCURVE",
"420 307 OFFCURVE",
"424 332 CURVE SMOOTH",
"440 431 OFFCURVE",
"414 525 OFFCURVE"
);
}
);
width = 495;
},
{
layerId = "7E45FD12-17AB-4855-B847-BB8C6CE14238";
name = Bold;
width = 600;
}
);
},
{
glyphname = onequarter;
layers = (
{
layerId = "D303553C-E248-431D-BB32-0A8D4BAA17B9";
name = Regular;
paths = (
{
closed = 1;
nodes = (
"528 280 LINE",
"357 84 LINE",
"356 52 LINE",
"495 52 LINE",
"481 -33 LINE",
"432 -47 LINE",
"426 -70 LINE",
"574 -70 LINE",
"582 -45 LINE",
"532 -35 LINE",
"546 52 LINE",
"596 52 LINE",
"607 92 LINE",
"551 92 LINE",
"583 289 LINE"
);
},
{
closed = 1;
nodes = (
"502 90 LINE",
"398 90 LINE",
"524 236 LINE"
);
},
{
closed = 1;
nodes = (
"237 588 LINE",
"228 588 LINE",
"137 565 LINE",
"131 542 LINE",
"178 541 LINE",
"147 341 LINE",
"93 327 LINE",
"88 304 LINE",
"244 304 LINE",
"250 329 LINE",
"197 339 LINE"
);
},
{
closed = 1;
nodes = (
"594 581 LINE",
"81 -18 LINE",
"148 -13 LINE",
"658 586 LINE"
);
}
);
width = 633;
},
{
layerId = "7E45FD12-17AB-4855-B847-BB8C6CE14238";
name = Bold;
width = 600;
}
);
unicode = 00BC;
},
{
glyphname = onehalf;
layers = (
{
layerId = "D303553C-E248-431D-BB32-0A8D4BAA17B9";
name = Regular;
paths = (
{
closed = 1;
nodes = (
"492 217 OFFCURVE",
"503 260 OFFCURVE",
"531 260 CURVE SMOOTH",
"561 260 OFFCURVE",
"570 232 OFFCURVE",
"565 200 CURVE SMOOTH",
"560 170 OFFCURVE",
"541 142 OFFCURVE",
"512 118 CURVE SMOOTH",
"410 31 LINE",
"408 0 LINE",
"588 0 LINE",
"600 43 LINE",
"466 43 LINE",
"512 79 LINE SMOOTH",
"580 131 OFFCURVE",
"612 157 OFFCURVE",
"621 213 CURVE SMOOTH",
"629 260 OFFCURVE",
"600 292 OFFCURVE",
"556 292 CURVE SMOOTH",
"518 292 OFFCURVE",
"456 258 OFFCURVE",
"451 223 CURVE SMOOTH",
"447 198 OFFCURVE",
"458 190 OFFCURVE",
"487 188 CURVE"
);
},
{
closed = 1;
nodes = (
"236 588 LINE",
"227 588 LINE",
"137 565 LINE",
"131 542 LINE",
"177 541 LINE",
"146 341 LINE",
"93 327 LINE",
"88 304 LINE",
"243 304 LINE",
"250 329 LINE",
"196 339 LINE"
);
},
{
closed = 1;
nodes = (
"594 581 LINE",
"81 -18 LINE",
"147 -13 LINE",
"658 586 LINE"
);
}
);
width = 634;
},
{
layerId = "7E45FD12-17AB-4855-B847-BB8C6CE14238";
name = Bold;
width = 600;
}
);
unicode = 00BD;
},
{
glyphname = threequarters;
layers = (
{
layerId = "D303553C-E248-431D-BB32-0A8D4BAA17B9";
name = Regular;
paths = (
{
closed = 1;
nodes = (
"601 581 LINE",
"88 -18 LINE",
"155 -13 LINE",
"665 586 LINE"
);
},
{
closed = 1;
nodes = (
"508 90 LINE",
"406 90 LINE",
"531 236 LINE"
);
},
{
closed = 1;
nodes = (
"535 280 LINE",
"363 84 LINE",
"363 52 LINE",
"502 52 LINE",
"488 -33 LINE",
"439 -47 LINE",
"432 -70 LINE",
"582 -70 LINE",
"588 -45 LINE",
"538 -35 LINE",
"552 52 LINE",
"603 52 LINE",
"614 92 LINE",
"558 92 LINE",
"589 289 LINE"
);
},
{
closed = 1;
nodes = (
"238 442 OFFCURVE",
"152 430 OFFCURVE",
"143 426 CURVE",
"143 424 LINE",
"141 414 OFFCURVE",
"142 406 OFFCURVE",
"143 398 CURVE",
"155 398 OFFCURVE",
"169 399 OFFCURVE",
"179 399 CURVE SMOOTH",
"217 399 OFFCURVE",
"239 362 OFFCURVE",
"233 326 CURVE SMOOTH",
"227 290 OFFCURVE",
"204 262 OFFCURVE",
"167 262 CURVE SMOOTH",
"131 262 OFFCURVE",
"132 292 OFFCURVE",
"131 322 CURVE",
"118 320 OFFCURVE",
"89 312 OFFCURVE",
"85 288 CURVE SMOOTH",
"81 264 OFFCURVE",
"95 230 OFFCURVE",
"167 230 CURVE SMOOTH",
"230 230 OFFCURVE",
"278 283 OFFCURVE",
"286 334 CURVE SMOOTH",
"293 374 OFFCURVE",
"273 411 OFFCURVE",
"227 424 CURVE",
"227 429 LINE",
"264 448 OFFCURVE",
"294 486 OFFCURVE",
"301 526 CURVE SMOOTH",
"307 564 OFFCURVE",
"281 597 OFFCURVE",
"235 597 CURVE SMOOTH",
"202 597 OFFCURVE",
"134 572 OFFCURVE",
"126 524 CURVE SMOOTH",
"123 504 OFFCURVE",
"137 496 OFFCURVE",
"162 494 CURVE",
"171 546 OFFCURVE",
"193 564 OFFCURVE",
"213 564 CURVE SMOOTH",
"240 564 OFFCURVE",
"253 540 OFFCURVE",
"249 513 CURVE SMOOTH"
);
}
);
width = 640;
},
{
layerId = "7E45FD12-17AB-4855-B847-BB8C6CE14238";
name = Bold;
width = 600;
}
);
unicode = 00BE;
},
{
glyphname = fraction;
layers = (
{
layerId = "D303553C-E248-431D-BB32-0A8D4BAA17B9";
name = Regular;
paths = (
{
closed = 1;
nodes = (
"594 581 LINE",
"81 -18 LINE",
"148 -13 LINE",
"658 586 LINE"
);
}
);
width = 600;
},
{
layerId = "7E45FD12-17AB-4855-B847-BB8C6CE14238";
name = Bold;
width = 600;
}
);
unicode = 2044;
},
{
glyphname = twosuperior;
layers = (
{
layerId = "D303553C-E248-431D-BB32-0A8D4BAA17B9";
name = Regular;
paths = (
{
closed = 1;
nodes = (
"165 742 OFFCURVE",
"171 768 OFFCURVE",
"188 768 CURVE SMOOTH",
"206 768 OFFCURVE",
"212 752 OFFCURVE",
"208 732 CURVE",
"206 714 OFFCURVE",
"194 697 OFFCURVE",
"177 683 CURVE SMOOTH",
"116 631 LINE",
"114 612 LINE",
"221 612 LINE",
"230 638 LINE",
"150 638 LINE",
"177 659 LINE SMOOTH",
"218 691 OFFCURVE",
"237 706 OFFCURVE",
"243 740 CURVE SMOOTH",
"247 768 OFFCURVE",
"229 788 OFFCURVE",
"203 788 CURVE SMOOTH",
"180 788 OFFCURVE",
"143 767 OFFCURVE",
"140 746 CURVE",
"137 731 OFFCURVE",
"144 726 OFFCURVE",
"162 724 CURVE"
);
}
);
width = 157;
},
{
layerId = "7E45FD12-17AB-4855-B847-BB8C6CE14238";
name = Bold;
width = 600;
}
);
unicode = 00B2;
},
{
glyphname = threesuperior;
layers = (
{
layerId = "D303553C-E248-431D-BB32-0A8D4BAA17B9";
name = Regular;
paths = (
{
closed = 1;
nodes = (
"210 695 OFFCURVE",
"158 687 OFFCURVE",
"152 685 CURVE",
"152 684 LINE",
"151 678 OFFCURVE",
"152 673 OFFCURVE",
"152 668 CURVE",
"159 668 OFFCURVE",
"168 669 OFFCURVE",
"174 669 CURVE SMOOTH",
"197 669 OFFCURVE",
"210 646 OFFCURVE",
"206 625 CURVE",
"203 604 OFFCURVE",
"189 586 OFFCURVE",
"167 586 CURVE SMOOTH",
"145 586 OFFCURVE",
"145 604 OFFCURVE",
"145 623 CURVE",
"138 622 OFFCURVE",
"120 616 OFFCURVE",
"118 602 CURVE SMOOTH",
"116 588 OFFCURVE",
"123 568 OFFCURVE",
"167 568 CURVE SMOOTH",
"204 568 OFFCURVE",
"234 599 OFFCURVE",
"239 630 CURVE SMOOTH",
"243 653 OFFCURVE",
"231 676 OFFCURVE",
"203 684 CURVE",
"203 687 LINE",
"225 698 OFFCURVE",
"244 721 OFFCURVE",
"247 745 CURVE",
"251 767 OFFCURVE",
"235 788 OFFCURVE",
"208 788 CURVE SMOOTH",
"188 788 OFFCURVE",
"147 772 OFFCURVE",
"142 744 CURVE SMOOTH",
"140 732 OFFCURVE",
"149 727 OFFCURVE",
"164 726 CURVE",
"169 757 OFFCURVE",
"183 768 OFFCURVE",
"194 768 CURVE SMOOTH",
"211 768 OFFCURVE",
"219 753 OFFCURVE",
"216 737 CURVE"
);
}
);
width = 364;
},
{
layerId = "7E45FD12-17AB-4855-B847-BB8C6CE14238";
name = Bold;
width = 600;
}
);
unicode = 00B3;
},
{
glyphname = onesuperior;
layers = (
{
layerId = "D303553C-E248-431D-BB32-0A8D4BAA17B9";
name = Regular;
paths = (
{
closed = 1;
nodes = (
"204 781 LINE",
"199 781 LINE",
"145 767 LINE",
"142 753 LINE",
"170 753 LINE",
"151 633 LINE",
"119 625 LINE",
"115 611 LINE",
"208 611 LINE",
"213 626 LINE",
"181 632 LINE"
);
}
);
width = 134;
},
{
layerId = "7E45FD12-17AB-4855-B847-BB8C6CE14238";
name = Bold;
width = 600;
}
);
unicode = 00B9;
},
{
glyphname = twosuperior.001;
layers = (
{
layerId = "D303553C-E248-431D-BB32-0A8D4BAA17B9";
name = Regular;
paths = (
{
closed = 1;
nodes = (
"165 742 OFFCURVE",
"171 768 OFFCURVE",
"188 768 CURVE SMOOTH",
"206 768 OFFCURVE",
"212 752 OFFCURVE",
"208 732 CURVE",
"206 714 OFFCURVE",
"194 697 OFFCURVE",
"177 683 CURVE SMOOTH",
"116 631 LINE",
"114 612 LINE",
"221 612 LINE",
"230 638 LINE",
"150 638 LINE",
"177 659 LINE SMOOTH",
"218 691 OFFCURVE",
"237 706 OFFCURVE",
"243 740 CURVE SMOOTH",
"247 768 OFFCURVE",
"229 788 OFFCURVE",
"203 788 CURVE SMOOTH",
"180 788 OFFCURVE",
"143 767 OFFCURVE",
"140 746 CURVE",
"137 731 OFFCURVE",
"144 726 OFFCURVE",
"162 724 CURVE"
);
}
);
width = 157;
},
{
layerId = "7E45FD12-17AB-4855-B847-BB8C6CE14238";
name = Bold;
width = 600;
}
);
},
{
glyphname = threesuperior.001;
layers = (
{
layerId = "D303553C-E248-431D-BB32-0A8D4BAA17B9";
name = Regular;
paths = (
{
closed = 1;
nodes = (
"210 695 OFFCURVE",
"158 687 OFFCURVE",
"152 685 CURVE",
"152 684 LINE",
"151 678 OFFCURVE",
"152 673 OFFCURVE",
"152 668 CURVE",
"159 668 OFFCURVE",
"168 669 OFFCURVE",
"174 669 CURVE SMOOTH",
"197 669 OFFCURVE",
"210 646 OFFCURVE",
"206 625 CURVE",
"203 604 OFFCURVE",
"189 586 OFFCURVE",
"167 586 CURVE SMOOTH",
"145 586 OFFCURVE",
"145 604 OFFCURVE",
"145 623 CURVE",
"138 622 OFFCURVE",
"120 616 OFFCURVE",
"118 602 CURVE SMOOTH",
"116 588 OFFCURVE",
"123 568 OFFCURVE",
"167 568 CURVE SMOOTH",
"204 568 OFFCURVE",
"234 599 OFFCURVE",
"239 630 CURVE SMOOTH",
"243 653 OFFCURVE",
"231 676 OFFCURVE",
"203 684 CURVE",
"203 687 LINE",
"225 698 OFFCURVE",
"244 721 OFFCURVE",
"247 745 CURVE",
"251 767 OFFCURVE",
"235 788 OFFCURVE",
"208 788 CURVE SMOOTH",
"188 788 OFFCURVE",
"147 772 OFFCURVE",
"142 744 CURVE SMOOTH",
"140 732 OFFCURVE",
"149 727 OFFCURVE",
"164 726 CURVE",
"169 757 OFFCURVE",
"183 768 OFFCURVE",
"194 768 CURVE SMOOTH",
"211 768 OFFCURVE",
"219 753 OFFCURVE",
"216 737 CURVE"
);
}
);
width = 364;
},
{
layerId = "7E45FD12-17AB-4855-B847-BB8C6CE14238";
name = Bold;
width = 600;
}
);
},
{
glyphname = onesuperior.001;
layers = (
{
layerId = "D303553C-E248-431D-BB32-0A8D4BAA17B9";
name = Regular;
paths = (
{
closed = 1;
nodes = (
"204 781 LINE",
"199 781 LINE",
"145 767 LINE",
"142 753 LINE",
"170 753 LINE",
"151 633 LINE",
"119 625 LINE",
"115 611 LINE",
"208 611 LINE",
"213 626 LINE",
"181 632 LINE"
);
}
);
width = 134;
},
{
layerId = "7E45FD12-17AB-4855-B847-BB8C6CE14238";
name = Bold;
width = 600;
}
);
},
{
glyphname = asterisk;
layers = (
{
layerId = "D303553C-E248-431D-BB32-0A8D4BAA17B9";
name = Regular;
paths = (
{
closed = 1;
nodes = (
"496 419 LINE",
"387 558 LINE",
"351 527 LINE",
"417 377 LINE"
);
},
{
closed = 1;
nodes = (
"228 359 LINE",
"347 527 LINE",
"311 547 LINE",
"175 415 LINE"
);
},
{
closed = 1;
nodes = (
"130 584 LINE",
"311 549 LINE",
"325 592 LINE",
"175 661 LINE"
);
},
{
closed = 1;
nodes = (
"334 783 LINE",
"328 594 LINE",
"372 601 LINE",
"415 775 LINE"
);
},
{
closed = 1;
nodes = (
"559 680 LINE",
"373 599 LINE",
"387 560 LINE",
"564 599 LINE"
);
}
);
width = 508;
},
{
layerId = "7E45FD12-17AB-4855-B847-BB8C6CE14238";
name = Bold;
width = 600;
}
);
unicode = 002A;
},
{
glyphname = backslash;
layers = (
{
layerId = "D303553C-E248-431D-BB32-0A8D4BAA17B9";
name = Regular;
paths = (
{
closed = 1;
nodes = (
"184 748 LINE",
"105 753 LINE",
"233 -215 LINE",
"311 -220 LINE"
);
}
);
width = 332;
},
{
layerId = "7E45FD12-17AB-4855-B847-BB8C6CE14238";
name = Bold;
width = 600;
}
);
unicode = 005C;
},
{
glyphname = colon;
layers = (
{
layerId = "D303553C-E248-431D-BB32-0A8D4BAA17B9";
name = Regular;
paths = (
{
closed = 1;
nodes = (
"169 516 OFFCURVE",
"134 489 OFFCURVE",
"128 452 CURVE SMOOTH",
"122 413 OFFCURVE",
"147 381 OFFCURVE",
"185 381 CURVE SMOOTH",
"222 381 OFFCURVE",
"258 412 OFFCURVE",
"264 451 CURVE SMOOTH",
"270 488 OFFCURVE",
"243 516 OFFCURVE",
"206 516 CURVE SMOOTH"
);
},
{
closed = 1;
nodes = (
"109 136 OFFCURVE",
"74 108 OFFCURVE",
"68 72 CURVE SMOOTH",
"62 33 OFFCURVE",
"87 0 OFFCURVE",
"125 0 CURVE SMOOTH",
"162 0 OFFCURVE",
"198 32 OFFCURVE",
"204 71 CURVE SMOOTH",
"209 107 OFFCURVE",
"183 136 OFFCURVE",
"146 136 CURVE SMOOTH"
);
}
);
width = 245;
},
{
layerId = "7E45FD12-17AB-4855-B847-BB8C6CE14238";
name = Bold;
width = 600;
}
);
unicode = 003A;
},
{
glyphname = comma;
layers = (
{
layerId = "D303553C-E248-431D-BB32-0A8D4BAA17B9";
name = Regular;
paths = (
{
closed = 1;
nodes = (
"-4 -190 LINE",
"161 -148 OFFCURVE",
"209 -38 OFFCURVE",
"209 19 CURVE SMOOTH",
"209 111 OFFCURVE",
"161 132 OFFCURVE",
"119 132 CURVE SMOOTH",
"88 132 OFFCURVE",
"33 101 OFFCURVE",
"33 51 CURVE SMOOTH",
"33 36 OFFCURVE",
"34 31 OFFCURVE",
"37 18 CURVE",
"44 20 OFFCURVE",
"49 22 OFFCURVE",
"55 22 CURVE SMOOTH",
"98 22 OFFCURVE",
"116 -4 OFFCURVE",
"116 -37 CURVE SMOOTH",
"116 -76 OFFCURVE",
"70 -127 OFFCURVE",
"-11 -148 CURVE"
);
}
);
width = 221;
},
{
layerId = "7E45FD12-17AB-4855-B847-BB8C6CE14238";
name = Bold;
width = 600;
}
);
unicode = 002C;
},
{
glyphname = exclam;
layers = (
{
layerId = "D303553C-E248-431D-BB32-0A8D4BAA17B9";
name = Regular;
paths = (
{
closed = 1;
nodes = (
"208 220 LINE",
"255 415 OFFCURVE",
"311 657 OFFCURVE",
"327 759 CURVE SMOOTH",
"330 778 OFFCURVE",
"308 783 OFFCURVE",
"292 783 CURVE SMOOTH",
"270 783 OFFCURVE",
"215 776 OFFCURVE",
"208 759 CURVE",
"207 757 LINE",
"197 691 OFFCURVE",
"172 425 OFFCURVE",
"156 230 CURVE",
"156 228 LINE",
"208 216 LINE"
);
},
{
closed = 1;
nodes = (
"238 95 OFFCURVE",
"208 127 OFFCURVE",
"167 127 CURVE SMOOTH",
"127 127 OFFCURVE",
"87 96 OFFCURVE",
"80 56 CURVE SMOOTH",
"74 13 OFFCURVE",
"101 -22 OFFCURVE",
"143 -22 CURVE SMOOTH",
"185 -22 OFFCURVE",
"224 12 OFFCURVE",
"231 55 CURVE SMOOTH"
);
}
);
width = 294;
},
{
layerId = "7E45FD12-17AB-4855-B847-BB8C6CE14238";
name = Bold;
width = 600;
}
);
unicode = 0021;
},
{
glyphname = exclamdown;
layers = (
{
layerId = "D303553C-E248-431D-BB32-0A8D4BAA17B9";
name = Regular;
paths = (
{
closed = 1;
nodes = (
"172 323 LINE",
"125 128 OFFCURVE",
"67 -127 OFFCURVE",
"51 -229 CURVE SMOOTH",
"48 -248 OFFCURVE",
"70 -253 OFFCURVE",
"86 -253 CURVE SMOOTH",
"108 -253 OFFCURVE",
"163 -246 OFFCURVE",
"170 -229 CURVE",
"171 -227 LINE",
"181 -161 OFFCURVE",
"208 118 OFFCURVE",
"224 313 CURVE",
"224 315 LINE",
"172 327 LINE"
);
},
{
closed = 1;
nodes = (
"140 434 OFFCURVE",
"170 403 OFFCURVE",
"211 403 CURVE SMOOTH",
"251 403 OFFCURVE",
"291 433 OFFCURVE",
"298 474 CURVE SMOOTH",
"304 517 OFFCURVE",
"277 552 OFFCURVE",
"235 552 CURVE SMOOTH",
"193 552 OFFCURVE",
"154 518 OFFCURVE",
"147 475 CURVE SMOOTH"
);
}
);
width = 294;
},
{
layerId = "7E45FD12-17AB-4855-B847-BB8C6CE14238";
name = Bold;
width = 600;
}
);
unicode = 00A1;
},
{
glyphname = numbersign;
layers = (
{
layerId = "D303553C-E248-431D-BB32-0A8D4BAA17B9";
name = Regular;
paths = (
{
closed = 1;
nodes = (
"237 220 LINE",
"360 220 LINE",
"326 103 LINE",
"391 108 LINE",
"422 220 LINE",
"516 220 LINE",
"540 281 LINE",
"443 281 LINE",
"482 409 LINE",
"580 409 LINE",
"604 470 LINE",
"502 470 LINE",
"537 581 LINE",
"474 576 LINE",
"440 470 LINE",
"316 470 LINE",
"352 582 LINE",
"289 576 LINE",
"254 470 LINE",
"160 470 LINE",
"136 409 LINE",
"234 409 LINE",
"195 281 LINE",
"97 281 LINE",
"72 220 LINE",
"174 220 LINE",
"140 103 LINE",
"205 108 LINE"
);
},
{
closed = 1;
nodes = (
"257 281 LINE",
"296 409 LINE",
"420 409 LINE",
"380 281 LINE"
);
}
);
width = 569;
},
{
layerId = "7E45FD12-17AB-4855-B847-BB8C6CE14238";
name = Bold;
width = 600;
}
);
unicode = 0023;
},
{
glyphname = overline;
layers = (
{
layerId = "D303553C-E248-431D-BB32-0A8D4BAA17B9";
name = Regular;
paths = (
{
closed = 1;
nodes = (
"61 316 LINE",
"44 255 LINE",
"311 255 LINE",
"328 316 LINE"
);
},
{
closed = 1;
nodes = (
"166 170 LINE"
);
}
);
width = 345;
},
{
layerId = "7E45FD12-17AB-4855-B847-BB8C6CE14238";
name = Bold;
width = 600;
}
);
unicode = 203E;
},
{
glyphname = period;
layers = (
{
layerId = "D303553C-E248-431D-BB32-0A8D4BAA17B9";
name = Regular;
paths = (
{
closed = 1;
nodes = (
"94 129 OFFCURVE",
"56 93 OFFCURVE",
"56 44 CURVE SMOOTH",
"56 14 OFFCURVE",
"87 -20 OFFCURVE",
"120 -20 CURVE SMOOTH",
"166 -20 OFFCURVE",
"203 14 OFFCURVE",
"203 64 CURVE SMOOTH",
"203 97 OFFCURVE",
"180 129 OFFCURVE",
"141 129 CURVE SMOOTH"
);
}
);
width = 259;
},
{
layerId = "7E45FD12-17AB-4855-B847-BB8C6CE14238";
name = Bold;
width = 600;
}
);
unicode = 002E;
},
{
glyphname = periodcentered;
layers = (
{
layerId = "D303553C-E248-431D-BB32-0A8D4BAA17B9";
name = Regular;
paths = (
{
closed = 1;
nodes = (
"102 374 OFFCURVE",
"58 344 OFFCURVE",
"58 294 CURVE SMOOTH",
"58 252 OFFCURVE",
"78 231 OFFCURVE",
"118 231 CURVE SMOOTH",
"158 231 OFFCURVE",
"202 264 OFFCURVE",
"202 306 CURVE SMOOTH",
"202 344 OFFCURVE",
"181 374 OFFCURVE",
"141 374 CURVE SMOOTH"
);
}
);
width = 245;
},
{
layerId = "7E45FD12-17AB-4855-B847-BB8C6CE14238";
name = Bold;
width = 600;
}
);
unicode = 00B7;
},
{
glyphname = question;
layers = (
{
layerId = "D303553C-E248-431D-BB32-0A8D4BAA17B9";
name = Regular;
paths = (
{
closed = 1;
nodes = (
"122 665 OFFCURVE",
"143 639 OFFCURVE",
"161 631 CURVE",
"192 659 OFFCURVE",
"238 674 OFFCURVE",
"284 674 CURVE SMOOTH",
"320 674 OFFCURVE",
"375 625 OFFCURVE",
"367 569 CURVE SMOOTH",
"347 445 OFFCURVE",
"168 490 OFFCURVE",
"147 354 CURVE SMOOTH",
"139 305 OFFCURVE",
"160 246 OFFCURVE",
"173 222 CURVE",
"219 232 LINE",
"215 262 OFFCURVE",
"214 284 OFFCURVE",
"218 308 CURVE SMOOTH",
"233 398 OFFCURVE",
"403 377 OFFCURVE",
"426 521 CURVE SMOOTH",
"450 675 OFFCURVE",
"353 780 OFFCURVE",
"259 780 CURVE SMOOTH",
"164 780 OFFCURVE",
"132 730 OFFCURVE",
"127 698 CURVE SMOOTH"
);
},
{
closed = 1;
nodes = (
"250 95 OFFCURVE",
"220 127 OFFCURVE",
"179 127 CURVE SMOOTH",
"139 127 OFFCURVE",
"99 96 OFFCURVE",
"92 56 CURVE SMOOTH",
"86 13 OFFCURVE",
"113 -22 OFFCURVE",
"155 -22 CURVE SMOOTH",
"197 -22 OFFCURVE",
"236 12 OFFCURVE",
"243 55 CURVE SMOOTH"
);
}
);
width = 364;
},
{
layerId = "7E45FD12-17AB-4855-B847-BB8C6CE14238";
name = Bold;
width = 600;
}
);
unicode = 003F;
},
{
glyphname = questiondown;
layers = (
{
layerId = "D303553C-E248-431D-BB32-0A8D4BAA17B9";
name = Regular;
paths = (
{
closed = 1;
nodes = (
"241 -120 OFFCURVE",
"220 -93 OFFCURVE",
"202 -86 CURVE",
"171 -114 OFFCURVE",
"125 -129 OFFCURVE",
"79 -129 CURVE SMOOTH",
"43 -129 OFFCURVE",
"-11 -80 OFFCURVE",
"-3 -24 CURVE SMOOTH",
"16 99 OFFCURVE",
"195 55 OFFCURVE",
"216 191 CURVE SMOOTH",
"224 240 OFFCURVE",
"203 299 OFFCURVE",
"190 323 CURVE",
"144 313 LINE",
"148 283 OFFCURVE",
"149 261 OFFCURVE",
"145 237 CURVE SMOOTH",
"130 147 OFFCURVE",
"-39 168 OFFCURVE",
"-62 24 CURVE SMOOTH",
"-86 -130 OFFCURVE",
"10 -235 OFFCURVE",
"104 -235 CURVE SMOOTH",
"199 -235 OFFCURVE",
"231 -185 OFFCURVE",
"236 -153 CURVE SMOOTH"
);
},
{
closed = 1;
nodes = (
"113 449 OFFCURVE",
"143 418 OFFCURVE",
"184 418 CURVE SMOOTH",
"224 418 OFFCURVE",
"264 448 OFFCURVE",
"271 489 CURVE SMOOTH",
"277 532 OFFCURVE",
"250 567 OFFCURVE",
"208 567 CURVE SMOOTH",
"166 567 OFFCURVE",
"127 533 OFFCURVE",
"120 490 CURVE SMOOTH"
);
}
);
width = 364;
},
{
layerId = "7E45FD12-17AB-4855-B847-BB8C6CE14238";
name = Bold;
width = 600;
}
);
unicode = 00BF;
},
{
glyphname = quotedbl;
layers = (
{
layerId = "D303553C-E248-431D-BB32-0A8D4BAA17B9";
name = Regular;
paths = (
{
closed = 1;
nodes = (
"300 789 LINE",
"293 540 LINE",
"351 547 LINE",
"410 779 LINE"
);
},
{
closed = 1;
nodes = (
"174 789 LINE",
"167 540 LINE",
"225 547 LINE",
"284 779 LINE"
);
}
);
width = 337;
},
{
layerId = "7E45FD12-17AB-4855-B847-BB8C6CE14238";
name = Bold;
width = 600;
}
);
unicode = 0022;
},
{
glyphname = quotesingle;
layers = (
{
layerId = "D303553C-E248-431D-BB32-0A8D4BAA17B9";
name = Regular;
paths = (
{
closed = 1;
nodes = (
"184 789 LINE",
"177 540 LINE",
"235 547 LINE",
"294 779 LINE"
);
}
);
width = 231;
},
{
layerId = "7E45FD12-17AB-4855-B847-BB8C6CE14238";
name = Bold;
width = 600;
}
);
unicode = 0027;
},
{
glyphname = semicolon;
layers = (
{
layerId = "D303553C-E248-431D-BB32-0A8D4BAA17B9";
name = Regular;
paths = (
{
closed = 1;
nodes = (
"-24 -178 LINE",
"135 -139 OFFCURVE",
"195 -38 OFFCURVE",
"204 15 CURVE SMOOTH",
"217 101 OFFCURVE",
"177 120 OFFCURVE",
"138 120 CURVE SMOOTH",
"109 120 OFFCURVE",
"52 91 OFFCURVE",
"45 45 CURVE SMOOTH",
"43 32 OFFCURVE",
"43 26 OFFCURVE",
"44 14 CURVE",
"51 16 OFFCURVE",
"56 18 OFFCURVE",
"62 18 CURVE SMOOTH",
"102 18 OFFCURVE",
"114 -5 OFFCURVE",
"109 -36 CURVE SMOOTH",
"103 -73 OFFCURVE",
"54 -120 OFFCURVE",
"-25 -139 CURVE"
);
},
{
closed = 1;
nodes = (
"174 521 OFFCURVE",
"132 486 OFFCURVE",
"124 440 CURVE SMOOTH",
"119 410 OFFCURVE",
"144 377 OFFCURVE",
"175 377 CURVE SMOOTH",
"220 377 OFFCURVE",
"260 410 OFFCURVE",
"268 459 CURVE SMOOTH",
"273 490 OFFCURVE",
"256 521 OFFCURVE",
"219 521 CURVE SMOOTH"
);
}
);
width = 245;
},
{
layerId = "7E45FD12-17AB-4855-B847-BB8C6CE14238";
name = Bold;
width = 600;
}
);
unicode = 003B;
},
{
glyphname = slash;
layers = (
{
layerId = "D303553C-E248-431D-BB32-0A8D4BAA17B9";
name = Regular;
paths = (
{
closed = 1;
nodes = (
"266 748 LINE",
"-14 -220 LINE",
"64 -215 LINE",
"346 753 LINE"
);
}
);
width = 332;
},
{
layerId = "7E45FD12-17AB-4855-B847-BB8C6CE14238";
name = Bold;
width = 600;
}
);
unicode = 002F;
},
{
glyphname = underscore;
layers = (
{
layerId = "D303553C-E248-431D-BB32-0A8D4BAA17B9";
name = Regular;
paths = (
{
closed = 1;
nodes = (
"22 -16 LINE",
"5 -80 LINE",
"507 -80 LINE",
"524 -16 LINE"
);
}
);
width = 546;
},
{
layerId = "7E45FD12-17AB-4855-B847-BB8C6CE14238";
name = Bold;
width = 600;
}
);
unicode = 005F;
},
{
glyphname = braceleft;
layers = (
{
layerId = "D303553C-E248-431D-BB32-0A8D4BAA17B9";
name = Regular;
paths = (
{
closed = 1;
nodes = (
"322 -168 LINE",
"317 -229 LINE",
"280 -229 LINE SMOOTH",
"29 -229 OFFCURVE",
"297 203 OFFCURVE",
"127 231 CURVE SMOOTH",
"97 236 LINE",
"106 296 LINE",
"136 301 LINE SMOOTH",
"318 332 OFFCURVE",
"187 760 OFFCURVE",
"435 760 CURVE SMOOTH",
"471 760 LINE",
"456 700 LINE",
"432 696 LINE SMOOTH",
"325 679 OFFCURVE",
"407 321 OFFCURVE",
"217 269 CURVE",
"216 265 LINE",
"389 213 OFFCURVE",
"194 -148 OFFCURVE",
"302 -165 CURVE SMOOTH"
);
}
);
width = 404;
},
{
layerId = "7E45FD12-17AB-4855-B847-BB8C6CE14238";
name = Bold;
width = 600;
}
);
unicode = 007B;
},
{
glyphname = braceright;
layers = (
{
layerId = "D303553C-E248-431D-BB32-0A8D4BAA17B9";
name = Regular;
paths = (
{
closed = 1;
nodes = (
"28 -168 LINE",
"13 -229 LINE",
"50 -229 LINE SMOOTH",
"301 -229 OFFCURVE",
"171 203 OFFCURVE",
"349 231 CURVE SMOOTH",
"381 236 LINE",
"390 296 LINE",
"362 301 LINE SMOOTH",
"190 332 OFFCURVE",
"457 760 OFFCURVE",
"209 760 CURVE SMOOTH",
"173 760 LINE",
"168 700 LINE",
"192 696 LINE SMOOTH",
"293 679 OFFCURVE",
"97 321 OFFCURVE",
"271 269 CURVE",
"270 265 LINE",
"81 213 OFFCURVE",
"162 -148 OFFCURVE",
"48 -165 CURVE SMOOTH"
);
}
);
width = 404;
},
{
layerId = "7E45FD12-17AB-4855-B847-BB8C6CE14238";
name = Bold;
width = 600;
}
);
unicode = 007D;
},
{
glyphname = bracketleft;
layers = (
{
layerId = "D303553C-E248-431D-BB32-0A8D4BAA17B9";
name = Regular;
paths = (
{
closed = 1;
nodes = (
"221 -227 LINE",
"53 -228 LINE",
"211 760 LINE",
"375 760 LINE",
"373 706 LINE",
"286 694 LINE",
"152 -157 LINE",
"236 -169 LINE"
);
}
);
width = 293;
},
{
layerId = "7E45FD12-17AB-4855-B847-BB8C6CE14238";
name = Bold;
width = 600;
}
);
unicode = 005B;
},
{
glyphname = bracketright;
layers = (
{
layerId = "D303553C-E248-431D-BB32-0A8D4BAA17B9";
name = Regular;
paths = (
{
closed = 1;
nodes = (
"0 -227 LINE",
"166 -228 LINE",
"322 760 LINE",
"158 760 LINE",
"142 706 LINE",
"225 694 LINE",
"91 -157 LINE",
"3 -169 LINE"
);
}
);
width = 293;
},
{
layerId = "7E45FD12-17AB-4855-B847-BB8C6CE14238";
name = Bold;
width = 600;
}
);
unicode = 005D;
},
{
glyphname = parenleft;
layers = (
{
layerId = "D303553C-E248-431D-BB32-0A8D4BAA17B9";
name = Regular;
paths = (
{
closed = 1;
nodes = (
"242 -192 LINE",
"222 -148 OFFCURVE",
"141 24 OFFCURVE",
"181 276 CURVE SMOOTH",
"222 533 OFFCURVE",
"315 652 OFFCURVE",
"378 720 CURVE",
"354 760 LINE",
"308 726 OFFCURVE",
"123 588 OFFCURVE",
"72 270 CURVE SMOOTH",
"23 -42 OFFCURVE",
"168 -198 OFFCURVE",
"195 -227 CURVE"
);
}
);
width = 288;
},
{
layerId = "7E45FD12-17AB-4855-B847-BB8C6CE14238";
name = Bold;
width = 600;
}
);
unicode = 0028;
},
{
glyphname = parenright;
layers = (
{
layerId = "D303553C-E248-431D-BB32-0A8D4BAA17B9";
name = Regular;
paths = (
{
closed = 1;
nodes = (
"-15 -192 LINE",
"18 -148 OFFCURVE",
"153 24 OFFCURVE",
"193 276 CURVE SMOOTH",
"234 533 OFFCURVE",
"179 652 OFFCURVE",
"138 720 CURVE",
"174 760 LINE",
"208 726 OFFCURVE",
"351 588 OFFCURVE",
"300 270 CURVE SMOOTH",
"251 -42 OFFCURVE",
"56 -198 OFFCURVE",
"21 -227 CURVE"
);
}
);
width = 288;
},
{
layerId = "7E45FD12-17AB-4855-B847-BB8C6CE14238";
name = Bold;
width = 600;
}
);
unicode = 0029;
},
{
glyphname = braceleft.001;
layers = (
{
layerId = "D303553C-E248-431D-BB32-0A8D4BAA17B9";
name = Regular;
paths = (
{
closed = 1;
nodes = (
"322 -168 LINE",
"317 -229 LINE",
"280 -229 LINE SMOOTH",
"29 -229 OFFCURVE",
"297 203 OFFCURVE",
"127 231 CURVE SMOOTH",
"97 236 LINE",
"106 296 LINE",
"136 301 LINE SMOOTH",
"318 332 OFFCURVE",
"187 760 OFFCURVE",
"435 760 CURVE SMOOTH",
"471 760 LINE",
"456 700 LINE",
"432 696 LINE SMOOTH",
"325 679 OFFCURVE",
"407 321 OFFCURVE",
"217 269 CURVE",
"216 265 LINE",
"389 213 OFFCURVE",
"194 -148 OFFCURVE",
"302 -165 CURVE SMOOTH"
);
}
);
width = 404;
},
{
layerId = "7E45FD12-17AB-4855-B847-BB8C6CE14238";
name = Bold;
width = 600;
}
);
},
{
glyphname = braceright.001;
layers = (
{
layerId = "D303553C-E248-431D-BB32-0A8D4BAA17B9";
name = Regular;
paths = (
{
closed = 1;
nodes = (
"28 -168 LINE",
"13 -229 LINE",
"50 -229 LINE SMOOTH",
"301 -229 OFFCURVE",
"171 203 OFFCURVE",
"349 231 CURVE SMOOTH",
"381 236 LINE",
"390 296 LINE",
"362 301 LINE SMOOTH",
"190 332 OFFCURVE",
"457 760 OFFCURVE",
"209 760 CURVE SMOOTH",
"173 760 LINE",
"168 700 LINE",
"192 696 LINE SMOOTH",
"293 679 OFFCURVE",
"97 321 OFFCURVE",
"271 269 CURVE",
"270 265 LINE",
"81 213 OFFCURVE",
"162 -148 OFFCURVE",
"48 -165 CURVE SMOOTH"
);
}
);
width = 404;
},
{
layerId = "7E45FD12-17AB-4855-B847-BB8C6CE14238";
name = Bold;
width = 600;
}
);
},
{
glyphname = bracketleft.001;
layers = (
{
layerId = "D303553C-E248-431D-BB32-0A8D4BAA17B9";
name = Regular;
paths = (
{
closed = 1;
nodes = (
"221 -227 LINE",
"53 -228 LINE",
"211 760 LINE",
"375 760 LINE",
"373 706 LINE",
"286 694 LINE",
"152 -157 LINE",
"236 -169 LINE"
);
}
);
width = 293;
},
{
layerId = "7E45FD12-17AB-4855-B847-BB8C6CE14238";
name = Bold;
width = 600;
}
);
},
{
glyphname = bracketright.001;
layers = (
{
layerId = "D303553C-E248-431D-BB32-0A8D4BAA17B9";
name = Regular;
paths = (
{
closed = 1;
nodes = (
"0 -227 LINE",
"166 -228 LINE",
"322 760 LINE",
"158 760 LINE",
"142 706 LINE",
"225 694 LINE",
"91 -157 LINE",
"3 -169 LINE"
);
}
);
width = 293;
},
{
layerId = "7E45FD12-17AB-4855-B847-BB8C6CE14238";
name = Bold;
width = 600;
}
);
},
{
glyphname = parenleft.001;
layers = (
{
layerId = "D303553C-E248-431D-BB32-0A8D4BAA17B9";
name = Regular;
paths = (
{
closed = 1;
nodes = (
"242 -192 LINE",
"222 -148 OFFCURVE",
"141 24 OFFCURVE",
"181 276 CURVE SMOOTH",
"222 533 OFFCURVE",
"315 652 OFFCURVE",
"378 720 CURVE",
"354 760 LINE",
"308 726 OFFCURVE",
"123 588 OFFCURVE",
"72 270 CURVE SMOOTH",
"23 -42 OFFCURVE",
"168 -198 OFFCURVE",
"195 -227 CURVE"
);
}
);
width = 288;
},
{
layerId = "7E45FD12-17AB-4855-B847-BB8C6CE14238";
name = Bold;
width = 600;
}
);
},
{
glyphname = parenright.001;
layers = (
{
layerId = "D303553C-E248-431D-BB32-0A8D4BAA17B9";
name = Regular;
paths = (
{
closed = 1;
nodes = (
"-15 -192 LINE",
"18 -148 OFFCURVE",
"153 24 OFFCURVE",
"193 276 CURVE SMOOTH",
"234 533 OFFCURVE",
"179 652 OFFCURVE",
"138 720 CURVE",
"174 760 LINE",
"208 726 OFFCURVE",
"351 588 OFFCURVE",
"300 270 CURVE SMOOTH",
"251 -42 OFFCURVE",
"56 -198 OFFCURVE",
"21 -227 CURVE"
);
}
);
width = 288;
},
{
layerId = "7E45FD12-17AB-4855-B847-BB8C6CE14238";
name = Bold;
width = 600;
}
);
},
{
glyphname = emdash;
layers = (
{
layerId = "D303553C-E248-431D-BB32-0A8D4BAA17B9";
name = Regular;
paths = (
{
closed = 1;
nodes = (
"60 311 LINE",
"738 315 LINE",
"728 252 LINE",
"50 248 LINE"
);
}
);
width = 788;
}
);
unicode = 2014;
},
{
glyphname = endash;
layers = (
{
layerId = "D303553C-E248-431D-BB32-0A8D4BAA17B9";
name = Regular;
paths = (
{
closed = 1;
nodes = (
"60 311 LINE",
"430 315 LINE",
"420 252 LINE",
"50 248 LINE"
);
}
);
width = 480;
}
);
unicode = 2013;
},
{
glyphname = hyphen;
layers = (
{
layerId = "D303553C-E248-431D-BB32-0A8D4BAA17B9";
name = Regular;
paths = (
{
closed = 1;
nodes = (
"55 302 LINE",
"302 313 LINE",
"295 252 LINE",
"48 241 LINE"
);
}
);
width = 345;
}
);
unicode = 002D;
},
{
glyphname = softhyphen;
layers = (
{
layerId = "D303553C-E248-431D-BB32-0A8D4BAA17B9";
name = Regular;
paths = (
{
closed = 1;
nodes = (
"53 316 LINE",
"300 352 LINE",
"295 282 LINE",
"48 246 LINE"
);
}
);
width = 345;
}
);
unicode = 00AD;
},
{
glyphname = guillemotleft;
layers = (
{
layerId = "D303553C-E248-431D-BB32-0A8D4BAA17B9";
name = Regular;
paths = (
{
closed = 1;
nodes = (
"242 284 LINE",
"242 272 LINE",
"364 47 LINE",
"402 85 LINE",
"331 279 LINE",
"460 461 LINE",
"438 497 LINE"
);
},
{
closed = 1;
nodes = (
"92 284 LINE",
"92 272 LINE",
"214 47 LINE",
"252 85 LINE",
"181 279 LINE",
"310 461 LINE",
"288 497 LINE"
);
}
);
width = 437;
},
{
layerId = "7E45FD12-17AB-4855-B847-BB8C6CE14238";
name = Bold;
width = 600;
}
);
unicode = 00AB;
},
{
glyphname = guillemotright;
layers = (
{
layerId = "D303553C-E248-431D-BB32-0A8D4BAA17B9";
name = Regular;
paths = (
{
closed = 1;
nodes = (
"283 284 LINE",
"281 272 LINE",
"87 47 LINE",
"61 85 LINE",
"194 279 LINE",
"123 461 LINE",
"155 497 LINE"
);
},
{
closed = 1;
nodes = (
"433 284 LINE",
"431 272 LINE",
"237 47 LINE",
"211 85 LINE",
"344 279 LINE",
"273 461 LINE",
"305 497 LINE"
);
}
);
width = 437;
},
{
layerId = "7E45FD12-17AB-4855-B847-BB8C6CE14238";
name = Bold;
width = 600;
}
);
unicode = 00BB;
},
{
glyphname = guilsinglleft;
layers = (
{
layerId = "D303553C-E248-431D-BB32-0A8D4BAA17B9";
name = Regular;
paths = (
{
closed = 1;
nodes = (
"86 284 LINE",
"281 497 LINE",
"303 461 LINE",
"174 279 LINE",
"245 85 LINE",
"207 47 LINE",
"85 272 LINE"
);
}
);
width = 287;
},
{
layerId = "7E45FD12-17AB-4855-B847-BB8C6CE14238";
name = Bold;
width = 600;
}
);
unicode = 2039;
},
{
glyphname = guilsinglright;
layers = (
{
layerId = "D303553C-E248-431D-BB32-0A8D4BAA17B9";
name = Regular;
paths = (
{
closed = 1;
nodes = (
"277 284 LINE",
"148 497 LINE",
"116 461 LINE",
"187 279 LINE",
"54 85 LINE",
"80 47 LINE",
"274 272 LINE"
);
}
);
width = 287;
},
{
layerId = "7E45FD12-17AB-4855-B847-BB8C6CE14238";
name = Bold;
width = 600;
}
);
unicode = 203A;
},
{
glyphname = quotereversed;
layers = (
{
layerId = "D303553C-E248-431D-BB32-0A8D4BAA17B9";
name = Regular;
paths = (
{
closed = 1;
nodes = (
"213 501 CURVE",
"192 459 LINE",
"40 501 OFFCURVE",
"35 598 OFFCURVE",
"44 655 CURVE SMOOTH",
"58 746 OFFCURVE",
"128 781 OFFCURVE",
"170 781 CURVE SMOOTH",
"201 781 OFFCURVE",
"240 756 OFFCURVE",
"233 709 CURVE SMOOTH",
"231 698 OFFCURVE",
"226 686 OFFCURVE",
"218 672 CURVE",
"166 668 OFFCURVE",
"125 645 OFFCURVE",
"119 606 CURVE SMOOTH",
"113 567 OFFCURVE",
"137 522 OFFCURVE"
);
}
);
width = 225;
},
{
layerId = "7E45FD12-17AB-4855-B847-BB8C6CE14238";
name = Bold;
width = 600;
}
);
unicode = 201B;
},
{
glyphname = Euro;
layers = (
{
layerId = "D303553C-E248-431D-BB32-0A8D4BAA17B9";
name = Regular;
paths = (
{
closed = 1;
nodes = (
"512 105 CURVE",
"537 238 LINE",
"590 246 LINE",
"609 67 LINE",
"533 7 OFFCURVE",
"469 -15 OFFCURVE",
"370 -15 CURVE SMOOTH",
"201 -15 OFFCURVE",
"58 93 OFFCURVE",
"34 294 CURVE",
"-28 294 LINE",
"-17 358 LINE",
"30 358 LINE",
"30 372 OFFCURVE",
"31 386 OFFCURVE",
"32 400 CURVE",
"-24 400 LINE",
"-13 464 LINE",
"41 464 LINE",
"72 617 OFFCURVE",
"176 769 OFFCURVE",
"400 769 CURVE SMOOTH",
"480 769 OFFCURVE",
"541 752 OFFCURVE",
"599 708 CURVE",
"580 507 LINE",
"527 515 LINE",
"502 648 LINE",
"474 684 OFFCURVE",
"443 711 OFFCURVE",
"365 711 CURVE SMOOTH",
"254 711 OFFCURVE",
"179 620 OFFCURVE",
"163 464 CURVE",
"493 464 LINE",
"475 400 LINE",
"160 400 LINE",
"160 399 LINE SMOOTH",
"160 385 OFFCURVE",
"160 371 OFFCURVE",
"161 358 CURVE",
"465 358 LINE",
"447 294 LINE",
"168 294 LINE",
"193 134 OFFCURVE",
"280 51 OFFCURVE",
"400 51 CURVE SMOOTH",
"438 51 OFFCURVE",
"483 65 OFFCURVE"
);
}
);
width = 673;
}
);
unicode = 20AC;
},
{
glyphname = cent;
layers = (
{
layerId = "D303553C-E248-431D-BB32-0A8D4BAA17B9";
name = Regular;
paths = (
{
closed = 1;
nodes = (
"449 627 LINE",
"375 614 LINE",
"353 541 LINE",
"235 521 OFFCURVE",
"116 414 OFFCURVE",
"90 252 CURVE SMOOTH",
"73 140 OFFCURVE",
"110 41 OFFCURVE",
"192 0 CURVE",
"168 -81 LINE",
"242 -69 LINE",
"257 -17 LINE",
"263 -18 OFFCURVE",
"269 -18 OFFCURVE",
"276 -18 CURVE SMOOTH",
"360 -18 OFFCURVE",
"423 7 OFFCURVE",
"482 60 CURVE",
"480 76 OFFCURVE",
"476 90 OFFCURVE",
"474 94 CURVE",
"439 74 OFFCURVE",
"397 52 OFFCURVE",
"342 52 CURVE SMOOTH",
"320 52 OFFCURVE",
"297 56 OFFCURVE",
"281 63 CURVE",
"399 472 LINE",
"429 449 OFFCURVE",
"437 406 OFFCURVE",
"438 388 CURVE",
"490 392 OFFCURVE",
"518 415 OFFCURVE",
"524 451 CURVE SMOOTH",
"531 494 OFFCURVE",
"502 534 OFFCURVE",
"424 542 CURVE"
);
},
{
closed = 1;
nodes = (
"237 111 LINE",
"212 158 OFFCURVE",
"203 227 OFFCURVE",
"213 287 CURVE SMOOTH",
"229 390 OFFCURVE",
"283 471 OFFCURVE",
"343 486 CURVE"
);
}
);
width = 486;
},
{
layerId = "7E45FD12-17AB-4855-B847-BB8C6CE14238";
name = Bold;
width = 600;
}
);
unicode = 00A2;
},
{
glyphname = currency;
layers = (
{
layerId = "D303553C-E248-431D-BB32-0A8D4BAA17B9";
name = Regular;
paths = (
{
closed = 1;
nodes = (
"358 406 OFFCURVE",
"390 362 OFFCURVE",
"379 295 CURVE SMOOTH",
"369 232 OFFCURVE",
"324 190 OFFCURVE",
"266 190 CURVE SMOOTH",
"210 190 OFFCURVE",
"179 234 OFFCURVE",
"189 299 CURVE SMOOTH",
"199 363 OFFCURVE",
"243 406 OFFCURVE",
"299 406 CURVE SMOOTH"
);
},
{
closed = 1;
nodes = (
"78 154 LINE",
"121 102 LINE",
"176 156 LINE",
"199 141 OFFCURVE",
"229 131 OFFCURVE",
"253 131 CURVE SMOOTH",
"282 131 OFFCURVE",
"321 143 OFFCURVE",
"352 160 CURVE",
"391 105 LINE",
"452 155 LINE",
"403 207 LINE",
"423 230 OFFCURVE",
"439 266 OFFCURVE",
"444 297 CURVE SMOOTH",
"448 326 OFFCURVE",
"445 362 OFFCURVE",
"435 385 CURVE",
"494 430 LINE",
"456 483 LINE",
"401 435 LINE",
"380 453 OFFCURVE",
"344 465 OFFCURVE",
"311 465 CURVE SMOOTH",
"281 465 OFFCURVE",
"242 451 OFFCURVE",
"212 429 CURVE",
"174 482 LINE",
"115 432 LINE",
"161 380 LINE",
"143 358 OFFCURVE",
"129 324 OFFCURVE",
"124 296 CURVE SMOOTH",
"119 264 OFFCURVE",
"124 226 OFFCURVE",
"136 201 CURVE"
);
}
);
width = 471;
},
{
layerId = "7E45FD12-17AB-4855-B847-BB8C6CE14238";
name = Bold;
width = 600;
}
);
unicode = 00A4;
},
{
glyphname = dollar;
layers = (
{
layerId = "D303553C-E248-431D-BB32-0A8D4BAA17B9";
name = Regular;
paths = (
{
closed = 1;
nodes = (
"538 536 LINE",
"538 536 OFFCURVE",
"575 701 OFFCURVE",
"575 706 CURVE",
"535 748 OFFCURVE",
"486 764 OFFCURVE",
"437 768 CURVE",
"444 813 LINE",
"372 813 LINE",
"365 767 LINE",
"258 755 OFFCURVE",
"162 690 OFFCURVE",
"142 563 CURVE SMOOTH",
"123 442 OFFCURVE",
"211 372 OFFCURVE",
"295 319 CURVE",
"252 45 LINE",
"205 47 OFFCURVE",
"158 74 OFFCURVE",
"137 113 CURVE",
"125 228 LINE",
"76 236 LINE",
"42 74 LINE",
"81 18 OFFCURVE",
"144 -15 OFFCURVE",
"232 -15 CURVE SMOOTH",
"235 -15 LINE",
"224 -67 LINE",
"296 -67 LINE",
"305 -9 LINE",
"424 12 OFFCURVE",
"529 92 OFFCURVE",
"548 214 CURVE SMOOTH",
"566 328 OFFCURVE",
"463 385 OFFCURVE",
"377 442 CURVE",
"419 709 LINE",
"453 697 OFFCURVE",
"480 672 OFFCURVE",
"481 662 CURVE SMOOTH",
"493 546 LINE"
);
},
{
closed = 1;
nodes = (
"327 473 LINE",
"277 501 OFFCURVE",
"252 551 OFFCURVE",
"261 607 CURVE SMOOTH",
"272 678 OFFCURVE",
"315 710 OFFCURVE",
"367 716 CURVE"
);
},
{
closed = 1;
nodes = (
"346 299 LINE",
"396 265 OFFCURVE",
"436 222 OFFCURVE",
"428 176 CURVE SMOOTH",
"416 101 OFFCURVE",
"360 65 OFFCURVE",
"307 52 CURVE"
);
}
);
width = 541;
},
{
layerId = "7E45FD12-17AB-4855-B847-BB8C6CE14238";
name = Bold;
width = 600;
}
);
unicode = 0024;
},
{
glyphname = sterling;
layers = (
{
layerId = "D303553C-E248-431D-BB32-0A8D4BAA17B9";
name = Regular;
paths = (
{
closed = 1;
nodes = (
"662 733 LINE",
"617 753 OFFCURVE",
"573 757 OFFCURVE",
"524 757 CURVE SMOOTH",
"387 757 OFFCURVE",
"270 671 OFFCURVE",
"233 476 CURVE SMOOTH",
"218 393 LINE",
"114 387 LINE",
"97 326 LINE",
"206 332 LINE",
"197 279 LINE SMOOTH",
"180 189 OFFCURVE",
"169 134 OFFCURVE",
"140 73 CURVE",
"35 45 LINE",
"23 0 LINE",
"622 0 LINE",
"676 200 LINE",
"626 211 LINE",
"523 58 LINE",
"244 60 LINE",
"282 119 OFFCURVE",
"304 216 OFFCURVE",
"321 312 CURVE SMOOTH",
"326 336 LINE",
"454 344 LINE",
"471 405 LINE",
"336 397 LINE",
"341 426 LINE SMOOTH",
"377 628 OFFCURVE",
"407 693 OFFCURVE",
"508 693 CURVE SMOOTH",
"530 693 OFFCURVE",
"545 686 OFFCURVE",
"557 679 CURVE",
"562 550 LINE",
"612 542 LINE"
);
}
);
width = 645;
},
{
layerId = "7E45FD12-17AB-4855-B847-BB8C6CE14238";
name = Bold;
width = 600;
}
);
unicode = 00A3;
},
{
glyphname = yen;
layers = (
{
layerId = "D303553C-E248-431D-BB32-0A8D4BAA17B9";
name = Regular;
paths = (
{
closed = 1;
nodes = (
"361 286 LINE",
"349 209 LINE",
"168 209 LINE",
"150 145 LINE",
"338 145 LINE",
"327 73 LINE",
"232 45 LINE",
"219 0 LINE",
"526 0 LINE",
"539 49 LINE",
"443 69 LINE",
"455 145 LINE",
"644 145 LINE",
"662 209 LINE",
"466 209 LINE",
"478 286 LINE",
"669 286 LINE",
"686 350 LINE",
"502 350 LINE",
"709 684 LINE",
"787 707 LINE",
"801 753 LINE",
"561 753 LINE",
"547 707 LINE",
"639 682 LINE",
"460 388 LINE",
"380 684 LINE",
"463 707 LINE",
"478 753 LINE",
"195 753 LINE",
"179 707 LINE",
"259 682 LINE",
"352 350 LINE",
"192 350 LINE",
"175 286 LINE"
);
}
);
width = 733;
},
{
layerId = "7E45FD12-17AB-4855-B847-BB8C6CE14238";
name = Bold;
width = 600;
}
);
unicode = 00A5;
},
{
glyphname = asciitilde;
layers = (
{
layerId = "D303553C-E248-431D-BB32-0A8D4BAA17B9";
name = Regular;
paths = (
{
closed = 1;
nodes = (
"50 250 LINE",
"50 250 OFFCURVE",
"80 379 OFFCURVE",
"165 370 CURVE SMOOTH",
"435 343 LINE SMOOTH",
"458 340 OFFCURVE",
"487 380 OFFCURVE",
"487 380 CURVE",
"526 379 LINE",
"526 379 OFFCURVE",
"492 247 OFFCURVE",
"406 257 CURVE",
"136 284 LINE SMOOTH",
"110 287 OFFCURVE",
"83 242 OFFCURVE",
"83 242 CURVE"
);
}
);
width = 576;
},
{
layerId = "7E45FD12-17AB-4855-B847-BB8C6CE14238";
name = Bold;
width = 600;
}
);
unicode = 007E;
},
{
glyphname = divide;
layers = (
{
layerId = "D303553C-E248-431D-BB32-0A8D4BAA17B9";
name = Regular;
paths = (
{
closed = 1;
nodes = (
"372 547 CURVE SMOOTH",
"412 547 OFFCURVE",
"440 517 OFFCURVE",
"434 478 CURVE SMOOTH",
"427 437 OFFCURVE",
"389 404 OFFCURVE",
"349 404 CURVE SMOOTH",
"309 404 OFFCURVE",
"282 438 OFFCURVE",
"289 479 CURVE SMOOTH",
"295 518 OFFCURVE",
"333 547 OFFCURVE"
);
},
{
closed = 1;
nodes = (
"318 206 CURVE SMOOTH",
"358 206 OFFCURVE",
"386 176 OFFCURVE",
"380 137 CURVE SMOOTH",
"373 96 OFFCURVE",
"335 63 OFFCURVE",
"295 63 CURVE SMOOTH",
"255 63 OFFCURVE",
"228 97 OFFCURVE",
"235 138 CURVE SMOOTH",
"241 177 OFFCURVE",
"279 206 OFFCURVE"
);
},
{
closed = 1;
nodes = (
"101 339 LINE",
"593 339 LINE",
"576 275 LINE",
"84 275 LINE"
);
}
);
width = 599;
},
{
layerId = "7E45FD12-17AB-4855-B847-BB8C6CE14238";
name = Bold;
width = 600;
}
);
unicode = 00F7;
},
{
glyphname = emptyset;
layers = (
{
layerId = "D303553C-E248-431D-BB32-0A8D4BAA17B9";
name = Regular;
paths = (
{
closed = 1;
nodes = (
"137 268 CURVE SMOOTH",
"113 118 OFFCURVE",
"204 40 OFFCURVE",
"303 40 CURVE SMOOTH",
"417 40 OFFCURVE",
"512 116 OFFCURVE",
"536 269 CURVE SMOOTH",
"560 418 OFFCURVE",
"479 498 OFFCURVE",
"375 498 CURVE SMOOTH",
"261 498 OFFCURVE",
"159 408 OFFCURVE"
);
},
{
closed = 1;
nodes = (
"614 268 CURVE SMOOTH",
"589 112 OFFCURVE",
"461 -23 OFFCURVE",
"293 -23 CURVE SMOOTH",
"138 -23 OFFCURVE",
"32 92 OFFCURVE",
"60 269 CURVE SMOOTH",
"85 423 OFFCURVE",
"243 563 OFFCURVE",
"385 563 CURVE SMOOTH",
"554 563 OFFCURVE",
"640 432 OFFCURVE"
);
},
{
closed = 1;
nodes = (
"13 58 LINE",
"625 539 LINE",
"651 484 LINE",
"39 3 LINE"
);
}
);
width = 600;
},
{
layerId = "7E45FD12-17AB-4855-B847-BB8C6CE14238";
name = Bold;
width = 600;
}
);
unicode = 2205;
},
{
glyphname = equal;
layers = (
{
layerId = "D303553C-E248-431D-BB32-0A8D4BAA17B9";
name = Regular;
paths = (
{
closed = 1;
nodes = (
"67 257 LINE",
"439 257 LINE",
"422 193 LINE",
"50 193 LINE"
);
},
{
closed = 1;
nodes = (
"92 402 LINE",
"464 402 LINE",
"447 338 LINE",
"75 338 LINE"
);
}
);
width = 481;
},
{
layerId = "7E45FD12-17AB-4855-B847-BB8C6CE14238";
name = Bold;
width = 600;
}
);
unicode = 003D;
},
{
glyphname = greater;
layers = (
{
layerId = "D303553C-E248-431D-BB32-0A8D4BAA17B9";
name = Regular;
paths = (
{
closed = 1;
nodes = (
"443 259 LINE",
"58 -50 LINE",
"27 -8 LINE",
"302 275 LINE",
"126 546 LINE",
"167 589 LINE",
"445 276 LINE"
);
}
);
width = 414;
},
{
layerId = "7E45FD12-17AB-4855-B847-BB8C6CE14238";
name = Bold;
width = 600;
}
);
unicode = 003E;
},
{
glyphname = infinity;
layers = (
{
layerId = "D303553C-E248-431D-BB32-0A8D4BAA17B9";
name = Regular;
paths = (
{
closed = 1;
nodes = (
"206 437 CURVE SMOOTH",
"128 437 OFFCURVE",
"90 392 OFFCURVE",
"90 327 CURVE SMOOTH",
"90 265 OFFCURVE",
"159 219 OFFCURVE",
"228 219 CURVE SMOOTH",
"290 219 OFFCURVE",
"356 249 OFFCURVE",
"381 281 CURVE",
"321 367 OFFCURVE",
"268 437 OFFCURVE"
);
},
{
closed = 1;
nodes = (
"36 301 CURVE SMOOTH",
"36 435 OFFCURVE",
"125 529 OFFCURVE",
"231 529 CURVE SMOOTH",
"303 529 OFFCURVE",
"361 499 OFFCURVE",
"416 410 CURVE",
"422 411 LINE",
"479 487 OFFCURVE",
"542 526 OFFCURVE",
"618 526 CURVE SMOOTH",
"716 526 OFFCURVE",
"787 448 OFFCURVE",
"787 334 CURVE SMOOTH",
"787 220 OFFCURVE",
"693 123 OFFCURVE",
"582 124 CURVE SMOOTH",
"495 124 OFFCURVE",
"439 191 OFFCURVE",
"407 246 CURVE",
"402 246 LINE",
"347 159 OFFCURVE",
"280 123 OFFCURVE",
"215 123 CURVE SMOOTH",
"103 123 OFFCURVE",
"36 194 OFFCURVE"
);
},
{
closed = 1;
nodes = (
"640 219 CURVE SMOOTH",
"694 219 OFFCURVE",
"737 266 OFFCURVE",
"737 318 CURVE SMOOTH",
"737 386 OFFCURVE",
"664 430 OFFCURVE",
"594 430 CURVE SMOOTH",
"510 430 OFFCURVE",
"472 395 OFFCURVE",
"443 368 CURVE",
"496 275 OFFCURVE",
"569 219 OFFCURVE"
);
}
);
width = 844;
},
{
layerId = "7E45FD12-17AB-4855-B847-BB8C6CE14238";
name = Bold;
width = 600;
}
);
unicode = 221E;
},
{
glyphname = integral;
layers = (
{
layerId = "D303553C-E248-431D-BB32-0A8D4BAA17B9";
name = Regular;
paths = (
{
closed = 1;
nodes = (
"270 -37 LINE",
"251 -141 OFFCURVE",
"215 -169 OFFCURVE",
"170 -169 CURVE SMOOTH",
"132 -169 OFFCURVE",
"95 -125 OFFCURVE",
"76 -95 CURVE",
"55 -103 OFFCURVE",
"17 -133 OFFCURVE",
"11 -163 CURVE",
"3 -212 OFFCURVE",
"49 -233 OFFCURVE",
"113 -233 CURVE SMOOTH",
"199 -233 OFFCURVE",
"352 -162 OFFCURVE",
"389 71 CURVE SMOOTH",
"473 594 LINE",
"493 698 OFFCURVE",
"529 726 OFFCURVE",
"574 726 CURVE SMOOTH",
"612 726 OFFCURVE",
"649 682 OFFCURVE",
"668 652 CURVE",
"689 660 OFFCURVE",
"728 690 OFFCURVE",
"733 720 CURVE SMOOTH",
"741 769 OFFCURVE",
"695 790 OFFCURVE",
"631 790 CURVE SMOOTH",
"545 790 OFFCURVE",
"391 705 OFFCURVE",
"354 476 CURVE"
);
}
);
width = 582;
},
{
layerId = "7E45FD12-17AB-4855-B847-BB8C6CE14238";
name = Bold;
width = 600;
}
);
unicode = 222B;
},
{
glyphname = less;
layers = (
{
layerId = "D303553C-E248-431D-BB32-0A8D4BAA17B9";
name = Regular;
paths = (
{
closed = 1;
nodes = (
"66 259 LINE",
"353 -50 LINE",
"398 -8 LINE",
"211 275 LINE",
"473 546 LINE",
"446 589 LINE",
"70 276 LINE"
);
}
);
width = 414;
},
{
layerId = "7E45FD12-17AB-4855-B847-BB8C6CE14238";
name = Bold;
width = 600;
}
);
unicode = 003C;
},
{
glyphname = lessequal;
layers = (
{
components = (
{
name = minus;
transform = "{1, 0, 0, 1, -31, -410}";
}
);
layerId = "D303553C-E248-431D-BB32-0A8D4BAA17B9";
name = Regular;
paths = (
{
closed = 1;
nodes = (
"69 259 LINE",
"356 -50 LINE",
"401 -8 LINE",
"214 275 LINE",
"476 546 LINE",
"449 589 LINE",
"73 276 LINE"
);
}
);
width = 434;
},
{
layerId = "7E45FD12-17AB-4855-B847-BB8C6CE14238";
name = Bold;
width = 600;
}
);
unicode = 2264;
},
{
glyphname = logicalnot;
layers = (
{
layerId = "D303553C-E248-431D-BB32-0A8D4BAA17B9";
name = Regular;
paths = (
{
closed = 1;
nodes = (
"89 402 LINE",
"540 402 LINE",
"511 212 LINE",
"445 201 LINE",
"467 338 LINE",
"72 338 LINE"
);
}
);
width = 579;
},
{
layerId = "7E45FD12-17AB-4855-B847-BB8C6CE14238";
name = Bold;
width = 600;
}
);
unicode = 00AC;
},
{
glyphname = micro;
layers = (
{
layerId = "D303553C-E248-431D-BB32-0A8D4BAA17B9";
name = Regular;
paths = (
{
closed = 1;
nodes = (
"252 -12 OFFCURVE",
"312 47 OFFCURVE",
"329 79 CURVE",
"335 79 LINE",
"328 16 OFFCURVE",
"353 -9 OFFCURVE",
"406 -9 CURVE SMOOTH",
"439 -9 OFFCURVE",
"470 0 OFFCURVE",
"491 9 CURVE",
"502 51 LINE",
"462 58 LINE SMOOTH",
"434 63 OFFCURVE",
"427 80 OFFCURVE",
"450 224 CURVE SMOOTH",
"496 512 LINE",
"484 526 LINE",
"311 511 LINE",
"305 466 LINE",
"386 452 LINE",
"336 121 LINE",
"316 101 OFFCURVE",
"283 71 OFFCURVE",
"227 71 CURVE SMOOTH",
"186 71 OFFCURVE",
"167 100 OFFCURVE",
"182 191 CURVE SMOOTH",
"234 511 LINE",
"221 526 LINE",
"53 513 LINE",
"47 467 LINE",
"127 446 LINE",
"104 299 LINE SMOOTH",
"76 122 OFFCURVE",
"9 -203 OFFCURVE",
"6 -219 CURVE",
"81 -235 LINE",
"97 -61 LINE SMOOTH",
"101 -22 OFFCURVE",
"102 0 OFFCURVE",
"102 14 CURVE",
"107 14 LINE",
"119 -4 OFFCURVE",
"142 -12 OFFCURVE",
"180 -12 CURVE SMOOTH"
);
}
);
width = 525;
},
{
layerId = "7E45FD12-17AB-4855-B847-BB8C6CE14238";
name = Bold;
width = 600;
}
);
unicode = 00B5;
},
{
glyphname = minus;
layers = (
{
layerId = "D303553C-E248-431D-BB32-0A8D4BAA17B9";
name = Regular;
paths = (
{
closed = 1;
nodes = (
"70 311 LINE",
"441 315 LINE",
"421 252 LINE",
"50 248 LINE"
);
}
);
width = 480;
},
{
layerId = "7E45FD12-17AB-4855-B847-BB8C6CE14238";
name = Bold;
width = 600;
}
);
unicode = 2212;
},
{
glyphname = multiply;
layers = (
{
layerId = "D303553C-E248-431D-BB32-0A8D4BAA17B9";
name = Regular;
paths = (
{
closed = 1;
nodes = (
"187 235 LINE",
"72 138 LINE",
"40 188 LINE",
"148 280 LINE",
"70 375 LINE",
"126 415 LINE",
"204 322 LINE",
"320 419 LINE",
"351 368 LINE",
"242 277 LINE",
"323 180 LINE",
"266 140 LINE"
);
}
);
width = 345;
},
{
layerId = "7E45FD12-17AB-4855-B847-BB8C6CE14238";
name = Bold;
width = 600;
}
);
unicode = 00D7;
},
{
glyphname = notequal;
layers = (
{
layerId = "D303553C-E248-431D-BB32-0A8D4BAA17B9";
name = Regular;
paths = (
{
closed = 1;
nodes = (
"404 481 LINE",
"484 483 LINE",
"415 402 LINE",
"482 402 LINE",
"465 338 LINE",
"354 338 LINE",
"284 257 LINE",
"457 257 LINE",
"440 193 LINE",
"236 193 LINE",
"138 80 LINE",
"60 78 LINE",
"158 193 LINE",
"68 193 LINE",
"85 257 LINE",
"218 257 LINE",
"287 338 LINE",
"93 338 LINE",
"110 402 LINE",
"337 402 LINE"
);
}
);
width = 481;
},
{
layerId = "7E45FD12-17AB-4855-B847-BB8C6CE14238";
name = Bold;
width = 600;
}
);
unicode = 2260;
},
{
glyphname = partialdiff;
layers = (
{
layerId = "D303553C-E248-431D-BB32-0A8D4BAA17B9";
name = Regular;
paths = (
{
closed = 1;
nodes = (
"585 515 OFFCURVE",
"517 684 OFFCURVE",
"397 789 CURVE",
"330 789 LINE",
"387 720 OFFCURVE",
"442 581 OFFCURVE",
"455 489 CURVE",
"451 489 LINE",
"441 534 OFFCURVE",
"393 544 OFFCURVE",
"370 544 CURVE SMOOTH",
"249 544 OFFCURVE",
"124 452 OFFCURVE",
"96 273 CURVE SMOOTH",
"72 126 OFFCURVE",
"118 -16 OFFCURVE",
"275 -16 CURVE SMOOTH",
"398 -16 OFFCURVE",
"518 94 OFFCURVE",
"548 282 CURVE SMOOTH"
);
},
{
closed = 1;
nodes = (
"223 432 OFFCURVE",
"271 490 OFFCURVE",
"355 488 CURVE SMOOTH",
"419 486 OFFCURVE",
"468 399 OFFCURVE",
"445 257 CURVE SMOOTH",
"425 127 OFFCURVE",
"385 43 OFFCURVE",
"297 43 CURVE SMOOTH",
"219 43 OFFCURVE",
"178 137 OFFCURVE",
"202 302 CURVE"
);
}
);
width = 600;
},
{
layerId = "7E45FD12-17AB-4855-B847-BB8C6CE14238";
name = Bold;
width = 600;
}
);
unicode = 2202;
},
{
glyphname = percent;
layers = (
{
layerId = "D303553C-E248-431D-BB32-0A8D4BAA17B9";
name = Regular;
paths = (
{
closed = 1;
nodes = (
"477 128 CURVE SMOOTH",
"468 72 OFFCURVE",
"484 28 OFFCURVE",
"529 28 CURVE SMOOTH",
"580 28 OFFCURVE",
"601 71 OFFCURVE",
"610 129 CURVE SMOOTH",
"619 186 OFFCURVE",
"606 231 OFFCURVE",
"560 231 CURVE SMOOTH",
"508 231 OFFCURVE",
"485 182 OFFCURVE"
);
},
{
closed = 1;
nodes = (
"686 128 CURVE SMOOTH",
"673 48 OFFCURVE",
"592 -21 OFFCURVE",
"521 -21 CURVE SMOOTH",
"444 -21 OFFCURVE",
"387 39 OFFCURVE",
"401 129 CURVE SMOOTH",
"414 209 OFFCURVE",
"494 280 OFFCURVE",
"568 280 CURVE SMOOTH",
"654 280 OFFCURVE",
"699 213 OFFCURVE"
);
},
{
closed = 1;
nodes = (
"178 437 CURVE SMOOTH",
"169 381 OFFCURVE",
"185 338 OFFCURVE",
"230 338 CURVE SMOOTH",
"281 338 OFFCURVE",
"302 381 OFFCURVE",
"311 438 CURVE SMOOTH",
"320 495 OFFCURVE",
"307 540 OFFCURVE",
"261 540 CURVE SMOOTH",
"209 540 OFFCURVE",
"186 491 OFFCURVE"
);
},
{
closed = 1;
nodes = (
"387 438 CURVE SMOOTH",
"374 357 OFFCURVE",
"293 288 OFFCURVE",
"222 288 CURVE SMOOTH",
"145 288 OFFCURVE",
"89 348 OFFCURVE",
"103 439 CURVE SMOOTH",
"116 519 OFFCURVE",
"195 589 OFFCURVE",
"269 589 CURVE SMOOTH",
"355 589 OFFCURVE",
"400 523 OFFCURVE"
);
},
{
closed = 1;
nodes = (
"607 591 LINE",
"674 586 LINE",
"181 -23 LINE",
"109 -17 LINE"
);
}
);
width = 692;
},
{
layerId = "7E45FD12-17AB-4855-B847-BB8C6CE14238";
name = Bold;
width = 600;
}
);
unicode = 0025;
},
{
glyphname = perthousand;
layers = (
{
layerId = "D303553C-E248-431D-BB32-0A8D4BAA17B9";
name = Regular;
paths = (
{
closed = 1;
nodes = (
"477 128 CURVE SMOOTH",
"468 72 OFFCURVE",
"484 28 OFFCURVE",
"529 28 CURVE SMOOTH",
"580 28 OFFCURVE",
"601 71 OFFCURVE",
"610 129 CURVE SMOOTH",
"619 186 OFFCURVE",
"606 231 OFFCURVE",
"560 231 CURVE SMOOTH",
"508 231 OFFCURVE",
"485 182 OFFCURVE"
);
},
{
closed = 1;
nodes = (
"686 128 CURVE SMOOTH",
"673 48 OFFCURVE",
"592 -21 OFFCURVE",
"521 -21 CURVE SMOOTH",
"444 -21 OFFCURVE",
"387 39 OFFCURVE",
"401 129 CURVE SMOOTH",
"414 209 OFFCURVE",
"494 280 OFFCURVE",
"568 280 CURVE SMOOTH",
"654 280 OFFCURVE",
"699 213 OFFCURVE"
);
},
{
closed = 1;
nodes = (
"178 437 CURVE SMOOTH",
"169 381 OFFCURVE",
"185 338 OFFCURVE",
"230 338 CURVE SMOOTH",
"281 338 OFFCURVE",
"302 381 OFFCURVE",
"311 438 CURVE SMOOTH",
"320 495 OFFCURVE",
"307 540 OFFCURVE",
"261 540 CURVE SMOOTH",
"209 540 OFFCURVE",
"186 491 OFFCURVE"
);
},
{
closed = 1;
nodes = (
"387 438 CURVE SMOOTH",
"374 357 OFFCURVE",
"293 288 OFFCURVE",
"222 288 CURVE SMOOTH",
"145 288 OFFCURVE",
"89 348 OFFCURVE",
"103 439 CURVE SMOOTH",
"116 519 OFFCURVE",
"195 589 OFFCURVE",
"269 589 CURVE SMOOTH",
"355 589 OFFCURVE",
"400 523 OFFCURVE"
);
},
{
closed = 1;
nodes = (
"607 591 LINE",
"674 586 LINE",
"181 -23 LINE",
"109 -17 LINE"
);
},
{
closed = 1;
nodes = (
"808 128 CURVE SMOOTH",
"799 72 OFFCURVE",
"815 28 OFFCURVE",
"860 28 CURVE SMOOTH",
"911 28 OFFCURVE",
"932 71 OFFCURVE",
"941 129 CURVE SMOOTH",
"950 186 OFFCURVE",
"937 231 OFFCURVE",
"891 231 CURVE SMOOTH",
"839 231 OFFCURVE",
"816 182 OFFCURVE"
);
},
{
closed = 1;
nodes = (
"1017 128 CURVE SMOOTH",
"1004 48 OFFCURVE",
"923 -21 OFFCURVE",
"852 -21 CURVE SMOOTH",
"775 -21 OFFCURVE",
"718 39 OFFCURVE",
"732 129 CURVE SMOOTH",
"745 209 OFFCURVE",
"825 280 OFFCURVE",
"899 280 CURVE SMOOTH",
"985 280 OFFCURVE",
"1030 213 OFFCURVE"
);
}
);
width = 1023;
},
{
layerId = "7E45FD12-17AB-4855-B847-BB8C6CE14238";
name = Bold;
width = 600;
}
);
unicode = 2030;
},
{
glyphname = plus;
layers = (
{
layerId = "D303553C-E248-431D-BB32-0A8D4BAA17B9";
name = Regular;
paths = (
{
closed = 1;
nodes = (
"273 248 LINE",
"251 105 LINE",
"185 112 LINE",
"207 248 LINE",
"73 248 LINE",
"89 309 LINE",
"216 309 LINE",
"238 449 LINE",
"302 442 LINE",
"282 309 LINE",
"415 309 LINE",
"399 248 LINE"
);
}
);
width = 433;
},
{
layerId = "7E45FD12-17AB-4855-B847-BB8C6CE14238";
name = Bold;
width = 600;
}
);
unicode = 002B;
},
{
glyphname = product;
layers = (
{
layerId = "D303553C-E248-431D-BB32-0A8D4BAA17B9";
name = Regular;
paths = (
{
closed = 1;
nodes = (
"347 0 LINE",
"19 0 LINE",
"31 45 LINE",
"137 73 LINE",
"233 682 LINE",
"127 707 LINE",
"140 753 LINE",
"968 753 LINE",
"954 707 LINE",
"849 684 LINE",
"752 69 LINE",
"859 49 LINE",
"845 0 LINE",
"516 0 LINE",
"530 45 LINE",
"635 73 LINE",
"732 691 LINE",
"352 690 LINE",
"254 69 LINE",
"363 49 LINE"
);
}
);
width = 858;
},
{
layerId = "7E45FD12-17AB-4855-B847-BB8C6CE14238";
name = Bold;
width = 600;
}
);
unicode = 220F;
},
{
glyphname = radical;
layers = (
{
layerId = "D303553C-E248-431D-BB32-0A8D4BAA17B9";
name = Regular;
paths = (
{
closed = 1;
nodes = (
"237 -80 LINE",
"165 250 LINE",
"95 267 LINE",
"108 313 LINE",
"268 322 LINE",
"314 54 LINE",
"701 785 LINE",
"774 789 LINE",
"316 -69 LINE"
);
}
);
width = 636;
},
{
layerId = "7E45FD12-17AB-4855-B847-BB8C6CE14238";
name = Bold;
width = 600;
}
);
unicode = 221A;
},
{
glyphname = summation;
layers = (
{
layerId = "D303553C-E248-431D-BB32-0A8D4BAA17B9";
name = Regular;
paths = (
{
closed = 1;
nodes = (
"144 753 LINE",
"743 753 LINE",
"694 560 LINE",
"643 568 LINE",
"639 698 LINE",
"273 698 LINE",
"479 412 LINE",
"473 384 LINE",
"171 98 LINE",
"549 98 LINE",
"630 237 LINE",
"678 230 LINE",
"624 0 LINE",
"24 0 LINE",
"31 45 LINE",
"372 367 LINE",
"373 374 LINE",
"132 717 LINE"
);
}
);
width = 651;
},
{
layerId = "7E45FD12-17AB-4855-B847-BB8C6CE14238";
name = Bold;
width = 600;
}
);
unicode = 2211;
},
{
glyphname = ampersand;
layers = (
{
layerId = "D303553C-E248-431D-BB32-0A8D4BAA17B9";
name = Regular;
paths = (
{
closed = 1;
nodes = (
"746 438 LINE",
"853 461 LINE",
"866 507 LINE",
"594 507 LINE",
"581 461 LINE",
"679 436 LINE",
"548 256 LINE",
"405 427 LINE",
"406 434 LINE",
"479 474 OFFCURVE",
"567 533 OFFCURVE",
"579 612 CURVE SMOOTH",
"598 732 OFFCURVE",
"508 770 OFFCURVE",
"411 770 CURVE SMOOTH",
"307 770 OFFCURVE",
"206 680 OFFCURVE",
"192 590 CURVE SMOOTH",
"181 518 OFFCURVE",
"223 455 OFFCURVE",
"254 425 CURVE",
"171 382 OFFCURVE",
"59 308 OFFCURVE",
"41 190 CURVE SMOOTH",
"23 82 OFFCURVE",
"95 -12 OFFCURVE",
"229 -12 CURVE SMOOTH",
"365 -12 OFFCURVE",
"451 76 OFFCURVE",
"499 132 CURVE",
"557 56 OFFCURVE",
"618 -12 OFFCURVE",
"685 -12 CURVE SMOOTH",
"708 -12 OFFCURVE",
"732 -9 OFFCURVE",
"760 0 CURVE",
"775 42 LINE",
"756 48 LINE SMOOTH",
"704 64 OFFCURVE",
"615 174 OFFCURVE",
"584 214 CURVE"
);
},
{
closed = 1;
nodes = (
"286 381 LINE",
"463 171 LINE",
"447 148 OFFCURVE",
"368 64 OFFCURVE",
"277 64 CURVE SMOOTH",
"185 64 OFFCURVE",
"149 154 OFFCURVE",
"162 238 CURVE SMOOTH",
"172 303 OFFCURVE",
"231 354 OFFCURVE",
"276 382 CURVE"
);
},
{
closed = 1;
nodes = (
"338 499 OFFCURVE",
"285 562 OFFCURVE",
"294 620 CURVE SMOOTH",
"301 666 OFFCURVE",
"336 719 OFFCURVE",
"391 719 CURVE SMOOTH",
"455 719 OFFCURVE",
"484 662 OFFCURVE",
"474 598 CURVE SMOOTH",
"465 540 OFFCURVE",
"434 506 OFFCURVE",
"371 468 CURVE"
);
}
);
width = 770;
},
{
layerId = "7E45FD12-17AB-4855-B847-BB8C6CE14238";
name = Bold;
width = 600;
}
);
unicode = 0026;
},
{
glyphname = at;
layers = (
{
layerId = "D303553C-E248-431D-BB32-0A8D4BAA17B9";
name = Regular;
paths = (
{
closed = 1;
nodes = (
"454 154 LINE",
"432 130 OFFCURVE",
"400 109 OFFCURVE",
"368 109 CURVE SMOOTH",
"337 109 OFFCURVE",
"322 120 OFFCURVE",
"322 212 CURVE SMOOTH",
"322 304 OFFCURVE",
"372 426 OFFCURVE",
"442 426 CURVE SMOOTH",
"461 426 OFFCURVE",
"483 422 OFFCURVE",
"495 419 CURVE"
);
},
{
closed = 1;
nodes = (
"673 42 OFFCURVE",
"806 197 OFFCURVE",
"806 362 CURVE SMOOTH",
"806 528 OFFCURVE",
"670 632 OFFCURVE",
"500 632 CURVE SMOOTH",
"239 632 OFFCURVE",
"42 430 OFFCURVE",
"42 188 CURVE SMOOTH",
"42 -56 OFFCURVE",
"230 -138 OFFCURVE",
"415 -138 CURVE SMOOTH",
"539 -138 OFFCURVE",
"620 -86 OFFCURVE",
"670 -53 CURVE",
"675 -50 LINE",
"654 -12 LINE",
"648 -17 LINE",
"619 -37 OFFCURVE",
"525 -82 OFFCURVE",
"439 -82 CURVE SMOOTH",
"241 -82 OFFCURVE",
"136 26 OFFCURVE",
"136 206 CURVE SMOOTH",
"136 396 OFFCURVE",
"277 578 OFFCURVE",
"476 578 CURVE SMOOTH",
"619 578 OFFCURVE",
"724 498 OFFCURVE",
"724 338 CURVE SMOOTH",
"724 214 OFFCURVE",
"650 102 OFFCURVE",
"558 102 CURVE SMOOTH",
"534 102 OFFCURVE",
"545 161 OFFCURVE",
"556 233 CURVE SMOOTH",
"588 455 LINE",
"578 467 LINE",
"576 468 LINE",
"541 476 OFFCURVE",
"508 478 OFFCURVE",
"476 478 CURVE SMOOTH",
"374 478 OFFCURVE",
"226 360 OFFCURVE",
"226 186 CURVE SMOOTH",
"226 82 OFFCURVE",
"266 36 OFFCURVE",
"330 36 CURVE SMOOTH",
"376 36 OFFCURVE",
"421 77 OFFCURVE",
"446 113 CURVE",
"451 113 LINE",
"446 66 OFFCURVE",
"472 42 OFFCURVE",
"507 42 CURVE SMOOTH"
);
}
);
width = 824;
},
{
layerId = "7E45FD12-17AB-4855-B847-BB8C6CE14238";
name = Bold;
width = 600;
}
);
unicode = 0040;
},
{
glyphname = bar;
layers = (
{
layerId = "D303553C-E248-431D-BB32-0A8D4BAA17B9";
name = Regular;
paths = (
{
closed = 1;
nodes = (
"176 -220 LINE",
"330 753 LINE",
"261 760 LINE",
"107 -212 LINE"
);
}
);
width = 345;
},
{
layerId = "7E45FD12-17AB-4855-B847-BB8C6CE14238";
name = Bold;
width = 600;
}
);
unicode = 007C;
},
{
glyphname = brokenbar;
layers = (
{
layerId = "D303553C-E248-431D-BB32-0A8D4BAA17B9";
name = Regular;
paths = (
{
closed = 1;
nodes = (
"107 -212 LINE",
"173 -220 LINE",
"248 254 LINE",
"182 261 LINE"
);
},
{
closed = 1;
nodes = (
"192 327 LINE",
"255 320 LINE",
"327 753 LINE",
"261 760 LINE"
);
}
);
width = 345;
},
{
layerId = "7E45FD12-17AB-4855-B847-BB8C6CE14238";
name = Bold;
width = 600;
}
);
unicode = 00A6;
},
{
glyphname = copyright;
layers = (
{
layerId = "D303553C-E248-431D-BB32-0A8D4BAA17B9";
name = Regular;
paths = (
{
closed = 1;
nodes = (
"718 721 OFFCURVE",
"794 588 OFFCURVE",
"794 450 CURVE SMOOTH",
"794 187 OFFCURVE",
"610 41 OFFCURVE",
"420 41 CURVE SMOOTH",
"235 41 OFFCURVE",
"162 165 OFFCURVE",
"162 308 CURVE SMOOTH",
"162 574 OFFCURVE",
"344 721 OFFCURVE",
"529 721 CURVE SMOOTH"
);
},
{
closed = 1;
nodes = (
"863 619 OFFCURVE",
"766 776 OFFCURVE",
"537 776 CURVE SMOOTH",
"312 776 OFFCURVE",
"92 590 OFFCURVE",
"92 298 CURVE SMOOTH",
"92 139 OFFCURVE",
"185 -16 OFFCURVE",
"406 -16 CURVE SMOOTH",
"639 -16 OFFCURVE",
"863 150 OFFCURVE",
"863 463 CURVE SMOOTH"
);
},
{
closed = 1;
nodes = (
"407 219 OFFCURVE",
"384 268 OFFCURVE",
"384 337 CURVE SMOOTH",
"384 482 OFFCURVE",
"449 574 OFFCURVE",
"498 574 CURVE SMOOTH",
"526 574 OFFCURVE",
"535 526 OFFCURVE",
"537 493 CURVE",
"574 496 OFFCURVE",
"607 515 OFFCURVE",
"607 549 CURVE SMOOTH",
"607 592 OFFCURVE",
"576 621 OFFCURVE",
"523 621 CURVE SMOOTH",
"437 621 OFFCURVE",
"299 508 OFFCURVE",
"299 326 CURVE SMOOTH",
"299 219 OFFCURVE",
"349 158 OFFCURVE",
"430 158 CURVE SMOOTH",
"478 158 OFFCURVE",
"533 187 OFFCURVE",
"563 225 CURVE",
"551 251 LINE",
"527 233 OFFCURVE",
"501 219 OFFCURVE",
"460 219 CURVE SMOOTH"
);
}
);
width = 837;
},
{
layerId = "7E45FD12-17AB-4855-B847-BB8C6CE14238";
name = Bold;
width = 600;
}
);
unicode = 00A9;
},
{
glyphname = dagger;
layers = (
{
layerId = "D303553C-E248-431D-BB32-0A8D4BAA17B9";
name = Regular;
paths = (
{
closed = 1;
nodes = (
"427 496 LINE",
"613 501 LINE",
"597 427 LINE",
"418 434 LINE",
"323 -220 LINE",
"236 -212 LINE",
"348 435 LINE",
"163 431 LINE",
"178 501 LINE",
"357 496 LINE",
"394 760 LINE",
"474 753 LINE"
);
}
);
width = 559;
},
{
layerId = "7E45FD12-17AB-4855-B847-BB8C6CE14238";
name = Bold;
width = 600;
}
);
unicode = 2020;
},
{
glyphname = daggerdbl;
layers = (
{
layerId = "D303553C-E248-431D-BB32-0A8D4BAA17B9";
name = Regular;
paths = (
{
closed = 1;
nodes = (
"384 260 LINE",
"417 434 LINE",
"595 427 LINE",
"611 501 LINE",
"426 496 LINE",
"473 753 LINE",
"393 760 LINE",
"356 496 LINE",
"178 501 LINE",
"163 431 LINE",
"347 435 LINE",
"328 302 LINE",
"292 106 LINE",
"123 113 LINE",
"107 39 LINE",
"282 44 LINE",
"235 -213 LINE",
"315 -220 LINE",
"352 44 LINE",
"536 39 LINE",
"551 109 LINE",
"361 105 LINE"
);
}
);
width = 559;
},
{
layerId = "7E45FD12-17AB-4855-B847-BB8C6CE14238";
name = Bold;
width = 600;
}
);
unicode = 2021;
},
{
glyphname = degree;
layers = (
{
layerId = "D303553C-E248-431D-BB32-0A8D4BAA17B9";
name = Regular;
paths = (
{
closed = 1;
nodes = (
"273 749 OFFCURVE",
"287 710 OFFCURVE",
"281 672 CURVE SMOOTH",
"274 628 OFFCURVE",
"251 603 OFFCURVE",
"218 603 CURVE SMOOTH",
"179 603 OFFCURVE",
"167 644 OFFCURVE",
"172 681 CURVE",
"178 715 OFFCURVE",
"199 749 OFFCURVE",
"235 749 CURVE SMOOTH"
);
},
{
closed = 1;
nodes = (
"190 778 OFFCURVE",
"137 730 OFFCURVE",
"128 674 CURVE SMOOTH",
"118 612 OFFCURVE",
"150 574 OFFCURVE",
"206 574 CURVE SMOOTH",
"268 574 OFFCURVE",
"316 625 OFFCURVE",
"325 680 CURVE SMOOTH",
"334 737 OFFCURVE",
"305 778 OFFCURVE",
"247 778 CURVE SMOOTH"
);
}
);
width = 245;
},
{
layerId = "7E45FD12-17AB-4855-B847-BB8C6CE14238";
name = Bold;
width = 600;
}
);
unicode = 00B0;
},
{
glyphname = lozenge;
layers = (
{
layerId = "D303553C-E248-431D-BB32-0A8D4BAA17B9";
name = Regular;
paths = (
{
closed = 1;
nodes = (
"514 286 LINE",
"287 82 LINE",
"122 287 LINE",
"350 484 LINE"
);
}
);
width = 572;
},
{
layerId = "7E45FD12-17AB-4855-B847-BB8C6CE14238";
name = Bold;
width = 600;
}
);
unicode = 25CA;
},
{
glyphname = paragraph;
layers = (
{
layerId = "D303553C-E248-431D-BB32-0A8D4BAA17B9";
name = Regular;
paths = (
{
closed = 1;
nodes = (
"634 687 LINE",
"656 682 LINE",
"559 73 LINE",
"535 67 LINE",
"522 69 LINE",
"620 684 LINE"
);
},
{
closed = 1;
nodes = (
"868 753 LINE",
"417 754 LINE SMOOTH",
"270 754 OFFCURVE",
"108 646 OFFCURVE",
"108 476 CURVE SMOOTH",
"108 330 OFFCURVE",
"220 291 OFFCURVE",
"378 291 CURVE SMOOTH",
"404 291 OFFCURVE",
"431 292 OFFCURVE",
"457 294 CURVE",
"422 73 LINE",
"317 45 LINE",
"305 0 LINE",
"744 0 LINE",
"757 49 LINE",
"650 69 LINE",
"748 684 LINE",
"854 707 LINE"
);
},
{
closed = 1;
nodes = (
"466 351 LINE",
"463 354 LINE",
"463 354 OFFCURVE",
"423 350 OFFCURVE",
"398 350 CURVE SMOOTH",
"266 350 OFFCURVE",
"236 426 OFFCURVE",
"236 496 CURVE SMOOTH",
"236 634 OFFCURVE",
"327 699 OFFCURVE",
"457 699 CURVE SMOOTH",
"463 699 OFFCURVE",
"496 699 OFFCURVE",
"521 698 CURVE"
);
}
);
width = 839;
},
{
layerId = "7E45FD12-17AB-4855-B847-BB8C6CE14238";
name = Bold;
width = 600;
}
);
unicode = 00B6;
},
{
glyphname = registered;
layers = (
{
layerId = "D303553C-E248-431D-BB32-0A8D4BAA17B9";
name = Regular;
paths = (
{
closed = 1;
nodes = (
"384 735 OFFCURVE",
"348 792 OFFCURVE",
"265 792 CURVE SMOOTH",
"184 792 OFFCURVE",
"105 729 OFFCURVE",
"105 616 CURVE SMOOTH",
"105 561 OFFCURVE",
"138 507 OFFCURVE",
"217 507 CURVE SMOOTH",
"302 507 OFFCURVE",
"384 568 OFFCURVE",
"384 676 CURVE SMOOTH"
);
},
{
closed = 1;
nodes = (
"330 773 OFFCURVE",
"360 726 OFFCURVE",
"360 674 CURVE SMOOTH",
"360 577 OFFCURVE",
"291 527 OFFCURVE",
"222 527 CURVE SMOOTH",
"156 527 OFFCURVE",
"130 574 OFFCURVE",
"130 622 CURVE SMOOTH",
"130 718 OFFCURVE",
"195 773 OFFCURVE",
"262 773 CURVE SMOOTH"
);
},
{
closed = 1;
nodes = (
"225 657 LINE",
"234 717 LINE",
"234 717 OFFCURVE",
"239 718 OFFCURVE",
"243 718 CURVE SMOOTH",
"262 718 OFFCURVE",
"272 710 OFFCURVE",
"272 694 CURVE SMOOTH",
"272 675 OFFCURVE",
"260 657 OFFCURVE",
"246 657 CURVE SMOOTH"
);
},
{
closed = 1;
nodes = (
"303 722 OFFCURVE",
"289 732 OFFCURVE",
"242 732 CURVE SMOOTH",
"228 732 OFFCURVE",
"208 730 OFFCURVE",
"188 728 CURVE",
"185 717 LINE",
"206 713 LINE",
"187 593 LINE",
"165 588 LINE",
"162 577 LINE",
"232 577 LINE",
"235 588 LINE",
"215 594 LINE",
"222 642 LINE",
"241 642 LINE",
"256 608 LINE SMOOTH",
"264 589 OFFCURVE",
"277 575 OFFCURVE",
"296 575 CURVE SMOOTH",
"301 575 OFFCURVE",
"305 575 OFFCURVE",
"311 577 CURVE",
"316 588 LINE",
"312 589 LINE",
"298 595 OFFCURVE",
"290 605 OFFCURVE",
"282 621 CURVE",
"263 654 LINE",
"288 664 OFFCURVE",
"303 682 OFFCURVE",
"303 698 CURVE SMOOTH"
);
}
);
width = 284;
},
{
layerId = "7E45FD12-17AB-4855-B847-BB8C6CE14238";
name = Bold;
width = 600;
}
);
unicode = 00AE;
},
{
glyphname = section;
layers = (
{
layerId = "D303553C-E248-431D-BB32-0A8D4BAA17B9";
name = Regular;
paths = (
{
closed = 1;
nodes = (
"125 479 LINE",
"124 474 OFFCURVE",
"121 459 OFFCURVE",
"120 452 CURVE SMOOTH",
"91 269 OFFCURVE",
"366 247 OFFCURVE",
"349 143 CURVE SMOOTH",
"336 61 OFFCURVE",
"261 38 OFFCURVE",
"210 38 CURVE SMOOTH",
"172 38 OFFCURVE",
"138 61 OFFCURVE",
"120 92 CURVE",
"112 187 LINE",
"68 193 LINE",
"40 62 LINE",
"72 17 OFFCURVE",
"125 -9 OFFCURVE",
"195 -9 CURVE SMOOTH",
"307 -9 OFFCURVE",
"427 61 OFFCURVE",
"445 174 CURVE SMOOTH",
"458 256 OFFCURVE",
"394 304 OFFCURVE",
"330 345 CURVE SMOOTH"
);
},
{
closed = 1;
nodes = (
"460 285 LINE",
"464 296 OFFCURVE",
"466 303 OFFCURVE",
"469 316 CURVE",
"495 480 OFFCURVE",
"216 491 OFFCURVE",
"238 630 CURVE SMOOTH",
"248 693 OFFCURVE",
"286 718 OFFCURVE",
"335 718 CURVE SMOOTH",
"377 718 OFFCURVE",
"409 685 OFFCURVE",
"411 674 CURVE",
"419 579 LINE",
"460 571 LINE",
"460 571 OFFCURVE",
"489 705 OFFCURVE",
"490 709 CURVE",
"452 749 OFFCURVE",
"398 760 OFFCURVE",
"356 760 CURVE SMOOTH",
"261 760 OFFCURVE",
"162 709 OFFCURVE",
"144 595 CURVE SMOOTH",
"127 490 OFFCURVE",
"212 443 OFFCURVE",
"282 397 CURVE SMOOTH"
);
}
);
width = 445;
},
{
layerId = "7E45FD12-17AB-4855-B847-BB8C6CE14238";
name = Bold;
width = 600;
}
);
unicode = 00A7;
},
{
glyphname = trademark;
layers = (
{
layerId = "D303553C-E248-431D-BB32-0A8D4BAA17B9";
name = Regular;
paths = (
{
closed = 1;
nodes = (
"31 798 LINE",
"209 798 LINE",
"194 742 LINE",
"177 744 LINE",
"177 781 LINE",
"136 781 LINE",
"110 621 LINE",
"140 616 LINE",
"135 600 LINE",
"39 600 LINE",
"42 615 LINE",
"70 622 LINE",
"96 781 LINE",
"57 781 LINE",
"41 742 LINE",
"25 744 LINE"
);
},
{
closed = 1;
nodes = (
"305 605 LINE",
"273 754 LINE",
"242 621 LINE",
"271 616 LINE",
"266 600 LINE",
"186 600 LINE",
"189 615 LINE",
"217 622 LINE",
"254 777 LINE",
"225 783 LINE",
"229 798 LINE",
"304 798 LINE",
"312 767 LINE",
"335 649 LINE",
"404 773 LINE",
"419 798 LINE",
"493 798 LINE",
"489 783 LINE",
"461 777 LINE",
"445 621 LINE",
"474 616 LINE",
"469 600 LINE",
"377 600 LINE",
"381 615 LINE",
"408 622 LINE",
"421 760 LINE",
"336 608 LINE"
);
}
);
width = 481;
},
{
layerId = "7E45FD12-17AB-4855-B847-BB8C6CE14238";
name = Bold;
width = 600;
}
);
unicode = 2122;
},
{
glyphname = ampersand.001;
layers = (
{
layerId = "D303553C-E248-431D-BB32-0A8D4BAA17B9";
name = Regular;
paths = (
{
closed = 1;
nodes = (
"746 438 LINE",
"853 461 LINE",
"866 507 LINE",
"594 507 LINE",
"581 461 LINE",
"679 436 LINE",
"548 256 LINE",
"405 427 LINE",
"406 434 LINE",
"479 474 OFFCURVE",
"567 533 OFFCURVE",
"579 612 CURVE SMOOTH",
"598 732 OFFCURVE",
"508 770 OFFCURVE",
"411 770 CURVE SMOOTH",
"307 770 OFFCURVE",
"206 680 OFFCURVE",
"192 590 CURVE SMOOTH",
"181 518 OFFCURVE",
"223 455 OFFCURVE",
"254 425 CURVE",
"171 382 OFFCURVE",
"59 308 OFFCURVE",
"41 190 CURVE SMOOTH",
"23 82 OFFCURVE",
"95 -12 OFFCURVE",
"229 -12 CURVE SMOOTH",
"365 -12 OFFCURVE",
"451 76 OFFCURVE",
"499 132 CURVE",
"557 56 OFFCURVE",
"618 -12 OFFCURVE",
"685 -12 CURVE SMOOTH",
"708 -12 OFFCURVE",
"732 -9 OFFCURVE",
"760 0 CURVE",
"775 42 LINE",
"756 48 LINE SMOOTH",
"704 64 OFFCURVE",
"615 174 OFFCURVE",
"584 214 CURVE"
);
},
{
closed = 1;
nodes = (
"286 381 LINE",
"463 171 LINE",
"447 148 OFFCURVE",
"368 64 OFFCURVE",
"277 64 CURVE SMOOTH",
"185 64 OFFCURVE",
"149 154 OFFCURVE",
"162 238 CURVE SMOOTH",
"172 303 OFFCURVE",
"231 354 OFFCURVE",
"276 382 CURVE"
);
},
{
closed = 1;
nodes = (
"338 499 OFFCURVE",
"285 562 OFFCURVE",
"294 620 CURVE SMOOTH",
"301 666 OFFCURVE",
"336 719 OFFCURVE",
"391 719 CURVE SMOOTH",
"455 719 OFFCURVE",
"484 662 OFFCURVE",
"474 598 CURVE SMOOTH",
"465 540 OFFCURVE",
"434 506 OFFCURVE",
"371 468 CURVE"
);
}
);
width = 770;
},
{
layerId = "7E45FD12-17AB-4855-B847-BB8C6CE14238";
name = Bold;
width = 600;
}
);
},
{
glyphname = asciicircum;
layers = (
{
layerId = "D303553C-E248-431D-BB32-0A8D4BAA17B9";
name = Regular;
paths = (
{
closed = 1;
nodes = (
"361 757 LINE",
"327 749 LINE",
"113 500 LINE",
"140 480 LINE",
"318 650 LINE",
"324 650 LINE",
"462 477 LINE",
"500 499 LINE"
);
}
);
width = 455;
},
{
layerId = "7E45FD12-17AB-4855-B847-BB8C6CE14238";
name = Bold;
width = 600;
}
);
unicode = 005E;
},
{
glyphname = asciicircum.001;
layers = (
{
layerId = "D303553C-E248-431D-BB32-0A8D4BAA17B9";
name = Regular;
paths = (
{
closed = 1;
nodes = (
"361 757 LINE",
"327 749 LINE",
"113 500 LINE",
"140 480 LINE",
"318 650 LINE",
"324 650 LINE",
"462 477 LINE",
"500 499 LINE"
);
}
);
width = 455;
},
{
layerId = "7E45FD12-17AB-4855-B847-BB8C6CE14238";
name = Bold;
width = 600;
}
);
},
{
glyphname = acute;
layers = (
{
anchors = (
{
name = _top;
position = "{125, 753}";
}
);
layerId = "D303553C-E248-431D-BB32-0A8D4BAA17B9";
name = Regular;
paths = (
{
closed = 1;
nodes = (
"281 1009 LINE",
"170 817 LINE",
"139 836 LINE",
"213 1033 LINE"
);
}
);
width = 375;
},
{
layerId = "7E45FD12-17AB-4855-B847-BB8C6CE14238";
name = Bold;
width = 600;
}
);
unicode = 00B4;
},
{
glyphname = breve;
layers = (
{
anchors = (
{
name = _top;
position = "{189, 753}";
}
);
layerId = "D303553C-E248-431D-BB32-0A8D4BAA17B9";
name = Regular;
paths = (
{
closed = 1;
nodes = (
"73 940 LINE",
"101 959 LINE",
"106 949 LINE SMOOTH",
"118 925 OFFCURVE",
"147 898 OFFCURVE",
"188 898 CURVE SMOOTH",
"231 898 OFFCURVE",
"258 924 OFFCURVE",
"274 950 CURVE SMOOTH",
"280 960 LINE",
"305 943 LINE",
"301 931 LINE SMOOTH",
"285 882 OFFCURVE",
"248 832 OFFCURVE",
"188 832 CURVE SMOOTH",
"124 832 OFFCURVE",
"88 881 OFFCURVE",
"76 928 CURVE SMOOTH"
);
}
);
width = 382;
},
{
layerId = "7E45FD12-17AB-4855-B847-BB8C6CE14238";
name = Bold;
width = 600;
}
);
unicode = 02D8;
},
{
glyphname = caron;
layers = (
{
anchors = (
{
name = _top;
position = "{198, 753}";
}
);
layerId = "D303553C-E248-431D-BB32-0A8D4BAA17B9";
name = Regular;
paths = (
{
closed = 1;
nodes = (
"184 822 LINE",
"75 922 LINE",
"124 959 LINE",
"214 872 LINE",
"220 872 LINE",
"295 957 LINE",
"321 939 LINE",
"217 830 LINE"
);
}
);
width = 396;
},
{
layerId = "7E45FD12-17AB-4855-B847-BB8C6CE14238";
name = Bold;
width = 600;
}
);
unicode = 02C7;
},
{
glyphname = cedilla;
layers = (
{
anchors = (
{
name = _bottom;
position = "{137, 0}";
}
);
layerId = "D303553C-E248-431D-BB32-0A8D4BAA17B9";
name = Regular;
paths = (
{
closed = 1;
nodes = (
"129 -46 LINE",
"152 -66 OFFCURVE",
"183 -96 OFFCURVE",
"183 -137 CURVE SMOOTH",
"183 -185 OFFCURVE",
"132 -215 OFFCURVE",
"62 -236 CURVE",
"50 -200 LINE",
"85 -188 OFFCURVE",
"102 -168 OFFCURVE",
"102 -150 CURVE SMOOTH",
"102 -129 OFFCURVE",
"80 -104 OFFCURVE",
"58 -83 CURVE",
"117 2 LINE",
"162 2 LINE"
);
},
{
closed = 0;
nodes = (
"137 0 LINE SMOOTH"
);
}
);
width = 233;
},
{
layerId = "7E45FD12-17AB-4855-B847-BB8C6CE14238";
name = Bold;
width = 600;
}
);
unicode = 00B8;
},
{
glyphname = circumflex;
layers = (
{
anchors = (
{
name = _top;
position = "{195, 753}";
}
);
layerId = "D303553C-E248-431D-BB32-0A8D4BAA17B9";
name = Regular;
paths = (
{
closed = 1;
nodes = (
"208 957 LINE",
"316 845 LINE",
"286 823 LINE",
"187 889 LINE",
"181 889 LINE",
"96 822 LINE",
"73 840 LINE",
"175 949 LINE"
);
}
);
width = 393;
},
{
layerId = "7E45FD12-17AB-4855-B847-BB8C6CE14238";
name = Bold;
width = 600;
}
);
unicode = 02C6;
},
{
glyphname = dieresis;
layers = (
{
anchors = (
{
name = _top;
position = "{208, 753}";
}
);
layerId = "D303553C-E248-431D-BB32-0A8D4BAA17B9";
name = Regular;
paths = (
{
closed = 1;
nodes = (
"288 934 CURVE SMOOTH",
"315 934 OFFCURVE",
"341 915 OFFCURVE",
"341 887 CURVE SMOOTH",
"341 857 OFFCURVE",
"315 838 OFFCURVE",
"288 838 CURVE SMOOTH",
"262 838 OFFCURVE",
"237 857 OFFCURVE",
"237 887 CURVE SMOOTH",
"237 916 OFFCURVE",
"263 934 OFFCURVE"
);
},
{
closed = 1;
nodes = (
"126 934 CURVE SMOOTH",
"153 934 OFFCURVE",
"178 915 OFFCURVE",
"178 887 CURVE SMOOTH",
"178 857 OFFCURVE",
"153 838 OFFCURVE",
"126 838 CURVE SMOOTH",
"100 838 OFFCURVE",
"75 857 OFFCURVE",
"75 887 CURVE SMOOTH",
"75 916 OFFCURVE",
"101 934 OFFCURVE"
);
}
);
width = 416;
},
{
layerId = "7E45FD12-17AB-4855-B847-BB8C6CE14238";
name = Bold;
width = 600;
}
);
unicode = 00A8;
},
{
glyphname = dotaccent;
layers = (
{
anchors = (
{
name = _top;
position = "{148, 753}";
}
);
layerId = "D303553C-E248-431D-BB32-0A8D4BAA17B9";
name = Regular;
paths = (
{
closed = 1;
nodes = (
"147 964 CURVE SMOOTH",
"187 964 OFFCURVE",
"221 934 OFFCURVE",
"221 895 CURVE SMOOTH",
"221 854 OFFCURVE",
"187 821 OFFCURVE",
"147 821 CURVE SMOOTH",
"107 821 OFFCURVE",
"75 855 OFFCURVE",
"75 896 CURVE SMOOTH",
"75 935 OFFCURVE",
"109 964 OFFCURVE"
);
}
);
width = 296;
},
{
layerId = "7E45FD12-17AB-4855-B847-BB8C6CE14238";
name = Bold;
width = 600;
}
);
unicode = 02D9;
},
{
glyphname = grave;
layers = (
{
anchors = (
{
name = _top;
position = "{174, 753}";
}
);
layerId = "D303553C-E248-431D-BB32-0A8D4BAA17B9";
name = Regular;
paths = (
{
closed = 1;
nodes = (
"99 1005 LINE",
"169 1028 LINE",
"249 826 LINE",
"214 805 LINE"
);
}
);
width = 384;
},
{
layerId = "7E45FD12-17AB-4855-B847-BB8C6CE14238";
name = Bold;
width = 600;
}
);
unicode = 0060;
},
{
glyphname = hungarumlaut;
layers = (
{
anchors = (
{
name = _top;
position = "{152, 753}";
}
);
layerId = "D303553C-E248-431D-BB32-0A8D4BAA17B9";
name = Regular;
paths = (
{
closed = 1;
nodes = (
"396 924 LINE",
"220 823 LINE",
"203 853 LINE",
"352 974 LINE"
);
},
{
closed = 1;
nodes = (
"274 927 LINE",
"92 823 LINE",
"75 853 LINE",
"229 979 LINE"
);
}
);
width = 471;
},
{
layerId = "7E45FD12-17AB-4855-B847-BB8C6CE14238";
name = Bold;
width = 600;
}
);
unicode = 02DD;
},
{
glyphname = macron;
layers = (
{
anchors = (
{
name = _top;
position = "{213, 753}";
}
);
layerId = "D303553C-E248-431D-BB32-0A8D4BAA17B9";
name = Regular;
paths = (
{
closed = 1;
nodes = (
"83 896 LINE",
"350 896 LINE",
"342 835 LINE",
"75 835 LINE"
);
}
);
width = 425;
},
{
layerId = "7E45FD12-17AB-4855-B847-BB8C6CE14238";
name = Bold;
width = 600;
}
);
unicode = 00AF;
},
{
glyphname = ogonek;
layers = (
{
anchors = (
{
name = _ogonek;
position = "{178, 2}";
}
);
layerId = "D303553C-E248-431D-BB32-0A8D4BAA17B9";
name = Regular;
paths = (
{
closed = 1;
nodes = (
"165 -90 CURVE SMOOTH",
"165 -128 OFFCURVE",
"185 -171 OFFCURVE",
"240 -203 CURVE",
"219 -234 LINE",
"132 -225 OFFCURVE",
"75 -178 OFFCURVE",
"75 -126 CURVE SMOOTH",
"75 -94 OFFCURVE",
"86 -62 OFFCURVE",
"159 2 CURVE",
"202 2 LINE",
"166 -57 OFFCURVE",
"165 -79 OFFCURVE"
);
}
);
width = 315;
},
{
layerId = "7E45FD12-17AB-4855-B847-BB8C6CE14238";
name = Bold;
width = 600;
}
);
unicode = 02DB;
},
{
glyphname = ring;
layers = (
{
anchors = (
{
name = _top;
position = "{170, 753}";
}
);
layerId = "D303553C-E248-431D-BB32-0A8D4BAA17B9";
name = Regular;
paths = (
{
closed = 1;
nodes = (
"167 1000 CURVE SMOOTH",
"131 1000 OFFCURVE",
"115 966 OFFCURVE",
"115 932 CURVE SMOOTH",
"115 895 OFFCURVE",
"134 854 OFFCURVE",
"173 854 CURVE SMOOTH",
"206 854 OFFCURVE",
"225 879 OFFCURVE",
"225 923 CURVE SMOOTH",
"225 961 OFFCURVE",
"205 1000 OFFCURVE"
);
},
{
closed = 1;
nodes = (
"174 1029 CURVE SMOOTH",
"232 1029 OFFCURVE",
"268 988 OFFCURVE",
"268 931 CURVE SMOOTH",
"268 876 OFFCURVE",
"228 825 OFFCURVE",
"166 825 CURVE SMOOTH",
"110 825 OFFCURVE",
"72 863 OFFCURVE",
"72 925 CURVE SMOOTH",
"72 981 OFFCURVE",
"117 1029 OFFCURVE"
);
}
);
width = 333;
},
{
layerId = "7E45FD12-17AB-4855-B847-BB8C6CE14238";
name = Bold;
width = 600;
}
);
unicode = 02DA;
},
